<?xml version="1.0" standalone="no"?>
<!DOCTYPE svg PUBLIC "-//W3C//DTD SVG 20010904//EN"
 "http://www.w3.org/TR/2001/REC-SVG-20010904/DTD/svg10.dtd">
<svg version="1.0" xmlns="http://www.w3.org/2000/svg"
 width="2103.000000pt" height="1720.000000pt" viewBox="0 0 2103.000000 1720.000000"
 preserveAspectRatio="xMidYMid meet">

<g transform="translate(0.000000,1720.000000) scale(0.100000,-0.100000)"
fill="#000000" stroke="none">
<path d="M9355 17150 c-9 -40 -48 -86 -80 -94 -32 -8 -33 -36 -1 -36 24 0 24
-1 28 -116 3 -113 4 -116 31 -140 66 -56 167 -7 167 81 0 16 -6 25 -15 25 -9
0 -15 -9 -15 -23 0 -35 -22 -59 -51 -55 -24 3 -24 5 -27 116 l-3 112 51 0 c42
0 50 3 50 19 0 16 -7 18 -47 17 l-48 -1 -3 63 c-3 68 -25 87 -37 32z"/>
<path d="M12119 17070 c-140 -24 -176 -231 -53 -302 38 -22 97 -28 142 -16 44
12 110 77 91 89 -7 4 -24 -6 -44 -27 -61 -64 -148 -38 -162 50 l-6 36 107 0
106 0 0 31 c0 92 -83 156 -181 139z m78 -42 c18 -15 26 -67 13 -83 -8 -10 -31
-15 -68 -15 l-55 0 6 38 c11 63 61 93 104 60z"/>
<path d="M8160 15590 l0 -830 1180 0 1180 0 0 830 0 830 -1180 0 -1180 0 0
-830z m290 675 l0 -115 -125 0 -125 0 0 115 0 115 125 0 125 0 0 -115z m290 0
l0 -115 -125 0 -125 0 0 115 0 115 125 0 125 0 0 -115z m290 0 l0 -115 -125 0
-125 0 0 115 0 115 125 0 125 0 0 -115z m290 0 l0 -115 -125 0 -125 0 0 115 0
115 125 0 125 0 0 -115z m290 0 l0 -115 -125 0 -125 0 0 115 0 115 125 0 125
0 0 -115z m271 92 c-10 -9 -11 -8 -5 6 3 10 9 15 12 12 3 -3 0 -11 -7 -18z
m309 -92 l0 -115 -125 0 -125 0 0 115 0 115 125 0 125 0 0 -115z m290 0 l0
-115 -125 0 -125 0 0 115 0 115 125 0 125 0 0 -115z m-620 65 c0 -5 -4 -10
-10 -10 -5 0 -10 5 -10 10 0 6 5 10 10 10 6 0 10 -4 10 -10z m-1345 -238 c-3
-3 -11 0 -18 7 -9 10 -8 11 6 5 10 -3 15 -9 12 -12z m515 -97 l0 -115 -125 0
-125 0 0 115 0 115 125 0 125 0 0 -115z m580 0 l0 -115 -125 0 -125 0 0 115 0
115 125 0 125 0 0 -115z m290 0 l0 -115 -125 0 -125 0 0 115 0 115 125 0 125
0 0 -115z m580 0 l0 -115 -125 0 -125 0 0 115 0 115 125 0 125 0 0 -115z
m-1745 95 c3 -5 1 -10 -4 -10 -6 0 -11 5 -11 10 0 6 2 10 4 10 3 0 8 -4 11
-10z m-285 -365 l0 -115 -125 0 -125 0 0 115 0 115 125 0 125 0 0 -115z m870
0 l0 -115 -125 0 -125 0 0 115 0 115 125 0 125 0 0 -115z m580 0 l0 -115 -125
0 -125 0 0 115 0 115 125 0 125 0 0 -115z m290 0 l0 -115 -125 0 -125 0 0 115
0 115 125 0 125 0 0 -115z m-1740 -270 l0 -115 -125 0 -125 0 0 115 0 115 125
0 125 0 0 -115z m580 0 l0 -115 -125 0 -125 0 0 115 0 115 125 0 125 0 0 -115z
m870 0 l0 -115 -125 0 -125 0 0 115 0 115 125 0 125 0 0 -115z m290 0 l0 -115
-125 0 -125 0 0 115 0 115 125 0 125 0 0 -115z m290 0 l0 -115 -125 0 -125 0
0 115 0 115 125 0 125 0 0 -115z m-1740 -270 l0 -115 -125 0 -125 0 0 115 0
115 125 0 125 0 0 -115z m290 0 l0 -115 -125 0 -125 0 0 115 0 115 125 0 125
0 0 -115z m290 0 l0 -115 -125 0 -125 0 0 115 0 115 125 0 125 0 0 -115z m290
0 l0 -115 -125 0 -125 0 0 115 0 115 125 0 125 0 0 -115z m290 0 l0 -115 -125
0 -125 0 0 115 0 115 125 0 125 0 0 -115z m290 0 l0 -115 -125 0 -125 0 0 115
0 115 125 0 125 0 0 -115z m290 0 l0 -115 -125 0 -125 0 0 115 0 115 125 0
125 0 0 -115z m-2030 -270 l0 -115 -125 0 -125 0 0 115 0 115 125 0 125 0 0
-115z m580 0 l0 -115 -125 0 -125 0 0 115 0 115 125 0 125 0 0 -115z m580 0
l0 -115 -125 0 -125 0 0 115 0 115 125 0 125 0 0 -115z m580 0 l0 -115 -125 0
-125 0 0 115 0 115 125 0 125 0 0 -115z"/>
<path d="M11000 15590 l0 -830 1180 0 1180 0 0 830 0 830 -1180 0 -1180 0 0
-830z m290 675 l0 -115 -125 0 -125 0 0 115 0 115 125 0 125 0 0 -115z m290 0
l0 -115 -125 0 -125 0 0 115 0 115 125 0 125 0 0 -115z m580 0 l0 -115 -125 0
-125 0 0 115 0 115 125 0 125 0 0 -115z m290 0 l0 -115 -125 0 -125 0 0 115 0
115 125 0 125 0 0 -115z m580 0 l0 -115 -125 0 -125 0 0 115 0 115 125 0 125
0 0 -115z m290 0 l0 -115 -125 0 -125 0 0 115 0 115 125 0 125 0 0 -115z
m-803 79 c-3 -3 -12 -4 -19 -1 -8 3 -5 6 6 6 11 1 17 -2 13 -5z m28 -14 c-3
-5 -14 -10 -23 -9 -14 0 -13 2 3 9 27 11 27 11 20 0z m-995 -225 c0 -2 -6 -8
-13 -14 -10 -8 -14 -7 -14 2 0 8 6 14 14 14 7 0 13 -1 13 -2z m320 -110 l0
-115 -125 0 -125 0 0 115 0 115 125 0 125 0 0 -115z m580 0 l0 -115 -125 0
-125 0 0 115 0 115 125 0 125 0 0 -115z m580 0 l0 -115 -125 0 -125 0 0 115 0
115 125 0 125 0 0 -115z m290 0 l0 -115 -125 0 -125 0 0 115 0 115 125 0 125
0 0 -115z m-2030 -270 l0 -115 -125 0 -125 0 0 115 0 115 125 0 125 0 0 -115z
m870 0 l0 -115 -125 0 -125 0 0 115 0 115 125 0 125 0 0 -115z m580 0 l0 -115
-125 0 -125 0 0 115 0 115 125 0 125 0 0 -115z m290 0 l0 -115 -125 0 -125 0
0 115 0 115 125 0 125 0 0 -115z m-1740 -270 l0 -115 -125 0 -125 0 0 115 0
115 125 0 125 0 0 -115z m580 0 l0 -115 -125 0 -125 0 0 115 0 115 125 0 125
0 0 -115z m290 0 l0 -115 -125 0 -125 0 0 115 0 115 125 0 125 0 0 -115z m580
0 l0 -115 -125 0 -125 0 0 115 0 115 125 0 125 0 0 -115z m290 0 l0 -115 -125
0 -125 0 0 115 0 115 125 0 125 0 0 -115z m290 0 l0 -115 -125 0 -125 0 0 115
0 115 125 0 125 0 0 -115z m-1740 -270 l0 -115 -125 0 -125 0 0 115 0 115 125
0 125 0 0 -115z m290 0 l0 -115 -125 0 -125 0 0 115 0 115 125 0 125 0 0 -115z
m290 0 l0 -115 -125 0 -125 0 0 115 0 115 125 0 125 0 0 -115z m290 0 l0 -115
-125 0 -125 0 0 115 0 115 125 0 125 0 0 -115z m290 0 l0 -115 -125 0 -125 0
0 115 0 115 125 0 125 0 0 -115z m290 0 l0 -115 -125 0 -125 0 0 115 0 115
125 0 125 0 0 -115z m290 0 l0 -115 -125 0 -125 0 0 115 0 115 125 0 125 0 0
-115z m-2030 -270 l0 -115 -125 0 -125 0 0 115 0 115 125 0 125 0 0 -115z
m580 0 l0 -115 -125 0 -125 0 0 115 0 115 125 0 125 0 0 -115z m580 0 l0 -115
-125 0 -125 0 0 115 0 115 125 0 125 0 0 -115z m580 0 l0 -115 -125 0 -125 0
0 115 0 115 125 0 125 0 0 -115z"/>
<path d="M9410 14392 l0 -228 -45 3 c-25 2 -45 1 -45 -2 0 -3 28 -60 61 -127
l61 -123 59 115 c32 63 58 120 58 126 1 7 -16 11 -44 10 l-45 -1 0 227 0 228
-30 0 -30 0 0 -228z"/>
<path d="M12038 14393 l-3 -228 -42 3 c-24 2 -43 1 -43 -2 0 -4 28 -61 61
-128 l61 -123 59 115 c60 119 68 142 47 139 -7 -1 -28 -1 -45 0 l-33 1 0 225
0 225 -30 0 -30 0 -2 -227z"/>
<path d="M4940 13155 l0 -535 5800 0 5800 0 0 535 0 535 -5800 0 -5800 0 0
-535z m11560 0 l0 -495 -5760 0 -5760 0 0 495 0 495 5760 0 5760 0 0 -495z"/>
<path d="M5900 13359 c-20 -4 -48 -22 -67 -43 -27 -29 -33 -44 -33 -79 0 -58
22 -84 99 -119 82 -37 101 -54 101 -89 0 -40 -41 -69 -97 -69 -57 0 -99 38
-109 99 -9 59 -26 46 -45 -35 -14 -60 -14 -69 -1 -72 8 -2 19 1 25 7 7 7 22 4
48 -10 76 -38 194 -13 232 50 21 36 22 109 1 136 -8 11 -52 38 -97 60 -74 36
-82 43 -85 71 -4 41 27 69 80 69 49 0 85 -36 94 -96 4 -21 12 -39 19 -39 11 0
49 140 39 149 -2 2 -15 -2 -29 -9 -22 -12 -30 -12 -53 2 -36 21 -80 27 -122
17z"/>
<path d="M12977 13359 c-58 -14 -91 -34 -135 -84 -98 -112 -94 -266 9 -324 52
-30 139 -26 186 7 38 27 43 27 43 2 0 -11 6 -20 14 -20 13 0 29 41 51 133 5
17 16 29 31 33 13 3 24 10 24 15 0 12 -177 11 -185 -1 -3 -5 3 -10 15 -10 30
0 35 -24 15 -73 -24 -61 -42 -77 -87 -77 -68 0 -95 47 -85 150 13 146 112 255
199 219 32 -13 58 -59 58 -104 0 -31 26 -34 33 -2 3 12 9 46 13 75 7 52 0 64
-24 40 -10 -10 -18 -9 -40 4 -37 21 -89 28 -135 17z"/>
<path d="M7248 13349 c-28 -16 -23 -67 7 -81 21 -9 28 -8 45 7 26 24 25 50 -2
69 -26 19 -27 19 -50 5z"/>
<path d="M7975 13350 c-3 -5 -14 -33 -24 -62 -11 -29 -22 -61 -26 -70 -13 -33
20 -19 39 16 35 66 109 116 122 83 8 -23 -75 -330 -94 -344 -9 -7 -26 -13 -39
-13 -13 0 -23 -4 -23 -10 0 -6 45 -10 115 -10 110 0 149 11 85 24 -16 3 -30
11 -30 18 0 25 82 324 93 336 11 14 54 9 71 -8 5 -5 9 -32 8 -60 -1 -69 18
-61 40 16 29 102 42 94 -156 94 -104 0 -177 -4 -181 -10z"/>
<path d="M10627 13353 c-13 -12 -7 -23 13 -23 27 0 26 -9 -20 -180 -22 -81
-40 -159 -40 -172 0 -59 62 -65 115 -13 19 20 35 42 35 50 0 23 -11 18 -41
-17 -15 -18 -30 -30 -34 -27 -3 4 17 91 44 194 28 102 51 188 51 191 0 7 -116
5 -123 -3z"/>
<path d="M11037 13353 c-14 -13 -6 -23 17 -23 14 0 28 -4 31 -10 6 -10 -66
-284 -85 -319 -6 -12 -22 -26 -36 -31 -47 -18 -25 -30 56 -30 81 0 103 12 55
30 -20 8 -25 16 -25 42 1 29 53 234 63 244 2 2 9 -53 16 -123 23 -251 24 -251
157 -33 53 88 98 159 100 158 1 -2 -15 -66 -35 -143 -37 -137 -38 -140 -69
-150 -57 -17 -34 -25 73 -25 63 0 105 4 105 10 0 6 -8 10 -18 10 -39 0 -40 18
-10 138 52 211 56 221 83 228 14 3 25 13 25 21 0 11 -14 13 -67 11 l-66 -3
-91 -147 c-50 -81 -92 -145 -94 -143 -3 3 -31 255 -32 283 0 8 -21 12 -73 12
-41 0 -77 -3 -80 -7z"/>
<path d="M12250 13345 c0 -8 7 -15 15 -15 9 0 18 -6 21 -13 2 -7 -17 -95 -44
-196 -52 -192 -52 -197 -1 -189 18 2 28 16 44 64 30 88 69 149 107 167 34 17
58 9 58 -20 0 -25 -47 -63 -79 -63 -36 0 -52 -19 -22 -27 18 -4 21 -13 21 -52
0 -53 13 -71 48 -71 24 0 92 58 92 79 0 17 -15 13 -35 -9 -23 -25 -35 -25 -35
-1 0 10 -9 29 -19 42 l-19 24 40 15 c77 28 98 90 42 127 -22 14 -28 14 -69 -1
-24 -10 -56 -32 -71 -49 -19 -22 -25 -26 -21 -12 7 23 57 209 57 213 0 1 -29
2 -65 2 -51 0 -65 -3 -65 -15z"/>
<path d="M6995 13278 c-2 -7 -7 -26 -12 -43 -7 -22 -17 -31 -35 -33 -35 -4
-46 -32 -13 -32 30 0 30 -2 5 -92 -33 -118 -25 -148 37 -148 25 0 43 10 74 41
28 28 38 44 31 51 -7 7 -20 -1 -40 -23 -42 -46 -57 -31 -38 37 8 27 20 68 26
92 9 37 14 42 39 42 16 0 31 7 35 15 4 11 -2 15 -25 15 -24 0 -29 4 -25 18 21
71 21 72 -18 72 -21 0 -38 -6 -41 -12z"/>
<path d="M15005 13278 c-2 -7 -7 -26 -12 -43 -7 -22 -17 -31 -35 -33 -35 -4
-46 -32 -13 -32 30 0 30 -2 5 -92 -33 -118 -25 -148 37 -148 25 0 43 10 74 41
28 28 38 44 31 51 -7 7 -20 -1 -40 -23 -42 -46 -57 -31 -38 37 8 27 20 68 26
92 9 37 14 42 39 42 16 0 31 7 35 15 4 11 -2 15 -25 15 -24 0 -29 4 -25 18 21
71 21 72 -18 72 -21 0 -38 -6 -41 -12z"/>
<path d="M7490 13207 c-77 -26 -120 -83 -120 -160 0 -42 5 -54 34 -83 29 -29
41 -34 80 -34 99 0 166 59 174 153 3 43 0 57 -19 81 -22 28 -75 57 -101 55 -7
0 -29 -6 -48 -12z m80 -32 c30 -36 -13 -190 -60 -215 -35 -19 -60 4 -60 54 0
113 76 215 120 161z"/>
<path d="M8475 13215 c-5 -2 -22 -6 -37 -9 -37 -8 -98 -63 -114 -103 -54 -128
59 -220 183 -148 23 14 43 29 43 34 0 19 -14 18 -47 -5 -55 -37 -94 -27 -107
27 -5 24 -2 27 53 42 73 20 121 59 121 95 0 35 -10 49 -43 61 -29 11 -35 12
-52 6z m19 -40 c14 -38 -39 -105 -84 -105 -16 0 -1 50 27 88 26 34 47 41 57
17z"/>
<path d="M9660 13207 c-77 -26 -120 -83 -120 -160 0 -42 5 -54 34 -83 29 -29
41 -34 80 -34 99 0 166 59 174 153 3 43 0 57 -19 81 -22 28 -75 57 -101 55 -7
0 -29 -6 -48 -12z m80 -32 c30 -36 -13 -190 -60 -215 -35 -19 -60 4 -60 54 0
113 76 215 120 161z"/>
<path d="M12019 13211 c-47 -15 -66 -30 -79 -61 -19 -45 -1 -76 58 -102 62
-27 71 -35 65 -58 -6 -22 -52 -41 -82 -33 -16 4 -20 12 -18 42 2 34 0 36 -28
36 -26 0 -30 -4 -33 -31 -2 -25 3 -37 25 -54 24 -19 37 -21 91 -18 77 5 116
36 116 92 0 45 -15 61 -75 81 -28 10 -53 24 -56 31 -8 22 27 54 59 54 25 0 29
-4 27 -22 -2 -13 0 -29 4 -35 12 -19 45 -15 57 6 23 44 -65 93 -131 72z"/>
<path d="M13385 13215 c-5 -2 -22 -6 -37 -9 -37 -8 -98 -63 -114 -103 -54
-128 59 -220 183 -148 23 14 43 29 43 34 0 19 -14 18 -47 -5 -55 -37 -94 -27
-107 27 -5 24 -2 27 53 42 73 20 121 59 121 95 0 35 -10 49 -43 61 -29 11 -35
12 -52 6z m19 -40 c14 -38 -39 -105 -84 -105 -16 0 -1 50 27 88 26 34 47 41
57 17z"/>
<path d="M14085 13215 c-5 -2 -22 -6 -37 -9 -37 -8 -98 -63 -114 -103 -54
-128 59 -220 183 -148 23 14 43 29 43 34 0 19 -14 18 -47 -5 -55 -37 -94 -27
-107 27 -5 24 -2 27 53 42 73 20 121 59 121 95 0 35 -10 49 -43 61 -29 11 -35
12 -52 6z m19 -40 c14 -38 -39 -105 -84 -105 -16 0 -1 50 27 88 26 34 47 41
57 17z"/>
<path d="M15270 13207 c-77 -26 -120 -83 -120 -160 0 -42 5 -54 34 -83 29 -29
41 -34 80 -34 99 0 166 59 174 153 3 43 0 57 -19 81 -22 28 -75 57 -101 55 -7
0 -29 -6 -48 -12z m80 -32 c30 -36 -13 -190 -60 -215 -35 -19 -60 4 -60 54 0
113 76 215 120 161z"/>
<path d="M6178 13203 c-34 -5 -36 -16 -4 -31 l24 -11 -19 -68 c-67 -227 -69
-232 -91 -235 -12 -2 -23 -9 -26 -15 -3 -10 18 -13 82 -13 87 0 117 12 72 30
-30 11 -29 7 -15 51 6 19 13 40 15 47 3 9 10 7 26 -8 18 -17 32 -21 66 -17 73
8 142 93 142 176 0 54 -39 101 -84 101 -30 0 -71 -21 -89 -44 -4 -6 -5 1 -1
17 6 26 5 27 -32 26 -22 -1 -51 -4 -66 -6z m183 -57 c23 -49 -35 -176 -79
-176 -43 0 -54 51 -27 118 32 76 85 105 106 58z"/>
<path d="M6614 13191 c-88 -53 -118 -199 -51 -246 30 -21 79 -19 109 4 24 19
24 19 36 0 20 -32 61 -24 104 21 40 42 47 60 25 60 -7 0 -21 -13 -30 -30 -19
-31 -37 -40 -37 -17 0 6 13 59 30 116 16 58 28 107 25 109 -2 2 -20 1 -40 -2
-23 -5 -35 -12 -35 -23 0 -14 -4 -13 -23 5 -29 27 -72 28 -113 3z m106 -74 c0
-64 -32 -135 -65 -143 -36 -9 -45 2 -45 54 0 59 32 130 62 141 38 14 48 3 48
-52z"/>
<path d="M7198 13203 c-33 -5 -37 -23 -8 -30 11 -3 20 -8 20 -12 0 -3 -9 -38
-20 -76 -34 -118 -26 -155 30 -155 34 0 113 81 96 98 -4 3 -19 -10 -35 -29
-16 -19 -32 -31 -36 -27 -6 6 34 177 52 224 5 14 -33 17 -99 7z"/>
<path d="M8643 13203 c-28 -5 -30 -20 -3 -28 25 -8 25 -14 -5 -127 -14 -51
-25 -99 -25 -105 0 -21 68 -16 74 5 40 139 49 164 75 191 61 66 77 28 41 -101
-28 -102 -27 -110 13 -106 30 3 33 7 57 78 41 119 69 160 109 160 15 0 13 -46
-4 -104 -27 -90 -17 -136 32 -136 26 0 103 65 103 86 0 21 -16 17 -38 -11 -19
-24 -42 -34 -42 -17 0 4 9 40 20 81 25 92 25 104 2 124 -32 29 -80 19 -128
-25 -21 -19 -22 -19 -28 6 -12 47 -79 47 -135 0 l-31 -26 10 27 c5 14 10 28
10 31 0 5 -76 3 -107 -3z"/>
<path d="M9208 13203 c-34 -5 -36 -16 -4 -31 l24 -11 -19 -68 c-67 -227 -69
-232 -91 -235 -12 -2 -23 -9 -26 -15 -3 -10 18 -13 82 -13 87 0 117 12 72 30
-30 11 -29 7 -15 51 6 19 13 40 15 47 3 9 10 7 26 -8 18 -17 32 -21 66 -17 73
8 142 93 142 176 0 54 -39 101 -84 101 -30 0 -71 -21 -89 -44 -4 -6 -5 1 -1
17 6 26 5 27 -32 26 -22 -1 -51 -4 -66 -6z m183 -57 c23 -49 -35 -176 -79
-176 -43 0 -54 51 -27 118 32 76 85 105 106 58z"/>
<path d="M9923 13203 c-26 -5 -30 -18 -8 -27 21 -8 19 -57 -5 -141 -28 -98
-27 -105 15 -105 32 0 35 3 45 43 19 73 22 81 46 129 13 26 34 54 46 63 22 15
23 14 28 -12 9 -48 70 -38 70 11 0 66 -94 60 -141 -10 l-20 -29 6 43 7 42 -34
-1 c-18 -1 -43 -4 -55 -6z"/>
<path d="M10274 13191 c-88 -53 -118 -199 -51 -246 30 -21 79 -19 109 4 24 19
24 19 36 0 20 -32 61 -24 104 21 40 42 47 60 25 60 -7 0 -21 -13 -30 -30 -19
-31 -37 -40 -37 -17 0 6 13 59 30 116 16 58 28 107 25 109 -2 2 -20 1 -40 -2
-23 -5 -35 -12 -35 -23 0 -14 -4 -13 -23 5 -29 27 -72 28 -113 3z m106 -74 c0
-64 -32 -135 -65 -143 -36 -9 -45 2 -45 54 0 59 32 130 62 141 38 14 48 3 48
-52z"/>
<path d="M11624 13191 c-88 -53 -118 -199 -51 -246 30 -21 79 -19 109 4 24 19
24 19 36 0 20 -32 61 -24 104 21 40 42 47 60 25 60 -7 0 -21 -13 -30 -30 -19
-31 -37 -40 -37 -17 0 6 13 59 30 116 16 58 28 107 25 109 -2 2 -20 1 -40 -2
-23 -5 -35 -12 -35 -23 0 -14 -4 -13 -23 5 -29 27 -72 28 -113 3z m106 -74 c0
-64 -32 -135 -65 -143 -36 -9 -45 2 -45 54 0 59 32 130 62 141 38 14 48 3 48
-52z"/>
<path d="M13563 13203 c-28 -5 -30 -33 -3 -33 25 0 25 -4 -9 -128 -30 -110
-29 -117 20 -110 19 2 28 17 49 78 27 81 59 134 92 151 37 20 44 -3 25 -83
-27 -115 -20 -148 29 -148 42 0 118 80 96 102 -6 6 -17 -4 -30 -26 -21 -36
-42 -47 -42 -23 0 6 9 45 20 86 25 92 25 96 0 121 -32 32 -73 26 -119 -18
l-41 -39 6 39 7 38 -39 -1 c-22 -1 -49 -4 -61 -6z"/>
<path d="M14273 13203 c-26 -5 -30 -18 -8 -27 21 -8 19 -57 -5 -141 -28 -98
-27 -105 15 -105 32 0 35 3 45 43 19 73 22 81 46 129 13 26 34 54 46 63 22 15
23 14 28 -12 9 -48 70 -38 70 11 0 66 -94 60 -141 -10 l-20 -29 6 43 7 42 -34
-1 c-18 -1 -43 -4 -55 -6z"/>
<path d="M14624 13191 c-88 -53 -118 -199 -51 -246 30 -21 79 -19 109 4 24 19
24 19 36 0 20 -32 61 -24 104 21 40 42 47 60 25 60 -7 0 -21 -13 -30 -30 -19
-31 -37 -40 -37 -17 0 6 13 59 30 116 16 58 28 107 25 109 -2 2 -20 1 -40 -2
-23 -5 -35 -12 -35 -23 0 -14 -4 -13 -23 5 -29 27 -72 28 -113 3z m106 -74 c0
-64 -32 -135 -65 -143 -36 -9 -45 2 -45 54 0 59 32 130 62 141 38 14 48 3 48
-52z"/>
<path d="M15533 13203 c-26 -5 -30 -18 -8 -27 21 -8 19 -57 -5 -141 -28 -98
-27 -105 15 -105 32 0 35 3 45 43 19 73 22 81 46 129 13 26 34 54 46 63 22 15
23 14 28 -12 9 -48 70 -38 70 11 0 66 -94 60 -141 -10 l-20 -29 6 43 7 42 -34
-1 c-18 -1 -43 -4 -55 -6z"/>
<path d="M7690 13081 c-19 -37 -13 -41 79 -41 84 0 89 1 95 23 3 12 6 25 6 30
0 4 -38 7 -85 7 -73 0 -86 -3 -95 -19z"/>
<path d="M7450 12065 c-14 -8 -49 -20 -77 -26 -70 -16 -72 -39 -3 -39 l50 0
-2 -187 -3 -188 -42 -3 c-44 -3 -56 -15 -27 -26 9 -3 65 -6 125 -6 90 0 109 3
109 15 0 11 -11 15 -37 15 -21 0 -44 4 -50 8 -9 6 -13 67 -15 229 l-3 221 -25
-13z"/>
<path d="M8808 12053 c-55 -5 -61 -14 -18 -30 l30 -11 -2 -194 -3 -193 -28 -3
c-16 -2 -26 -9 -24 -15 5 -15 130 -22 154 -9 20 12 21 10 -32 27 -13 4 -15 37
-15 220 0 118 -3 214 -7 213 -5 -1 -29 -3 -55 -5z"/>
<path d="M9603 12053 c-47 -4 -56 -18 -20 -29 12 -4 25 -12 29 -18 9 -13 11
-348 2 -370 -3 -9 -17 -16 -31 -16 -14 0 -23 -5 -21 -12 4 -12 98 -21 136 -13
26 6 20 25 -9 25 -16 0 -19 7 -19 50 0 40 4 51 21 61 13 6 24 7 28 2 3 -5 21
-30 39 -55 37 -54 38 -58 13 -58 -26 0 -35 -16 -15 -24 9 -3 45 -6 80 -6 50 0
64 3 64 15 0 8 -9 15 -19 15 -13 0 -39 27 -75 76 -31 42 -56 80 -56 84 0 12
77 69 104 76 50 12 26 24 -49 24 -71 0 -99 -11 -55 -23 30 -8 25 -20 -27 -68
l-48 -44 -5 154 c-3 91 -9 155 -15 156 -5 1 -29 0 -52 -2z"/>
<path d="M13903 12053 c-47 -4 -56 -18 -20 -29 12 -4 25 -12 29 -18 9 -13 11
-348 2 -370 -3 -9 -17 -16 -30 -16 -25 0 -33 -15 -11 -22 23 -9 132 -3 135 7
1 6 -6 11 -18 13 -17 3 -20 11 -20 52 0 40 4 51 21 61 13 6 24 7 28 2 3 -5 21
-30 39 -55 17 -26 32 -49 32 -52 0 -2 -10 -6 -22 -8 -51 -7 -18 -23 55 -26 65
-3 77 -1 77 12 0 9 -8 16 -20 16 -18 0 -60 49 -115 133 l-19 29 40 33 c21 19
51 37 67 40 51 12 27 25 -48 25 -71 0 -99 -11 -55 -23 30 -8 25 -20 -27 -68
l-48 -44 -5 154 c-3 91 -9 155 -15 156 -5 1 -29 0 -52 -2z"/>
<path d="M7650 12040 c0 -5 9 -10 19 -10 51 0 51 2 51 -211 l0 -199 -35 0
c-19 0 -35 -4 -35 -10 0 -17 70 -23 184 -16 96 6 117 10 155 34 63 38 93 99
93 189 1 110 -53 201 -132 223 -47 13 -300 13 -300 0z m300 -39 c40 -29 61
-102 57 -202 -3 -96 -17 -127 -70 -160 -24 -14 -46 -19 -87 -17 l-55 3 -3 194
c-2 149 1 197 10 203 20 14 120 0 148 -21z"/>
<path d="M8320 12040 c0 -5 10 -10 23 -10 47 0 48 -4 45 -211 l-3 -194 -32 -3
c-22 -2 -33 -9 -33 -19 0 -13 18 -15 145 -10 126 4 150 7 192 28 39 20 51 32
62 65 13 38 13 44 -5 75 -12 21 -38 42 -64 55 -40 19 -42 22 -23 28 12 4 34
21 48 37 46 55 27 127 -41 155 -40 17 -314 20 -314 4z m252 -20 c42 -12 58
-34 58 -79 0 -71 -36 -101 -120 -101 l-50 0 0 89 c0 62 4 91 13 94 21 9 60 7
99 -3z m23 -214 c40 -17 55 -42 55 -93 0 -69 -43 -97 -136 -91 l-49 3 -3 98
-3 97 51 0 c28 0 66 -6 85 -14z"/>
<path d="M10090 12040 c0 -5 10 -10 23 -10 13 0 31 -6 40 -13 16 -11 17 -32
15 -202 l-3 -190 -32 -3 c-20 -2 -33 -9 -33 -17 0 -11 22 -13 105 -12 73 1
105 6 105 14 0 6 -17 13 -37 15 l-38 3 -3 88 -3 87 63 0 c113 1 180 46 180
123 0 101 -52 127 -247 127 -83 0 -135 -4 -135 -10z m264 -20 c14 -5 30 -18
36 -30 13 -24 16 -86 5 -119 -9 -29 -61 -51 -120 -51 l-45 0 0 93 c0 59 4 97
12 105 14 14 77 16 112 2z"/>
<path d="M11597 12036 c-11 -28 4 -47 32 -44 20 2 26 8 26 28 0 20 -6 26 -26
28 -17 2 -29 -3 -32 -12z"/>
<path d="M12620 12040 c0 -5 9 -10 19 -10 51 0 51 0 51 -195 0 -195 -5 -215
-51 -215 -25 0 -25 -17 1 -25 33 -11 150 -2 150 11 0 7 -11 15 -25 18 -41 10
-46 34 -43 216 l3 171 74 -198 c73 -198 95 -241 106 -212 2 8 36 104 74 214
l70 200 -2 -195 -2 -195 -32 -3 c-20 -2 -33 -9 -33 -17 0 -10 15 -14 53 -14
117 -1 211 23 125 31 l-33 3 -3 194 c-3 207 -2 211 46 211 12 0 22 5 22 10 0
6 -33 10 -78 10 l-78 0 -58 -167 c-32 -93 -61 -171 -65 -175 -4 -4 -36 71 -71
167 l-65 175 -77 0 c-46 0 -78 -4 -78 -10z"/>
<path d="M12373 11885 c-16 -11 -28 -13 -48 -5 -43 16 -90 12 -125 -12 -52
-35 -60 -101 -16 -137 15 -12 14 -16 -9 -37 -32 -29 -32 -57 0 -82 25 -20 25
-21 5 -27 -12 -4 -26 -18 -33 -32 -10 -22 -8 -28 16 -49 36 -31 88 -39 151
-25 63 15 96 44 96 86 0 53 -28 69 -128 75 -81 5 -87 7 -90 28 -2 16 2 22 15
23 141 3 205 52 175 131 -13 36 -2 57 18 33 7 -8 19 -15 26 -15 19 0 18 46 -2
54 -22 9 -27 8 -51 -9z m-61 -32 c23 -21 25 -95 2 -117 -40 -41 -104 -5 -104
59 0 64 58 98 102 58z m52 -279 c9 -8 16 -19 16 -23 0 -20 -30 -43 -68 -52
-66 -14 -122 4 -122 42 0 35 28 49 95 49 44 0 68 -5 79 -16z"/>
<path d="M9044 11880 c-33 -13 -72 -66 -79 -109 -16 -93 46 -181 128 -181 23
0 53 6 67 13 94 47 95 223 1 272 -32 16 -84 19 -117 5z m101 -34 c65 -65 32
-236 -45 -236 -57 0 -87 62 -78 161 9 88 72 126 123 75z"/>
<path d="M9349 11867 c-62 -41 -86 -127 -55 -200 21 -50 50 -70 109 -75 46 -4
57 -1 79 19 27 25 46 69 30 69 -5 0 -17 -11 -26 -25 -56 -85 -146 -34 -146 83
0 86 41 141 96 128 22 -6 24 -10 18 -41 -5 -28 -3 -36 11 -41 21 -9 49 7 53
30 2 9 -10 30 -26 46 -38 38 -93 41 -143 7z"/>
<path d="M10515 11882 c-11 -11 -4 -22 15 -22 32 0 41 -33 38 -138 l-3 -97
-27 -3 c-16 -2 -28 -9 -28 -16 0 -17 171 -16 177 1 3 7 -9 13 -29 15 -32 3
-33 4 -36 53 -4 59 13 126 40 160 26 33 38 31 38 -4 0 -32 16 -43 43 -29 35
18 8 88 -34 88 -26 0 -61 -32 -80 -74 l-19 -41 0 57 0 56 -45 0 c-25 -1 -47
-3 -50 -6z"/>
<path d="M10803 11883 c-21 -7 -15 -21 10 -25 21 -3 22 -8 27 -111 5 -104 6
-110 33 -133 15 -13 39 -24 53 -24 30 0 75 22 95 46 13 16 14 15 19 -12 4 -23
10 -29 30 -28 14 1 35 2 48 3 12 0 22 5 22 10 0 5 -10 11 -22 13 -22 3 -23 8
-28 133 l-5 130 -40 2 c-58 2 -75 -11 -39 -28 29 -14 29 -16 29 -96 -1 -73 -4
-85 -25 -108 -31 -33 -82 -34 -104 -3 -12 17 -16 49 -16 130 l0 108 -37 -2
c-21 -1 -44 -3 -50 -5z"/>
<path d="M11188 11882 c-25 -5 -22 -20 5 -24 18 -2 23 -11 27 -48 3 -25 4 -77
2 -117 -3 -62 -6 -72 -23 -75 -11 -2 -20 -7 -19 -13 0 -6 30 -10 70 -10 40 0
70 4 70 10 1 6 -8 11 -20 13 -17 3 -20 11 -21 50 -3 138 12 175 74 180 55 5
69 -23 65 -134 -3 -84 -4 -89 -26 -92 -50 -7 -13 -26 56 -29 58 -3 72 -1 72
11 0 8 -10 16 -22 18 -22 3 -23 8 -28 111 -5 104 -6 110 -33 133 -43 37 -90
30 -144 -19 l-23 -20 0 32 c0 30 -2 31 -32 29 -18 -1 -41 -4 -50 -6z"/>
<path d="M11568 11883 c-24 -6 -23 -23 1 -23 35 0 42 -23 39 -131 l-3 -104
-27 -3 c-16 -2 -28 -8 -28 -13 0 -5 1 -9 3 -10 30 -6 125 -9 144 -4 28 7 21
21 -12 27 -18 3 -20 13 -25 133 l-5 130 -35 1 c-19 1 -43 -1 -52 -3z"/>
<path d="M11768 11882 c-25 -5 -23 -22 2 -22 32 0 34 -10 31 -167 -1 -64 -3
-72 -21 -75 -28 -4 -26 -22 1 -26 36 -6 130 9 124 19 -4 5 -15 9 -26 9 -21 0
-22 5 -21 105 2 86 21 118 75 123 55 5 69 -23 65 -134 -3 -84 -4 -89 -26 -92
-13 -2 -21 -9 -19 -15 6 -18 147 -20 147 -2 0 7 -10 15 -22 17 -22 3 -23 8
-28 111 -5 104 -6 110 -33 133 -36 31 -75 30 -121 -1 -45 -31 -46 -31 -46 0 0
23 -4 25 -32 23 -18 -1 -41 -4 -50 -6z"/>
<path d="M13289 11867 c-51 -34 -50 -103 2 -90 16 5 20 12 17 41 -3 32 1 38
24 46 35 12 75 -5 88 -39 13 -34 3 -54 -29 -61 -93 -20 -161 -63 -161 -104 0
-11 11 -32 25 -45 32 -33 100 -35 139 -4 l27 21 24 -22 c15 -14 33 -20 51 -18
34 4 43 25 12 30 -22 3 -23 8 -28 111 -5 104 -6 110 -33 133 -38 33 -110 33
-158 1z m102 -229 c-35 -32 -62 -35 -85 -12 -40 40 -1 97 79 114 29 6 30 5 33
-34 3 -35 -1 -45 -27 -68z"/>
<path d="M13641 11876 c-28 -15 -50 -52 -51 -82 0 -37 32 -63 100 -80 36 -9
71 -21 78 -26 33 -28 -4 -78 -57 -78 -33 0 -78 36 -108 85 -10 17 -12 10 -12
-42 -1 -63 5 -73 27 -51 9 9 18 9 37 0 63 -29 135 -6 154 49 21 60 -17 102
-103 115 -45 6 -86 32 -86 53 0 21 34 41 69 41 39 0 71 -24 85 -64 12 -35 26
-2 20 47 -5 38 -9 45 -20 36 -10 -8 -22 -8 -45 0 -41 14 -58 13 -88 -3z"/>
<path d="M6853 11849 c-45 -32 -52 -46 -28 -55 19 -8 96 47 92 65 -4 24 -20
21 -64 -10z"/>
<path d="M14563 11855 c8 -20 135 -215 141 -215 3 0 15 18 27 39 12 22 31 42
42 45 13 3 18 10 13 22 -4 10 4 34 19 60 l26 44 -23 1 c-13 0 -32 2 -43 4 -11
1 -62 6 -114 9 -79 5 -92 4 -88 -9z"/>
<path d="M6725 11759 c-45 -34 -48 -39 -36 -58 7 -11 18 -7 55 20 43 30 56 58
31 65 -5 1 -28 -11 -50 -27z"/>
<path d="M14821 11712 c-8 -15 -2 -23 36 -46 44 -26 79 -28 71 -4 -3 7 -25 25
-51 40 -43 25 -47 26 -56 10z"/>
<path d="M6597 11667 c-50 -35 -51 -35 -38 -56 7 -11 18 -7 55 18 48 33 51 38
38 58 -6 9 -21 3 -55 -20z"/>
<path d="M14957 11633 c-13 -13 -6 -21 37 -47 51 -30 62 -32 70 -11 3 10 -9
23 -38 40 -44 26 -58 30 -69 18z"/>
<path d="M6462 11569 c-40 -29 -49 -48 -26 -56 15 -5 96 56 92 69 -8 22 -24
18 -66 -13z"/>
<path d="M15097 11553 c-14 -13 -6 -23 36 -48 50 -29 63 -31 70 -11 4 10 -9
24 -38 40 -46 27 -57 30 -68 19z"/>
<path d="M6335 11479 c-46 -34 -53 -47 -31 -55 19 -7 97 46 93 65 -4 24 -20
22 -62 -10z"/>
<path d="M15235 11470 c-9 -15 1 -26 50 -54 42 -23 46 -23 54 -7 8 14 1 22
-35 44 -49 29 -60 32 -69 17z"/>
<path d="M6207 11387 c-51 -35 -51 -35 -38 -56 7 -11 18 -7 55 19 49 35 50 38
38 57 -6 10 -20 4 -55 -20z"/>
<path d="M15371 11386 c-9 -11 -1 -20 41 -44 49 -27 67 -28 68 0 0 7 -81 58
-92 58 -3 0 -11 -6 -17 -14z"/>
<path d="M6071 11290 c-39 -29 -48 -49 -25 -57 14 -5 95 58 91 70 -7 21 -24
17 -66 -13z"/>
<path d="M15507 11306 c-8 -20 94 -80 105 -63 13 20 10 24 -36 51 -51 30 -62
32 -69 12z"/>
<path d="M15647 11226 c-8 -21 92 -83 104 -64 14 21 11 25 -37 52 -54 30 -60
31 -67 12z"/>
<path d="M5943 11199 c-45 -31 -52 -46 -29 -55 18 -7 96 47 93 65 -4 24 -20
21 -64 -10z"/>
<path d="M15786 11145 c-8 -21 83 -78 101 -63 21 17 16 23 -36 51 -57 32 -57
32 -65 12z"/>
<path d="M5815 11109 c-45 -34 -48 -39 -36 -57 7 -11 18 -7 52 18 24 17 44 36
43 41 -4 37 -7 37 -59 -2z"/>
<path d="M15927 11073 c-16 -15 -4 -29 42 -56 46 -25 50 -26 60 -10 8 15 2 22
-37 45 -51 30 -55 31 -65 21z"/>
<path d="M5678 11012 c-38 -27 -47 -46 -28 -57 13 -8 102 54 97 68 -7 21 -31
17 -69 -11z"/>
<path d="M16067 10993 c-16 -15 -4 -31 42 -56 26 -15 51 -24 55 -20 15 15 3
33 -38 57 -49 29 -50 29 -59 19z"/>
<path d="M5551 10920 c-40 -29 -48 -49 -25 -57 15 -5 96 56 92 69 -8 22 -24
18 -67 -12z"/>
<path d="M16206 10913 c-15 -15 -3 -33 40 -57 46 -26 64 -26 64 -2 0 15 -94
69 -104 59z"/>
<path d="M5423 10829 c-45 -32 -48 -36 -35 -57 7 -11 41 7 100 53 5 4 -10 35
-17 35 -3 -1 -25 -14 -48 -31z"/>
<path d="M16341 10826 c-10 -12 -5 -19 29 -41 57 -36 66 -39 74 -19 4 9 5 18
4 19 -2 1 -24 14 -49 29 -40 23 -48 24 -58 12z"/>
<path d="M5293 10737 c-42 -30 -53 -50 -33 -62 10 -6 100 53 100 65 0 4 -6 12
-12 17 -9 7 -26 1 -55 -20z"/>
<path d="M16476 10744 c-4 -9 -5 -18 -4 -19 2 -1 25 -15 51 -30 40 -23 51 -26
58 -14 13 21 13 22 -40 52 -58 32 -57 32 -65 11z"/>
<path d="M16616 10664 c-7 -18 6 -30 62 -60 28 -15 35 -16 42 -4 12 19 7 24
-46 54 -55 31 -50 30 -58 10z"/>
<path d="M5158 10642 c-38 -28 -46 -46 -27 -58 14 -8 94 49 94 67 0 23 -28 19
-67 -9z"/>
<path d="M16756 10584 c-3 -9 -6 -17 -6 -19 0 -2 21 -15 46 -29 38 -21 50 -24
61 -14 17 14 5 25 -59 58 -32 17 -37 18 -42 4z"/>
<path d="M5032 10549 c-44 -32 -47 -36 -34 -56 6 -10 17 -7 43 13 19 14 40 29
47 33 13 7 7 41 -7 41 -4 0 -26 -14 -49 -31z"/>
<path d="M16896 10513 c-15 -15 -3 -34 39 -58 43 -26 65 -26 65 -2 0 14 -94
69 -104 60z"/>
<path d="M4903 10457 c-42 -30 -53 -50 -34 -62 10 -6 101 53 101 66 0 3 -6 11
-12 17 -10 7 -25 2 -55 -21z"/>
<path d="M17031 10423 c-8 -16 -2 -23 41 -47 37 -21 53 -25 61 -17 13 13 1 27
-55 60 -35 21 -37 21 -47 4z"/>
<path d="M4768 10362 c-38 -27 -47 -46 -28 -57 13 -8 102 54 97 68 -7 21 -31
17 -69 -11z"/>
<path d="M4585 10315 c-21 -39 -51 -94 -66 -122 -16 -29 -25 -53 -20 -53 19 0
256 41 260 45 2 3 -8 20 -23 39 -14 19 -26 39 -26 44 0 5 -12 22 -27 38 -16
16 -35 40 -44 54 l-16 24 -38 -69z"/>
<path d="M17170 10341 c-8 -17 -3 -23 37 -46 44 -24 73 -27 73 -6 0 5 -22 23
-50 40 -47 29 -50 30 -60 12z"/>
<path d="M6410 10312 c0 -4 10 -12 22 -17 12 -6 30 -22 41 -36 19 -27 19 -27
-4 -58 -12 -17 -31 -31 -41 -31 -10 0 -18 -4 -18 -10 0 -5 16 -10 36 -10 27 0
35 4 31 14 -3 8 3 22 15 32 19 18 20 18 34 -1 8 -11 12 -25 10 -32 -4 -9 7
-13 39 -13 25 0 45 5 45 10 0 6 -6 10 -14 10 -8 0 -28 17 -45 37 l-31 37 27
28 c15 15 33 28 40 28 7 0 13 5 13 10 0 6 -16 10 -36 10 -27 0 -35 -4 -31 -14
3 -8 -1 -22 -9 -33 -14 -17 -14 -17 -28 0 -8 11 -12 25 -9 33 4 11 -6 14 -41
14 -25 0 -46 -3 -46 -8z"/>
<path d="M7160 10298 c-14 -34 -50 -183 -50 -208 0 -37 33 -20 43 23 8 32 13
37 39 37 16 0 38 5 48 10 13 7 21 7 25 0 3 -5 17 -10 30 -10 25 0 50 31 42 53
-3 7 -10 0 -16 -15 -10 -28 -31 -38 -31 -17 0 6 7 38 16 71 11 45 12 64 4 72
-17 16 -34 -12 -49 -79 -13 -57 -37 -82 -68 -71 -16 6 -15 48 3 129 5 21 3 27
-10 27 -9 0 -21 -10 -26 -22z"/>
<path d="M6683 10263 c-27 -5 -31 -21 -5 -19 14 1 17 -9 20 -67 3 -62 1 -68
-20 -77 -19 -7 -14 -9 27 -9 39 0 46 2 33 10 -15 8 -18 24 -18 89 0 44 -3 79
-7 79 -5 -1 -18 -4 -30 -6z"/>
<path d="M17307 10263 c-13 -13 -6 -21 37 -47 51 -30 62 -32 69 -12 4 10 -9
24 -38 40 -46 27 -57 30 -68 19z"/>
<path d="M6888 10243 c34 -2 88 -2 120 0 31 2 3 3 -63 3 -66 0 -92 -1 -57 -3z"/>
<path d="M17716 10228 c4 -12 25 -62 48 -111 l41 -89 42 95 c62 138 60 127 19
127 -28 0 -38 -5 -49 -26 l-13 -25 -12 25 c-9 21 -19 26 -47 26 -33 0 -36 -2
-29 -22z"/>
<path d="M11953 10170 c-18 -10 -39 -29 -47 -42 -20 -31 -86 -310 -72 -305 6
2 16 25 21 51 6 26 12 47 15 47 3 0 21 -7 41 -15 77 -32 169 24 169 102 0 21
-5 43 -11 49 -8 8 -7 17 5 34 20 30 20 63 0 83 -21 22 -82 20 -121 -4z m90 -4
c3 -8 1 -31 -4 -51 -8 -29 -14 -35 -30 -30 -26 9 -59 -3 -59 -21 0 -10 12 -14
39 -14 22 0 42 -4 45 -8 9 -15 -15 -86 -37 -109 -26 -29 -70 -30 -97 -3 -24
24 -25 35 -4 112 19 75 36 102 77 122 40 19 63 20 70 2z m-46 -102 c-3 -3 -12
-4 -19 -1 -8 3 -5 6 6 6 11 1 17 -2 13 -5z"/>
<path d="M15645 10170 c3 -5 13 -10 21 -10 12 0 14 -27 14 -155 0 -152 -1
-156 -22 -165 -18 -7 -9 -9 37 -9 46 0 55 2 38 9 -23 9 -23 13 -23 175 l0 165
-36 0 c-21 0 -33 -4 -29 -10z"/>
<path d="M11560 10080 l-5 -65 -65 -6 -65 -5 65 -5 65 -4 6 -65 5 -65 5 65 4
65 65 6 65 6 -67 1 -67 2 -3 68 -4 67 -4 -65z"/>
<path d="M10671 10064 c-17 -14 -31 -32 -31 -40 0 -19 16 -18 24 1 4 11 20 15
55 15 40 0 53 -4 65 -22 20 -28 20 -77 2 -145 -8 -29 -10 -55 -6 -58 13 -8 28
26 36 76 4 24 22 77 40 118 19 41 34 76 34 79 0 14 -30 -24 -45 -59 l-19 -40
-14 28 c-39 76 -87 92 -141 47z"/>
<path d="M10920 10080 c0 -5 6 -10 13 -10 6 0 27 -19 46 -41 l33 -41 -33 -34
c-18 -19 -39 -34 -45 -34 -7 0 -16 -4 -19 -10 -4 -6 10 -10 35 -10 31 0 41 4
37 13 -3 7 4 24 14 38 l19 24 20 -23 c10 -13 16 -30 13 -37 -4 -12 5 -15 47
-15 31 0 49 4 45 10 -3 6 -12 10 -19 10 -7 0 -27 18 -45 40 l-33 41 27 34 c14
20 35 35 46 35 11 0 17 5 14 10 -3 6 -22 10 -42 10 -28 0 -34 -3 -29 -16 4
-10 -1 -25 -10 -36 -16 -17 -18 -17 -36 -1 -11 10 -16 24 -12 35 5 16 -1 18
-40 18 -25 0 -46 -4 -46 -10z"/>
<path d="M6400 10050 c0 -7 167 -10 480 -10 313 0 480 3 480 10 0 7 -167 10
-480 10 -313 0 -480 -3 -480 -10z"/>
<path d="M15478 10044 c-53 -28 -73 -105 -43 -164 16 -31 61 -60 92 -60 24 0
60 26 74 53 10 18 7 17 -14 -5 -26 -28 -69 -37 -93 -20 -21 14 -34 51 -34 97
0 56 13 83 46 95 32 12 83 -5 66 -22 -18 -18 -14 -38 8 -38 33 0 26 46 -10 65
-36 19 -57 18 -92 -1z"/>
<path d="M15826 10039 c-29 -23 -34 -54 -11 -63 20 -7 31 20 15 39 -10 12 -8
16 15 25 14 5 31 10 36 10 18 0 49 -40 49 -64 0 -20 -6 -24 -42 -29 -59 -8
-93 -36 -93 -78 0 -27 5 -36 28 -47 31 -15 68 -10 90 13 13 13 16 13 27 0 7
-8 23 -15 35 -15 24 0 36 18 34 53 -1 16 -3 14 -8 -8 -3 -17 -13 -30 -21 -30
-12 0 -16 16 -18 70 -3 97 -8 112 -42 130 -39 20 -62 19 -94 -6z m104 -120 c0
-64 -44 -102 -86 -74 -39 25 -25 73 27 94 45 18 59 14 59 -20z"/>
<path d="M16143 10045 c-18 -8 -33 -19 -33 -26 0 -8 7 -6 18 4 24 21 68 22 76
1 3 -9 6 -51 6 -95 0 -73 -2 -80 -22 -89 -18 -7 -9 -9 37 -9 58 -1 59 -1 36
15 -22 16 -23 22 -19 91 4 59 2 78 -11 93 -23 26 -51 31 -88 15z"/>
<path d="M16278 10045 c-16 -9 -28 -21 -28 -27 0 -6 8 -4 18 5 24 21 68 22 76
1 3 -9 6 -51 6 -95 0 -73 -2 -80 -22 -89 -18 -7 -9 -9 37 -9 50 0 56 2 38 11
-21 10 -23 18 -23 98 0 58 -4 91 -13 98 -23 19 -62 22 -89 7z"/>
<path d="M16555 10044 c-19 -10 -31 -11 -33 -5 -4 13 -72 15 -72 2 0 -5 9 -11
20 -14 19 -5 20 -14 20 -141 0 -132 -1 -137 -22 -146 -18 -7 -9 -9 37 -9 46 0
55 2 38 9 -20 8 -23 17 -23 59 l0 49 30 -15 c80 -39 168 53 137 144 -20 61
-83 93 -132 67z m74 -25 c44 -48 31 -152 -23 -177 -25 -13 -31 -12 -55 5 -23
18 -26 28 -29 89 -3 61 0 71 19 86 29 24 64 23 88 -3z"/>
<path d="M8320 9560 l0 -490 217 0 218 0 -175 -175 -175 -175 -782 0 -783 0 0
-489 0 -489 77 -8 c43 -4 154 -4 246 -1 93 2 187 2 209 -1 l40 -5 -113 -113
-114 -114 -807 0 -808 0 0 -489 0 -489 67 -8 c37 -4 149 -5 248 -2 99 2 208 2
243 -1 l63 -6 -126 -125 -125 -125 0 38 0 37 -845 0 -845 0 0 -484 0 -483 46
-7 c26 -3 203 -6 393 -6 l346 0 -233 -233 -232 -232 0 -653 0 -652 653 0 652
0 525 525 c289 289 531 525 537 525 7 0 13 6 13 12 0 17 2351 2368 2367 2368
7 0 13 6 13 12 0 7 225 238 500 513 l500 500 0 653 0 652 -145 0 -145 0 0 355
0 355 -860 0 -860 0 0 -490z m1680 115 l0 -335 -25 0 c-18 0 -25 5 -25 20 0
18 -7 20 -80 20 l-80 0 0 75 0 75 -75 0 -75 0 0 50 0 50 -80 0 -80 0 0 75 0
75 -75 0 -75 0 0 85 0 85 -100 0 -100 0 0 -125 0 -125 -55 0 -55 0 0 90 0 90
-95 0 -95 0 0 -135 0 -135 -75 0 -75 0 0 -75 0 -75 -75 0 -75 0 0 -85 0 -85
-75 0 -75 0 0 -90 c0 -53 -4 -90 -10 -90 -7 0 -10 157 -10 450 l0 450 820 0
820 0 0 -335z m-713 138 c-4 -54 -7 -234 -7 -400 l0 -303 -55 0 -55 0 0 400 0
400 62 0 61 0 -6 -97z m-307 -333 l0 -360 -55 0 -55 0 0 360 0 360 55 0 55 0
0 -360z m460 -55 l0 -315 -60 0 -60 0 0 315 0 315 60 0 60 0 0 -315z m-310
-40 l0 -275 -55 0 -55 0 0 275 0 275 55 0 55 0 0 -275z m470 -30 l0 -235 -55
0 -55 0 0 235 0 235 55 0 55 0 0 -235z m-770 -15 l0 -230 -55 0 -55 0 0 230 0
230 55 0 55 0 0 -230z m920 -40 l0 -190 -55 0 -55 0 0 190 0 190 55 0 55 0 0
-190z m-1070 -30 l0 -150 -55 0 -55 0 0 150 0 150 55 0 55 0 0 -150z m1230
-40 l0 -110 -55 0 -55 0 0 110 0 110 55 0 55 0 0 -110z m90 -25 c0 -95 0 -95
-25 -95 -25 0 -25 0 -25 95 0 95 0 95 25 95 25 0 25 0 25 -95z m260 92 c0 -1
-49 -52 -110 -112 l-110 -110 0 113 0 112 110 0 c61 0 110 -1 110 -3z m-450
-1732 l-480 -480 0 610 0 610 478 478 477 477 3 -607 2 -608 -480 -480z
m-1280 1620 l0 -65 -55 0 -55 0 0 65 0 65 55 0 55 0 0 -65z m1140 -480 l-365
-365 -387 0 -388 0 0 190 0 190 -32 0 c-31 0 -26 7 142 175 l175 175 610 0
610 0 -365 -365z m-1485 -205 l-180 -180 -3 65 -3 65 -74 0 -75 0 0 85 0 85
-95 0 -95 0 0 -125 0 -125 -55 0 -55 0 0 80 0 80 -100 0 -100 0 0 -125 0 -125
-75 0 -75 0 0 -85 0 -85 -70 0 -70 0 0 -85 0 -85 -75 0 -75 0 0 -80 c0 -64 -3
-80 -15 -80 -13 0 -15 57 -15 450 l0 450 742 0 743 0 -180 -180z m305 10 l0
-170 -202 0 -203 0 170 170 c150 151 174 170 202 170 l33 0 0 -170z m-680
-330 l0 -400 -55 0 -55 0 0 400 0 400 55 0 55 0 0 -400z m-300 -50 l0 -360
-60 0 -60 0 0 360 0 360 60 0 60 0 0 -360z m447 183 c-4 -54 -7 -196 -7 -315
l0 -218 -50 0 -50 0 0 315 0 315 57 0 56 0 -6 -97z m-297 -258 l0 -275 -55 0
-55 0 0 275 0 275 55 0 55 0 0 -275z m830 -15 c0 -253 -1 -260 -20 -260 -19 0
-20 7 -20 125 l0 125 -75 0 -75 0 0 85 0 85 -75 0 -75 0 0 40 0 40 -61 0 c-37
0 -58 4 -54 10 4 6 92 10 231 10 l224 0 0 -260z m205 -310 l-570 -570 -432 0
-432 0 -3 175 -3 175 113 113 112 112 483 0 c265 1 501 2 525 3 l42 2 0 280 0
280 367 0 368 0 -570 -570z m25 -1255 l-570 -570 0 610 0 610 568 568 567 567
3 -607 2 -608 -570 -570z m-1370 1535 l0 -230 -55 0 -55 0 0 230 0 230 55 0
55 0 0 -230z m760 -5 l0 -235 -60 0 -60 0 0 235 0 235 60 0 60 0 0 -235z m150
-35 l0 -190 -55 0 -55 0 0 190 0 190 55 0 55 0 0 -190z m-1060 -50 l0 -150
-50 0 -50 0 0 150 0 150 50 0 50 0 0 -150z m1210 -40 l0 -110 -55 0 -55 0 0
110 0 110 55 0 55 0 0 -110z m-1350 -45 l0 -65 -55 0 -55 0 0 65 0 65 55 0 55
0 0 -65z m-115 -575 c-110 -110 -203 -200 -207 -200 -5 0 -8 38 -8 85 l0 85
-75 0 -75 0 0 85 0 85 -100 0 -100 0 0 -125 0 -125 -55 0 -55 0 0 80 0 80 -95
0 -95 0 0 -125 0 -125 -75 0 -75 0 0 -85 0 -85 -75 0 -75 0 0 -85 0 -85 -75 0
-75 0 0 -80 c0 -47 -4 -80 -10 -80 -7 0 -10 157 -10 450 l0 450 767 0 768 0
-200 -200z m275 50 l0 -150 -157 0 -158 0 150 150 c82 83 153 150 157 150 5 0
8 -67 8 -150z m-683 -47 c-4 -54 -7 -234 -7 -400 l0 -303 -55 0 -55 0 0 400 0
400 62 0 61 0 -6 -97z m-307 -353 l0 -360 -55 0 -55 0 0 360 0 360 55 0 55 0
0 -360z m457 183 c-4 -54 -7 -196 -7 -315 l0 -218 -55 0 -55 0 0 315 0 315 62
0 61 0 -6 -97z m533 -253 c0 -273 0 -280 -20 -280 -19 0 -20 7 -20 125 l0 125
-80 0 -80 0 0 85 0 85 -75 0 -75 0 0 40 c0 38 -1 40 -32 40 l-32 0 29 30 29
30 178 0 178 0 0 -280z m280 -305 l-585 -585 -487 0 -488 0 0 123 0 122 160
160 160 160 423 -3 c232 -1 457 0 500 4 l77 6 0 299 0 299 412 0 413 0 -585
-585z m-1120 295 l0 -280 -55 0 -55 0 0 280 0 280 55 0 55 0 0 -280z m1150
-1545 l-580 -580 0 610 0 610 578 578 577 577 3 -607 2 -608 -580 -580z
m-1450 1505 l0 -230 -55 0 -55 0 0 230 0 230 55 0 55 0 0 -230z m750 -5 l0
-235 -55 0 -55 0 0 235 0 235 55 0 55 0 0 -235z m150 -40 l0 -195 -55 0 -55 0
0 195 0 195 55 0 55 0 0 -195z m-1050 -45 l0 -150 -55 0 -55 0 0 150 0 150 55
0 55 0 0 -150z m1210 -40 l0 -110 -55 0 -55 0 0 110 0 110 55 0 55 0 0 -110z
m-1360 -45 l0 -65 -55 0 -55 0 0 65 0 65 55 0 55 0 0 -65z m120 -363 c0 -35
-10 -48 -175 -212 -106 -106 -175 -168 -175 -157 0 14 -10 17 -70 17 l-70 0 0
85 0 85 -75 0 -75 0 0 85 0 85 -95 0 -95 0 0 -125 0 -125 -60 0 -60 0 0 80 0
80 -95 0 -95 0 0 -125 0 -125 -75 0 -75 0 0 -85 0 -85 -70 0 -70 0 0 -85 0
-85 -80 0 -80 0 0 -80 c0 -47 -4 -80 -10 -80 -7 0 -10 155 -10 445 l0 445 805
0 805 0 0 -38z m-680 -452 l0 -400 -55 0 -55 0 0 400 0 400 55 0 55 0 0 -400z
m680 250 l0 -100 -102 0 -103 0 100 100 c55 55 101 100 102 100 2 0 3 -45 3
-100z m-990 -300 l0 -360 -55 0 -55 0 0 360 0 360 55 0 55 0 0 -360z m457 183
c-4 -54 -7 -198 -7 -320 l0 -223 -50 0 -50 0 0 320 0 320 57 0 56 0 -6 -97z
m-297 -263 l0 -280 -60 0 -60 0 0 280 0 280 60 0 60 0 0 -280z m830 -15 c0
-248 -1 -255 -20 -255 -19 0 -20 7 -20 125 l0 125 -75 0 -75 0 0 85 0 85 -72
0 -72 0 44 45 44 45 123 0 123 0 0 -255z m470 -250 l-505 -505 -610 0 -610 0
228 228 227 227 343 -4 c188 -2 377 0 420 4 l77 7 0 274 0 274 467 0 468 0
-505 -505z m30 -1250 l-510 -510 0 610 0 610 508 508 507 507 3 -607 2 -608
-510 -510z m-1640 1470 l0 -235 -55 0 -55 0 0 235 0 235 55 0 55 0 0 -235z
m750 0 l0 -235 -55 0 -55 0 0 235 0 235 55 0 55 0 0 -235z m160 -40 l0 -195
-60 0 -60 0 0 195 0 195 60 0 60 0 0 -195z m-1060 -45 l0 -150 -50 0 -50 0 0
150 0 150 50 0 50 0 0 -150z m1210 -40 l0 -110 -55 0 -55 0 0 110 0 110 55 0
55 0 0 -110z m-1350 -45 l0 -65 -60 0 -60 0 0 65 0 65 60 0 60 0 0 -65z m1380
-1215 l0 -620 -620 0 -620 0 0 620 0 620 620 0 620 0 0 -620z"/>
<path d="M12810 9560 l0 -490 287 0 288 0 -165 -165 -165 -165 -747 0 -748 0
0 -490 0 -490 257 0 258 0 -150 -150 -150 -150 -757 0 -758 0 0 -490 0 -490
267 0 268 0 -140 -140 -140 -140 -737 0 -738 0 0 -490 0 -490 247 0 248 0
-148 -148 -147 -147 0 -658 0 -657 653 0 652 0 525 525 c289 289 531 525 537
525 7 0 13 6 13 13 0 6 758 770 1685 1697 l1685 1685 0 657 0 658 -245 0 -245
0 0 340 0 340 -845 0 -845 0 0 -490z m1650 130 l0 -320 -235 0 -235 0 0 40 0
40 -80 0 -80 0 0 125 0 125 -75 0 -75 0 0 90 0 90 -80 0 -80 0 0 40 0 40 -95
0 -95 0 0 -175 0 -175 -80 0 -80 0 0 -80 0 -80 -70 0 -70 0 0 -85 0 -85 -75 0
-75 0 0 -85 c0 -69 -3 -85 -15 -85 -13 0 -15 57 -15 450 l0 450 805 0 805 0 0
-320z m-980 -170 l0 -400 -55 0 -55 0 0 400 0 400 55 0 55 0 0 -400z m160 -40
l0 -360 -55 0 -55 0 0 360 0 360 55 0 55 0 0 -360z m150 -95 l0 -275 -55 0
-55 0 0 275 0 275 55 0 55 0 0 -275z m-470 -45 l0 -230 -55 0 -55 0 0 230 0
230 55 0 55 0 0 -230z m-150 -80 l0 -150 -50 0 -50 0 0 150 0 150 50 0 50 0 0
-150z m780 0 l0 -150 -55 0 -55 0 0 150 0 150 55 0 55 0 0 -150z m150 45 c0
-24 -3 -25 -55 -25 -52 0 -55 1 -55 25 0 24 3 25 55 25 52 0 55 -1 55 -25z
m358 -87 c-2 -94 -3 -100 -5 -35 l-4 77 -79 0 -80 0 0 35 0 35 85 0 85 0 -2
-112z m-3 -358 c-263 -263 -478 -470 -487 -470 -10 0 -18 -4 -18 -10 0 -6
-123 -10 -350 -10 l-350 0 0 185 0 185 -67 0 -68 0 165 165 165 165 527 0 528
0 0 130 0 130 212 0 213 0 -470 -470z m-205 345 l0 -85 -55 0 -55 0 0 85 0 85
55 0 55 0 0 -85z m220 -1610 l-480 -480 0 610 0 610 478 478 477 477 3 -607 2
-608 -480 -480z m-1440 1580 l0 -65 -55 0 -55 0 0 65 0 65 55 0 55 0 0 -65z
m1070 5 l0 -60 -45 0 -45 0 0 60 0 60 45 0 45 0 0 -60z m310 -10 l0 -50 -55 0
-55 0 0 50 0 50 55 0 55 0 0 -50z m-1615 -690 l-220 -220 -3 70 -3 70 -74 0
-75 0 0 90 0 90 -80 0 -80 0 0 40 0 40 -95 0 -95 0 0 -175 0 -175 -75 0 -75 0
0 -85 0 -85 -75 0 -75 0 0 -85 0 -85 -75 0 -75 0 0 -85 c0 -50 -4 -85 -10 -85
-7 0 -10 157 -10 450 l0 450 707 0 708 0 -220 -220z m415 55 l0 -165 -232 0
-233 0 165 165 165 165 67 0 68 0 0 -165z m-990 -320 l0 -405 -55 0 -55 0 0
405 0 405 55 0 55 0 0 -405z m160 -40 l0 -365 -55 0 -55 0 0 365 0 365 55 0
55 0 0 -365z m150 -95 l0 -280 -55 0 -55 0 0 280 0 280 55 0 55 0 0 -280z
m680 -15 c0 -170 -4 -265 -10 -265 -6 0 -10 33 -10 80 l0 80 -80 0 -80 0 0 35
0 35 -95 0 c-95 0 -95 0 -95 -25 0 -23 -3 -25 -50 -25 l-50 0 0 85 0 85 -85 0
c-81 0 -85 1 -85 22 0 14 25 47 67 90 l67 68 253 0 253 0 0 -265z m145 -305
l-570 -570 -422 0 -423 0 0 135 0 135 -52 0 -53 0 150 150 150 150 557 0 558
0 0 285 0 285 337 0 338 0 -570 -570z m30 -1250 l-565 -565 0 610 0 610 563
563 562 562 3 -607 2 -608 -565 -565z m-1315 1525 l0 -235 -55 0 -55 0 0 235
0 235 55 0 55 0 0 -235z m630 -75 l0 -150 -55 0 -55 0 0 150 0 150 55 0 55 0
0 -150z m-780 -5 l0 -145 -55 0 -55 0 0 145 0 145 55 0 55 0 0 -145z m1070
-50 l0 -85 -55 0 -55 0 0 85 0 85 55 0 55 0 0 -85z m-150 -30 l0 -65 -45 0
-45 0 0 65 0 65 45 0 45 0 0 -65z m-1070 -10 l0 -65 -55 0 -55 0 0 65 0 65 55
0 55 0 0 -65z m1380 0 l0 -55 -55 0 -55 0 0 55 0 55 55 0 55 0 0 -55z m-1645
-675 l-230 -230 -3 75 -3 75 -74 0 -75 0 0 90 0 90 -80 0 -80 0 0 45 0 45 -95
0 -95 0 0 -175 0 -175 -80 0 -80 0 0 -85 0 -85 -70 0 -70 0 0 -85 0 -85 -75 0
-75 0 0 -85 c0 -50 -4 -85 -10 -85 -7 0 -10 157 -10 450 l0 450 717 0 718 0
-230 -230z m395 115 l0 -115 -167 0 -168 0 115 115 115 115 52 0 53 0 0 -115z
m-980 -370 l0 -405 -55 0 -55 0 0 405 0 405 55 0 55 0 0 -405z m160 -45 l0
-360 -55 0 -55 0 0 360 0 360 55 0 55 0 0 -360z m818 -57 c-1 -175 -4 -283 -5
-240 l-4 77 -79 0 -80 0 0 35 0 35 -95 0 c-88 0 -95 -1 -95 -20 0 -18 -7 -20
-55 -20 l-55 0 0 80 0 80 -80 0 c-69 0 -80 2 -80 17 0 10 57 75 127 145 l128
128 187 0 188 0 -2 -317z m262 -268 l-585 -585 -422 0 -423 0 0 110 0 110 -77
0 -78 0 140 140 140 140 542 0 543 0 0 335 0 335 402 0 403 0 -585 -585z m40
-1240 l-580 -580 0 610 0 610 578 578 577 577 3 -607 2 -608 -580 -580z m-970
1470 l0 -275 -55 0 -55 0 0 275 0 275 55 0 55 0 0 -275z m-460 -40 l0 -235
-60 0 -60 0 0 235 0 235 60 0 60 0 0 -235z m-160 -85 l0 -150 -50 0 -50 0 0
150 0 150 50 0 50 0 0 -150z m780 0 l0 -150 -50 0 -50 0 0 150 0 150 50 0 50
0 0 -150z m300 -50 l0 -80 -55 0 -55 0 0 80 0 80 55 0 55 0 0 -80z m-150 -25
l0 -65 -45 0 -45 0 0 65 0 65 45 0 45 0 0 -65z m-1070 -10 l0 -65 -55 0 -55 0
0 65 0 65 55 0 55 0 0 -65z m1380 -5 l0 -50 -55 0 -55 0 0 50 0 50 55 0 55 0
0 -50z m-1580 -625 l-205 -205 -3 55 -3 55 -74 0 -75 0 0 90 0 90 -80 0 -80 0
0 40 0 40 -100 0 -100 0 0 -175 0 -175 -75 0 -75 0 0 -85 0 -85 -70 0 -70 0 0
-85 0 -85 -75 0 -75 0 0 -85 c0 -69 -3 -85 -15 -85 -13 0 -15 57 -15 450 l0
450 697 0 698 0 -205 -205z m420 115 l0 -90 -167 0 -168 0 90 90 90 90 77 0
78 0 0 -90z m-980 -390 l0 -400 -60 0 -60 0 0 400 0 400 60 0 60 0 0 -400z
m160 -45 l0 -365 -60 0 -60 0 0 365 0 365 60 0 60 0 0 -365z m820 -35 c0 -220
-4 -340 -10 -340 -6 0 -10 33 -10 80 l0 80 -75 0 -75 0 0 35 0 35 -95 0 c-95
0 -95 0 -95 -25 0 -24 -3 -25 -55 -25 l-55 0 0 85 0 85 -80 0 -80 0 0 37 c0
35 10 47 127 165 l128 128 187 0 188 0 0 -340z m345 -160 l-500 -500 -610 0
-610 0 140 140 140 140 567 0 568 0 0 360 0 360 402 0 403 0 -500 -500z m35
-1245 l-510 -510 0 610 0 610 508 508 507 507 3 -607 2 -608 -510 -510z
m-1050 1345 l0 -280 -55 0 -55 0 0 280 0 280 55 0 55 0 0 -280z m-470 -45 l0
-235 -55 0 -55 0 0 235 0 235 55 0 55 0 0 -235z m630 -75 l0 -150 -55 0 -55 0
0 150 0 150 55 0 55 0 0 -150z m-780 -5 l0 -145 -50 0 -50 0 0 145 0 145 50 0
50 0 0 -145z m1080 -50 l0 -85 -55 0 -55 0 0 85 0 85 55 0 55 0 0 -85z m-150
-30 l0 -65 -45 0 -45 0 0 65 0 65 45 0 45 0 0 -65z m-1070 -5 l0 -60 -55 0
-55 0 0 60 0 60 55 0 55 0 0 -60z m1370 -5 l0 -55 -55 0 -55 0 0 55 0 55 55 0
55 0 0 -55z m-110 -1055 l0 -620 -620 0 -620 0 0 620 0 620 620 0 620 0 0
-620z"/>
<path d="M16035 10040 c3 -5 13 -10 21 -10 11 0 14 -18 14 -90 0 -85 -1 -91
-22 -100 -18 -7 -9 -9 37 -9 58 -1 59 -1 36 15 -21 15 -23 23 -21 88 4 118 5
116 -36 116 -21 0 -33 -4 -29 -10z"/>
<path d="M11180 10009 c-15 -27 -5 -58 13 -39 9 10 9 14 -1 17 -10 4 -10 8 -1
19 18 22 48 17 60 -10 13 -28 3 -52 -49 -115 l-34 -41 56 0 c52 0 56 2 55 23
0 12 -3 16 -6 10 -2 -7 -21 -13 -41 -13 l-36 0 42 43 c65 67 55 127 -22 127
-15 0 -30 -8 -36 -21z"/>
<path d="M3670 9490 l0 -490 287 0 288 0 -110 -110 -110 -110 -777 0 -778 0 0
-489 0 -489 78 -8 c42 -4 151 -5 242 -2 91 2 182 2 203 -1 l38 -6 -91 -90
c-83 -82 -90 -87 -90 -62 l0 27 -800 0 -800 0 0 -489 0 -488 178 -7 c97 -4
195 -5 217 -2 22 4 91 3 153 -1 l113 -8 -86 -85 -85 -85 0 38 0 37 -835 0
-835 0 0 -490 0 -490 382 0 383 0 -313 -313 -312 -312 0 -658 0 -657 653 0
652 0 525 525 c289 289 531 525 537 525 7 0 13 6 13 13 0 16 1171 1187 1188
1187 6 0 12 6 12 13 0 16 1151 1167 1168 1167 6 0 12 6 12 13 0 6 223 235 495
507 l495 495 0 657 0 658 -340 0 -340 0 0 285 0 285 -805 0 -805 0 0 -490z
m1570 185 l0 -265 -90 0 -90 0 0 30 0 30 -75 0 -75 0 0 40 0 40 -70 0 -70 0 0
85 0 85 -70 0 -70 0 0 85 0 85 -90 0 -90 0 0 -130 0 -130 -55 0 -55 0 0 85 0
85 -90 0 -90 0 0 -125 0 -125 -75 0 -75 0 0 -85 0 -85 -65 0 -65 0 0 -85 0
-85 -75 0 -75 0 0 -85 c0 -50 -4 -85 -10 -85 -7 0 -10 157 -10 450 l0 450 765
0 765 0 0 -265z m-650 -225 l0 -400 -50 0 -50 0 0 400 0 400 50 0 50 0 0 -400z
m-290 -50 l0 -360 -50 0 -50 0 0 360 0 360 50 0 50 0 0 -360z m430 -40 l0
-320 -50 0 -50 0 0 320 0 320 50 0 50 0 0 -320z m-280 -45 l0 -275 -55 0 -55
0 0 275 0 275 55 0 55 0 0 -275z m-290 -40 l0 -235 -55 0 -55 0 0 235 0 235
55 0 55 0 0 -235z m710 0 l0 -235 -50 0 -50 0 0 235 0 235 50 0 50 0 0 -235z
m150 85 c0 -40 -4 -70 -10 -70 -6 0 -10 -48 -10 -125 l0 -125 -45 0 -45 0 0
195 0 195 55 0 55 0 0 -70z m220 -155 l0 -165 -30 0 -30 0 0 125 0 125 -60 0
-60 0 0 40 0 40 90 0 90 0 0 -165z m175 -315 l-480 -480 -427 0 -428 0 0 182
0 183 112 112 113 113 487 0 488 0 0 185 0 185 307 0 308 0 -480 -480z m-1405
300 l0 -150 -45 0 -45 0 0 150 0 150 45 0 45 0 0 -150z m1435 -1550 l-475
-475 0 610 0 610 473 473 472 472 3 -607 2 -608 -475 -475z m-305 1505 l0
-105 -50 0 -50 0 0 105 0 105 50 0 50 0 0 -105z m-1260 -40 l0 -65 -55 0 -55
0 0 65 0 65 55 0 55 0 0 -65z m-95 -565 c-110 -110 -203 -200 -207 -200 -5 0
-8 38 -8 85 l0 85 -70 0 -70 0 0 85 0 85 -90 0 -90 0 0 -125 0 -125 -55 0 -55
0 0 80 0 80 -90 0 -90 0 0 -125 0 -125 -75 0 -75 0 0 -85 0 -85 -65 0 -65 0 0
-85 0 -85 -70 0 -70 0 0 -80 c0 -64 -3 -80 -15 -80 -13 0 -15 57 -15 450 l0
450 737 0 738 0 -200 -200z m255 30 l0 -160 -162 0 -163 0 160 160 c88 88 161
160 162 160 2 0 3 -72 3 -160z m-650 -330 l0 -400 -50 0 -50 0 0 400 0 400 50
0 50 0 0 -400z m-290 -50 l0 -360 -50 0 -50 0 0 360 0 360 50 0 50 0 0 -360z
m430 -35 l0 -315 -50 0 -50 0 0 315 0 315 50 0 50 0 0 -315z m-280 -40 l0
-275 -55 0 -55 0 0 275 0 275 55 0 55 0 0 -275z m790 -10 l0 -265 -25 0 -25 0
0 125 0 125 -65 0 -65 0 0 85 0 85 -75 0 -75 0 0 40 c0 38 -1 40 -31 40 -27 0
-30 2 -19 15 10 12 45 15 196 15 l184 0 0 -265z m285 -305 l-570 -570 -452 0
-453 0 0 158 0 157 125 125 125 125 443 0 c243 1 463 2 490 3 l47 2 0 285 0
285 407 0 408 0 -570 -570z m35 -1245 l-570 -570 0 610 0 610 568 568 567 567
3 -607 2 -608 -570 -570z m-1400 1515 l0 -230 -55 0 -55 0 0 230 0 230 55 0
55 0 0 -230z m710 -5 l0 -235 -50 0 -50 0 0 235 0 235 50 0 50 0 0 -235z m150
90 c0 -37 -4 -65 -10 -65 -6 0 -10 -48 -10 -125 l0 -125 -45 0 -45 0 0 190 0
190 55 0 55 0 0 -65z m-1010 -175 l0 -150 -45 0 -45 0 0 150 0 150 45 0 45 0
0 -150z m1140 -40 l0 -110 -55 0 -55 0 0 110 0 110 55 0 55 0 0 -110z m-1270
-45 l0 -65 -50 0 -50 0 0 65 0 65 50 0 50 0 0 -65z m130 -302 c0 -23 -33 -61
-172 -200 l-173 -173 -57 0 -58 0 0 90 0 90 -70 0 -70 0 0 85 0 85 -95 0 -95
0 0 -130 0 -130 -50 0 -50 0 0 85 0 85 -90 0 -90 0 0 -125 0 -125 -75 0 -75 0
0 -90 0 -90 -65 0 -65 0 0 -85 0 -85 -75 0 -75 0 0 -80 c0 -47 -4 -80 -10 -80
-7 0 -10 157 -10 450 l0 450 760 0 760 0 0 -27z m-640 -468 l0 -405 -55 0 -55
0 0 405 0 405 55 0 55 0 0 -405z m640 240 l0 -135 -137 0 -138 0 135 135 c74
74 136 135 137 135 2 0 3 -61 3 -135z m-930 -290 l0 -365 -50 0 -50 0 0 365 0
365 50 0 50 0 0 -365z m430 -35 l0 -320 -50 0 -50 0 0 320 0 320 50 0 50 0 0
-320z m-290 -45 l0 -275 -50 0 -50 0 0 275 0 275 50 0 50 0 0 -275z m-290 -40
l0 -235 -50 0 -50 0 0 235 0 235 50 0 50 0 0 -235z m1080 0 l0 -235 -25 0 -25
0 0 125 0 125 -65 0 -65 0 0 85 0 85 -70 0 c-68 0 -70 1 -70 25 l0 25 160 0
160 0 0 -235z m320 -350 l-585 -585 -402 0 -403 0 0 208 0 207 124 124 124
124 249 -4 c136 -2 330 -3 431 -1 l182 2 0 255 0 255 432 0 433 0 -585 -585z
m-680 340 l0 -235 -50 0 -50 0 0 235 0 235 50 0 50 0 0 -235z m720 -1580
l-580 -580 0 610 0 610 578 578 577 577 3 -607 2 -608 -580 -580z m-583 1638
c-4 -54 -7 -140 -7 -190 l0 -93 -45 0 -45 0 0 190 0 190 52 0 51 0 -6 -97z
m-997 -143 l0 -150 -45 0 -45 0 0 150 0 150 45 0 45 0 0 -150z m1130 -35 l0
-105 -50 0 -50 0 0 105 0 105 50 0 50 0 0 -105z m-1260 -45 l0 -60 -55 0 -55
0 0 60 0 60 55 0 55 0 0 -60z m240 -288 c0 -35 -10 -47 -170 -207 -93 -93
-170 -164 -170 -157 0 8 -22 12 -75 12 l-75 0 0 85 0 85 -75 0 -75 0 0 85 0
85 -95 0 -95 0 0 -130 0 -130 -55 0 -55 0 0 85 0 85 -95 0 -95 0 0 -125 0
-125 -75 0 -75 0 0 -85 0 -85 -70 0 -70 0 0 -85 0 -85 -75 0 -75 0 0 -85 c0
-50 -4 -85 -10 -85 -7 0 -10 157 -10 450 l0 450 795 0 795 0 0 -38z m-680
-452 l0 -400 -55 0 -55 0 0 400 0 400 55 0 55 0 0 -400z m680 165 l0 -185 -95
0 c-88 0 -95 1 -95 20 0 18 -7 20 -72 20 l-73 0 165 165 c91 91 166 165 167
165 2 0 3 -83 3 -185z m-980 -215 l0 -360 -55 0 -55 0 0 360 0 360 55 0 55 0
0 -360z m450 -40 l0 -320 -55 0 -55 0 0 320 0 320 55 0 55 0 0 -320z m-300
-45 l0 -275 -55 0 -55 0 0 275 0 275 55 0 55 0 0 -275z m-300 -40 l0 -235 -55
0 -55 0 0 235 0 235 55 0 55 0 0 -235z m750 0 l0 -235 -55 0 -55 0 0 235 0
235 55 0 55 0 0 -235z m150 85 c0 -40 -4 -70 -10 -70 -6 0 -10 -48 -10 -125
l0 -125 -45 0 -45 0 0 195 0 195 55 0 55 0 0 -70z m230 -145 l0 -175 -30 0
-30 0 0 125 0 125 -65 0 -65 0 0 50 0 50 95 0 95 0 0 -175z m305 -325 l-500
-500 -610 0 -610 0 305 305 305 305 422 0 423 0 0 195 0 195 382 0 383 0 -500
-500z m35 -1245 l-510 -510 0 610 0 610 508 508 507 507 3 -607 2 -608 -510
-510z m-1620 1545 l0 -150 -50 0 -50 0 0 150 0 150 50 0 50 0 0 -150z m1180
-45 l0 -105 -55 0 -55 0 0 105 0 105 55 0 55 0 0 -105z m-1320 -40 l0 -65 -55
0 -55 0 0 65 0 65 55 0 55 0 0 -65z m1210 -1385 l0 -620 -620 0 -620 0 0 620
0 620 620 0 620 0 0 -620z"/>
<path d="M17610 9490 l0 -490 222 0 223 0 -155 -155 -155 -155 -762 0 -763 0
0 -490 0 -490 272 0 273 0 -175 -175 -175 -175 -742 0 -743 0 0 -490 0 -490
252 0 253 0 -135 -135 -135 -135 -732 0 -733 0 0 -490 0 -490 242 0 243 0
-103 -103 -102 -102 0 -683 0 -682 643 0 642 0 543 543 c298 298 542 547 542
552 0 12 1239 1251 1256 1256 7 2 487 476 1068 1053 l1056 1048 0 679 0 679
-220 0 -220 0 0 305 0 305 -840 0 -840 0 0 -490z m1640 165 c0 -247 -2 -285
-15 -285 -12 0 -15 14 -15 65 l0 65 -95 0 -95 0 0 -65 0 -65 -303 0 -302 0
-110 -110 c-75 -75 -117 -110 -132 -110 -14 0 -23 6 -23 15 0 12 -18 15 -100
15 -82 0 -100 -3 -100 -15 0 -11 -12 -15 -50 -15 l-50 0 0 340 0 340 -95 0
-95 0 0 -395 c0 -257 -4 -395 -10 -395 -7 0 -10 157 -10 450 l0 450 800 0 800
0 0 -285z m-1430 -240 l0 -375 -55 0 -55 0 0 375 0 375 55 0 55 0 0 -375z
m1360 -160 l0 -205 -55 0 -55 0 0 205 0 205 55 0 55 0 0 -205z m-460 -160 l0
-55 -60 0 -60 0 0 55 0 55 60 0 60 0 0 -55z m-606 20 c4 -14 4 -36 0 -50 -6
-23 -11 -25 -60 -25 l-54 0 0 50 0 50 54 0 c49 0 54 -2 60 -25z m-154 -40 l0
-35 -50 0 -50 0 0 35 0 35 50 0 50 0 0 -35z m310 0 l0 -35 -55 0 -55 0 0 35 0
35 55 0 55 0 0 -35z m290 0 l0 -35 -50 0 -50 0 0 35 0 35 50 0 50 0 0 -35z
m310 0 l0 -35 -55 0 -55 0 0 35 0 35 55 0 55 0 0 -35z m-450 -20 c0 -12 -13
-15 -55 -15 -42 0 -55 3 -55 15 0 12 13 15 55 15 42 0 55 -3 55 -15z m600 5
c0 -5 -25 -10 -55 -10 -30 0 -55 5 -55 10 0 6 25 10 55 10 30 0 55 -4 55 -10z
m-1710 -805 l-395 -395 -72 0 c-58 0 -73 3 -73 15 0 12 -17 15 -95 15 -78 0
-95 -3 -95 -15 0 -11 -12 -15 -50 -15 l-50 0 0 340 0 340 -95 0 -95 0 0 -395
c0 -344 -2 -395 -15 -395 -13 0 -15 57 -15 450 l0 450 722 0 723 0 -395 -395z
m-870 -130 l0 -375 -55 0 -55 0 0 375 0 375 55 0 55 0 0 -375z m1430 -115 c0
-253 -1 -260 -20 -260 -19 0 -20 7 -20 235 l0 235 -95 0 -95 0 0 -195 0 -195
-55 0 c-42 0 -55 3 -55 15 0 12 -16 15 -80 15 -73 0 -80 2 -80 20 0 19 -7 20
-95 20 -88 0 -95 -1 -95 -20 0 -18 -7 -20 -70 -20 -63 0 -70 -2 -70 -20 0 -16
-7 -20 -37 -20 l-38 0 225 225 225 225 227 0 228 0 0 -260z m250 -235 l-495
-495 -502 0 -503 0 0 40 0 40 -57 0 -58 0 175 175 175 175 527 0 528 0 0 280
0 280 352 0 353 0 -495 -495z m-330 195 l0 -210 -55 0 -55 0 0 210 0 210 55 0
55 0 0 -210z m-460 -165 l0 -55 -55 0 -55 0 0 55 0 55 55 0 55 0 0 -55z m-600
-5 l0 -50 -55 0 -55 0 0 50 0 50 55 0 55 0 0 -50z m-150 -15 l0 -35 -50 0 -50
0 0 35 0 35 50 0 50 0 0 -35z m310 0 l0 -35 -60 0 -60 0 0 35 0 35 60 0 60 0
0 -35z m290 0 l0 -35 -50 0 -50 0 0 35 0 35 50 0 50 0 0 -35z m310 0 l0 -35
-60 0 -60 0 0 35 0 35 60 0 60 0 0 -35z m150 -10 c0 -12 -13 -15 -55 -15 -42
0 -55 3 -55 15 0 12 13 15 55 15 42 0 55 -3 55 -15z m-600 -10 c0 -12 -13 -15
-55 -15 -42 0 -55 3 -55 15 0 12 13 15 55 15 42 0 55 -3 55 -15z m-1060 -840
l-395 -395 -52 0 c-46 0 -53 3 -53 20 0 19 -7 20 -95 20 -88 0 -95 -1 -95 -20
0 -17 -7 -20 -50 -20 l-50 0 0 345 0 345 -100 0 -100 0 0 -400 c0 -260 -3
-400 -10 -400 -7 0 -10 157 -10 450 l0 450 702 0 703 0 -395 -395z m600 375
c0 -18 -7 -20 -77 -20 -75 0 -76 0 -58 20 14 16 31 20 77 20 51 0 58 -2 58
-20z m0 -470 c0 -403 0 -410 -20 -410 -19 0 -20 7 -20 235 l0 235 -95 0 -95 0
0 -195 0 -195 -60 0 c-53 0 -60 2 -60 20 0 18 -7 20 -75 20 -60 0 -75 3 -75
15 0 12 -17 15 -95 15 -78 0 -95 -3 -95 -15 0 -12 -15 -15 -75 -15 -73 0 -75
-1 -75 -25 0 -24 -3 -25 -55 -25 -37 0 -55 4 -55 12 0 7 163 176 362 375 l363
363 112 0 113 0 0 -410z m380 -205 l-615 -615 -477 0 -478 0 0 50 0 50 -82 0
-83 0 135 135 135 135 562 0 563 0 0 430 0 430 477 0 478 0 -615 -615z m15
-1275 l-625 -625 0 615 0 615 623 623 622 622 3 -612 2 -613 -625 -625z
m-1825 1533 c0 -164 -3 -335 -7 -380 l-6 -83 -53 0 -54 0 0 380 0 380 60 0 60
0 0 -297z m1350 -243 l0 -210 -55 0 -55 0 0 210 0 210 55 0 55 0 0 -210z
m-1060 -165 l0 -55 -55 0 -55 0 0 55 0 55 55 0 55 0 0 -55z m600 5 l0 -50 -55
0 -55 0 0 50 0 50 55 0 55 0 0 -50z m-150 -15 l0 -35 -55 0 -55 0 0 35 0 35
55 0 55 0 0 -35z m300 0 l0 -35 -55 0 -55 0 0 35 0 35 55 0 55 0 0 -35z m-900
-10 l0 -35 -55 0 -55 0 0 35 0 35 55 0 55 0 0 -35z m300 0 l0 -35 -55 0 -55 0
0 35 0 35 55 0 55 0 0 -35z m750 -10 c0 -12 -13 -15 -55 -15 -42 0 -55 3 -55
15 0 12 13 15 55 15 42 0 55 -3 55 -15z m-600 -5 c0 -5 -25 -10 -55 -10 -30 0
-55 5 -55 10 0 6 25 10 55 10 30 0 55 -4 55 -10z m-1010 -765 l-395 -395 -42
0 c-36 0 -43 3 -43 20 0 19 -7 20 -95 20 -88 0 -95 -1 -95 -20 0 -17 -7 -20
-50 -20 l-50 0 0 345 0 345 -95 0 -95 0 0 -400 c0 -349 -2 -400 -15 -400 -13
0 -15 57 -15 450 l0 450 692 0 693 0 -395 -395z m620 365 l0 -30 -112 0 -112
0 29 30 c27 29 33 30 112 30 l83 0 0 -30z m0 -470 c0 -393 0 -400 -20 -400
-19 0 -20 7 -20 235 l0 235 -95 0 -95 0 0 -195 0 -195 -55 0 c-48 0 -55 2 -55
20 0 18 -7 20 -80 20 -64 0 -80 3 -80 15 0 12 -17 15 -95 15 -78 0 -95 -3 -95
-15 0 -12 -14 -15 -70 -15 -63 0 -70 -2 -70 -20 0 -18 -7 -20 -54 -20 -44 0
-55 3 -59 18 -3 12 97 118 337 360 l341 342 132 0 133 0 0 -400z m410 -115
l-515 -515 -595 0 -595 0 95 95 95 95 572 0 573 0 0 420 0 420 442 0 443 0
-515 -515z m-1840 100 l0 -375 -55 0 -55 0 0 375 0 375 55 0 55 0 0 -375z
m1350 -160 l0 -205 -55 0 -55 0 0 205 0 205 55 0 55 0 0 -205z m-1060 -165 l0
-50 -55 0 -55 0 0 50 0 50 55 0 55 0 0 -50z m600 0 l0 -50 -55 0 -55 0 0 50 0
50 55 0 55 0 0 -50z m-150 -15 l0 -35 -50 0 -50 0 0 35 0 35 50 0 50 0 0 -35z
m310 0 l0 -35 -60 0 -60 0 0 35 0 35 60 0 60 0 0 -35z m-910 -5 c0 -29 -1 -30
-50 -30 -49 0 -50 1 -50 30 0 29 1 30 50 30 49 0 50 -1 50 -30z m310 0 l0 -30
-60 0 -60 0 0 30 0 30 60 0 60 0 0 -30z m150 -15 c0 -12 -13 -15 -55 -15 -42
0 -55 3 -55 15 0 12 13 15 55 15 42 0 55 -3 55 -15z m600 5 c0 -5 -25 -10 -55
-10 -30 0 -55 5 -55 10 0 6 25 10 55 10 30 0 55 -4 55 -10z m107 -316 c-3 -3
-12 -4 -19 -1 -8 3 -5 6 6 6 11 1 17 -2 13 -5z"/>
<path d="M18110 9850 c0 -13 7 -20 20 -20 13 0 20 7 20 20 0 13 -7 20 -20 20
-13 0 -20 -7 -20 -20z"/>
<path d="M18110 9770 c0 -13 7 -20 20 -20 13 0 20 7 20 20 0 13 -7 20 -20 20
-13 0 -20 -7 -20 -20z"/>
<path d="M18110 9690 c0 -13 7 -20 20 -20 13 0 20 7 20 20 0 13 -7 20 -20 20
-13 0 -20 -7 -20 -20z"/>
<path d="M18110 9610 c0 -13 7 -20 20 -20 13 0 20 7 20 20 0 13 -7 20 -20 20
-13 0 -20 -7 -20 -20z"/>
<path d="M18110 9530 c0 -13 7 -20 20 -20 13 0 20 7 20 20 0 13 -7 20 -20 20
-13 0 -20 -7 -20 -20z"/>
<path d="M18110 9450 c0 -13 7 -20 20 -20 13 0 20 7 20 20 0 13 -7 20 -20 20
-13 0 -20 -7 -20 -20z"/>
<path d="M18110 9370 c0 -13 7 -20 20 -20 13 0 20 7 20 20 0 13 -7 20 -20 20
-13 0 -20 -7 -20 -20z"/>
<path d="M18110 9290 c0 -13 7 -20 20 -20 13 0 20 7 20 20 0 13 -7 20 -20 20
-13 0 -20 -7 -20 -20z"/>
<path d="M18110 9210 c0 -13 7 -20 20 -20 13 0 20 7 20 20 0 13 -7 20 -20 20
-13 0 -20 -7 -20 -20z"/>
<path d="M16730 8560 c0 -13 7 -20 20 -20 13 0 20 7 20 20 0 13 -7 20 -20 20
-13 0 -20 -7 -20 -20z"/>
<path d="M16730 8480 c0 -13 7 -20 20 -20 13 0 20 7 20 20 0 13 -7 20 -20 20
-13 0 -20 -7 -20 -20z"/>
<path d="M16730 8400 c0 -13 7 -20 20 -20 13 0 20 7 20 20 0 13 -7 20 -20 20
-13 0 -20 -7 -20 -20z"/>
<path d="M16730 8320 c0 -13 7 -20 20 -20 13 0 20 7 20 20 0 13 -7 20 -20 20
-13 0 -20 -7 -20 -20z"/>
<path d="M16730 8240 c0 -13 7 -20 20 -20 13 0 20 7 20 20 0 13 -7 20 -20 20
-13 0 -20 -7 -20 -20z"/>
<path d="M16730 8160 c0 -13 7 -20 20 -20 13 0 20 7 20 20 0 13 -7 20 -20 20
-13 0 -20 -7 -20 -20z"/>
<path d="M16730 8080 c0 -13 7 -20 20 -20 13 0 20 7 20 20 0 13 -7 20 -20 20
-13 0 -20 -7 -20 -20z"/>
<path d="M16730 8000 c0 -13 7 -20 20 -20 13 0 20 7 20 20 0 13 -7 20 -20 20
-13 0 -20 -7 -20 -20z"/>
<path d="M16730 7920 c0 -13 7 -20 20 -20 13 0 20 7 20 20 0 13 -7 20 -20 20
-13 0 -20 -7 -20 -20z"/>
<path d="M15440 7240 c0 -13 7 -20 20 -20 13 0 20 7 20 20 0 13 -7 20 -20 20
-13 0 -20 -7 -20 -20z"/>
<path d="M15440 7160 c0 -13 7 -20 20 -20 13 0 20 7 20 20 0 13 -7 20 -20 20
-13 0 -20 -7 -20 -20z"/>
<path d="M15440 7080 c0 -13 7 -20 20 -20 13 0 20 7 20 20 0 13 -7 20 -20 20
-13 0 -20 -7 -20 -20z"/>
<path d="M15440 7000 c0 -13 7 -20 20 -20 13 0 20 7 20 20 0 13 -7 20 -20 20
-13 0 -20 -7 -20 -20z"/>
<path d="M15440 6920 c0 -13 7 -20 20 -20 13 0 20 7 20 20 0 13 -7 20 -20 20
-13 0 -20 -7 -20 -20z"/>
<path d="M15440 6840 c0 -13 7 -20 20 -20 13 0 20 7 20 20 0 13 -7 20 -20 20
-13 0 -20 -7 -20 -20z"/>
<path d="M15440 6760 c0 -13 7 -20 20 -20 13 0 20 7 20 20 0 13 -7 20 -20 20
-13 0 -20 -7 -20 -20z"/>
<path d="M15440 6680 c0 -13 7 -20 20 -20 13 0 20 7 20 20 0 13 -7 20 -20 20
-13 0 -20 -7 -20 -20z"/>
<path d="M15440 6600 c0 -13 7 -20 20 -20 13 0 20 7 20 20 0 13 -7 20 -20 20
-13 0 -20 -7 -20 -20z"/>
<path d="M14210 5990 c0 -13 7 -20 20 -20 13 0 20 7 20 20 0 13 -7 20 -20 20
-13 0 -20 -7 -20 -20z"/>
<path d="M14210 5910 c0 -13 7 -20 20 -20 13 0 20 7 20 20 0 13 -7 20 -20 20
-13 0 -20 -7 -20 -20z"/>
<path d="M14210 5830 c0 -13 7 -20 20 -20 13 0 20 7 20 20 0 13 -7 20 -20 20
-13 0 -20 -7 -20 -20z"/>
<path d="M14210 5750 c0 -13 7 -20 20 -20 13 0 20 7 20 20 0 13 -7 20 -20 20
-13 0 -20 -7 -20 -20z"/>
<path d="M14210 5670 c0 -13 7 -20 20 -20 13 0 20 7 20 20 0 13 -7 20 -20 20
-13 0 -20 -7 -20 -20z"/>
<path d="M14210 5590 c0 -13 7 -20 20 -20 13 0 20 7 20 20 0 13 -7 20 -20 20
-13 0 -20 -7 -20 -20z"/>
<path d="M14210 5510 c0 -13 7 -20 20 -20 13 0 20 7 20 20 0 13 -7 20 -20 20
-13 0 -20 -7 -20 -20z"/>
<path d="M14210 5430 c0 -13 7 -20 20 -20 13 0 20 7 20 20 0 13 -7 20 -20 20
-13 0 -20 -7 -20 -20z"/>
<path d="M14210 5350 c0 -13 7 -20 20 -20 13 0 20 7 20 20 0 13 -7 20 -20 20
-13 0 -20 -7 -20 -20z"/>
<path d="M6801 9864 c-55 -46 -51 -126 8 -139 63 -14 131 43 131 110 0 20 5
25 25 25 16 0 25 6 25 15 0 12 -15 15 -79 15 -71 0 -83 -3 -110 -26z m92 -25
c7 -12 5 -27 -9 -55 -16 -32 -24 -39 -49 -39 -24 0 -31 5 -33 23 -10 67 60
120 91 71z"/>
<path d="M11870 9625 l0 -45 -524 0 -525 0 2 -45 2 -45 523 0 522 0 0 -46 c0
-25 4 -44 8 -42 35 14 263 131 260 133 -2 1 -63 33 -135 69 l-133 66 0 -45z"/>
<path d="M7350 9620 l0 -40 -520 0 c-488 0 -520 -1 -521 -17 -1 -10 -3 -30 -5
-45 l-3 -28 525 0 524 0 0 -45 c0 -25 2 -45 4 -45 3 0 64 30 137 66 l133 67
-124 63 c-69 35 -131 63 -137 63 -9 1 -13 -13 -13 -39z"/>
<path d="M16500 9585 l0 -45 -524 0 -523 0 1 -42 1 -43 523 -3 522 -2 0 -45
c0 -25 2 -45 4 -45 10 0 268 131 265 134 -2 2 -64 34 -136 70 l-133 66 0 -45z"/>
<path d="M16454 9003 c24 -61 90 -203 95 -203 5 0 70 141 99 212 2 4 -14 8
-35 8 -34 0 -40 -4 -52 -32 l-13 -33 -11 33 c-9 29 -14 32 -50 32 -32 0 -38
-3 -33 -17z"/>
<path d="M15701 7683 c11 -27 35 -79 52 -116 l32 -68 48 108 c26 59 47 111 47
116 0 4 -15 7 -34 7 -28 0 -36 -5 -47 -32 l-13 -31 -15 31 c-13 28 -20 32 -52
32 l-38 0 20 -47z"/>
<path d="M19390 7520 c0 -5 13 -10 29 -10 17 0 31 -6 35 -16 3 -9 6 -89 6
-179 0 -153 -1 -165 -20 -175 -10 -6 -23 -9 -27 -8 -4 2 -8 -1 -8 -7 0 -6 36
-10 88 -10 54 0 87 3 87 10 0 6 -12 12 -27 13 -14 1 -28 4 -31 6 -2 3 -4 30
-3 62 0 48 5 62 28 86 14 15 30 28 33 28 11 0 123 -170 117 -177 -3 -3 -18 -5
-32 -5 -14 0 -25 -6 -25 -14 0 -10 21 -12 90 -11 86 2 119 15 68 27 -15 4 -49
44 -101 119 l-79 114 54 54 c29 31 72 64 96 75 23 10 42 21 42 23 0 3 -41 5
-91 5 -57 0 -88 -4 -84 -10 3 -5 14 -10 25 -10 10 0 21 -7 24 -16 7 -18 -156
-196 -165 -180 -3 6 -3 52 0 101 6 89 6 90 34 93 15 2 27 8 27 13 0 5 -43 9
-95 9 -57 0 -95 -4 -95 -10z"/>
<path d="M19912 7370 c-57 -35 -81 -99 -62 -168 16 -60 59 -92 122 -92 45 0
54 4 86 37 42 45 27 57 -16 13 -34 -33 -59 -37 -102 -15 -21 11 -31 25 -36 50
-3 20 -4 38 -2 40 2 3 45 6 94 7 88 3 89 3 86 28 -5 43 -23 78 -47 94 -37 25
-89 27 -123 6z m95 -22 c13 -13 23 -33 23 -50 0 -28 0 -28 -65 -28 -63 0 -65
1 -65 25 0 29 41 75 66 75 10 0 28 -10 41 -22z"/>
<path d="M20203 7371 c-84 -52 -95 -174 -21 -236 28 -24 38 -27 87 -23 47 4
59 10 83 39 36 43 21 50 -20 9 -34 -33 -59 -37 -102 -15 -21 11 -31 25 -36 50
-3 20 -3 39 0 43 4 4 46 7 94 7 87 0 87 0 84 25 -8 68 -40 103 -103 115 -25 4
-43 0 -66 -14z m94 -23 c23 -22 32 -77 13 -79 -5 0 -26 -1 -45 -1 -74 0 -75 1
-75 27 0 29 41 75 66 75 10 0 28 -10 41 -22z"/>
<path d="M20424 7365 c11 -8 23 -15 28 -15 12 0 10 -320 -2 -321 -5 -1 -14 -3
-20 -4 -5 -1 -13 -3 -17 -4 -5 -1 -1 -6 7 -11 18 -12 129 -10 136 2 3 4 -6 12
-20 18 -24 9 -26 15 -26 66 l0 57 23 -21 c28 -26 82 -29 115 -6 33 23 52 67
52 119 0 109 -90 172 -164 114 l-27 -21 -6 21 c-4 18 -13 21 -52 21 -43 -1
-45 -2 -27 -15z m181 -11 c61 -24 58 -199 -4 -219 -26 -8 -67 13 -80 42 -25
54 -5 148 36 172 21 12 26 13 48 5z"/>
<path d="M18440 6541 c0 -5 12 -11 28 -13 l27 -3 5 -162 c6 -193 4 -207 -33
-211 -15 -2 -27 -8 -27 -13 0 -5 43 -9 95 -9 57 0 95 4 95 10 0 6 -10 10 -23
10 -35 0 -47 19 -47 75 0 45 4 55 35 85 22 21 39 31 43 25 86 -124 112 -167
107 -175 -3 -6 -17 -10 -31 -10 -13 0 -24 -4 -24 -10 0 -11 172 -14 183 -4 4
4 -8 14 -26 23 -21 11 -56 52 -105 124 l-73 107 63 65 c43 43 74 67 96 71 60
12 32 24 -58 24 -49 0 -90 -4 -90 -9 0 -5 10 -11 22 -13 43 -6 31 -36 -49
-123 -43 -47 -81 -85 -85 -85 -5 0 -8 42 -8 93 0 99 7 117 47 117 13 0 23 5
23 10 0 6 -38 10 -95 10 -52 0 -95 -4 -95 -9z"/>
<path d="M14066 6438 c25 -57 49 -107 53 -111 7 -7 101 183 101 204 0 5 -16 9
-36 9 -31 0 -36 -4 -46 -32 l-12 -33 -13 33 c-12 28 -17 32 -52 32 l-40 0 45
-102z"/>
<path d="M18986 6399 c-88 -24 -124 -148 -65 -223 31 -39 75 -59 115 -51 38 7
94 49 94 71 0 20 -5 18 -38 -16 -21 -21 -40 -30 -62 -30 -41 0 -80 39 -80 80
l0 30 91 0 92 0 -6 42 c-9 69 -76 115 -141 97z m70 -34 c17 -17 24 -34 22 -53
-3 -26 -6 -27 -65 -30 -62 -3 -63 -3 -63 23 0 35 17 64 43 75 33 13 36 12 63
-15z"/>
<path d="M19273 6398 c-72 -19 -113 -122 -77 -194 11 -21 32 -47 47 -58 51
-37 136 -19 171 37 19 30 -1 28 -32 -3 -21 -20 -40 -30 -62 -30 -41 0 -80 39
-80 80 l0 30 90 0 90 0 0 35 c0 67 -77 122 -147 103z m71 -29 c21 -16 26 -28
24 -53 -3 -31 -4 -31 -65 -34 -62 -3 -63 -3 -63 23 0 35 17 64 43 75 31 12 31
12 61 -11z"/>
<path d="M19466 6391 c-3 -4 6 -13 19 -19 l25 -12 0 -155 0 -155 -25 -6 c-43
-11 -16 -24 50 -24 66 0 93 13 50 24 -23 6 -25 11 -25 66 0 60 0 60 20 40 44
-44 106 -32 147 29 40 59 25 168 -28 205 -35 24 -85 20 -114 -8 -25 -25 -35
-24 -35 6 0 14 -8 18 -39 18 -22 0 -42 -4 -45 -9z m222 -62 c16 -30 9 -122
-13 -155 -25 -39 -76 -30 -100 17 -31 59 -10 160 38 179 26 10 56 -6 75 -41z"/>
<path d="M18390 5846 c0 -28 22 -39 45 -23 22 17 9 47 -21 47 -19 0 -24 -5
-24 -24z"/>
<path d="M18293 5763 c-17 -6 -16 -38 0 -52 21 -17 56 12 41 35 -12 20 -23 25
-41 17z"/>
<path d="M18180 5645 c-17 -20 -5 -45 20 -45 11 0 23 7 26 15 6 15 -11 45 -26
45 -4 0 -13 -7 -20 -15z"/>
<path d="M17212 5300 c-73 -17 -116 -96 -89 -162 20 -47 44 -62 140 -86 87
-22 117 -43 117 -79 0 -41 -42 -73 -97 -73 -63 0 -107 28 -135 85 -12 25 -26
45 -30 45 -4 0 -8 -34 -8 -75 0 -41 3 -75 7 -75 3 0 14 7 24 16 17 15 21 15
62 -5 53 -26 99 -26 154 -2 70 32 98 100 68 164 -19 40 -55 61 -145 83 -36 8
-75 22 -87 30 -31 20 -30 64 2 94 50 47 153 8 185 -71 20 -47 30 -33 30 41 0
39 -3 70 -7 70 -3 0 -14 -7 -24 -16 -15 -14 -20 -14 -41 -1 -30 19 -85 27
-126 17z"/>
<path d="M17490 5292 c0 -5 11 -14 25 -20 l25 -12 -2 -172 c-3 -169 -4 -173
-25 -183 -41 -18 -24 -25 57 -25 76 0 103 11 60 25 -27 9 -27 65 -1 89 18 17
20 16 52 -30 29 -43 30 -48 16 -59 -29 -21 -19 -25 63 -25 75 0 103 11 63 25
-10 3 -41 38 -70 77 l-52 71 36 29 c20 15 47 31 60 34 47 12 21 24 -52 24 -71
0 -99 -11 -55 -23 11 -3 20 -10 20 -15 0 -11 -82 -82 -94 -82 -3 0 -6 63 -6
140 l0 140 -60 0 c-33 0 -60 -4 -60 -8z"/>
<path d="M17932 5278 c-28 -28 -3 -72 39 -66 30 4 47 33 33 56 -14 21 -55 27
-72 10z"/>
<path d="M17928 5143 c-43 -5 -48 -14 -15 -28 21 -9 22 -16 22 -105 0 -89 -1
-96 -22 -105 -41 -18 -24 -25 57 -25 76 0 103 11 60 25 -19 6 -20 15 -20 126
0 134 9 121 -82 112z"/>
<path d="M18133 5143 c-38 -5 -41 -13 -13 -31 19 -11 20 -23 20 -157 0 -134
-1 -146 -20 -157 -35 -22 -22 -28 60 -28 82 0 99 8 55 28 -22 10 -25 18 -25
66 l0 55 38 -25 c83 -57 183 7 182 118 -1 43 -33 113 -58 127 -37 20 -98 13
-131 -14 l-30 -26 -3 23 c-3 24 -18 28 -75 21z m188 -49 c21 -25 24 -116 5
-152 -22 -43 -67 -45 -93 -5 -41 62 -11 173 46 173 16 0 34 -7 42 -16z"/>
<path d="M16090 4211 c0 -5 14 -11 30 -15 l30 -6 -2 -182 -3 -183 -27 -3 c-16
-2 -28 -8 -28 -13 0 -5 43 -9 95 -9 57 0 95 4 95 10 0 6 -10 10 -23 10 -35 0
-47 19 -47 72 0 41 5 54 34 86 19 20 36 35 39 32 25 -29 115 -175 111 -182 -3
-4 -16 -8 -30 -8 -13 0 -24 -4 -24 -10 0 -6 38 -10 95 -10 91 0 125 11 68 23
-22 4 -44 29 -99 109 -39 57 -73 108 -77 114 -11 18 113 140 151 149 55 12 25
25 -58 25 -79 0 -112 -12 -65 -24 14 -4 25 -13 25 -22 0 -16 -147 -184 -162
-184 -13 0 -10 184 4 198 7 7 22 12 35 12 13 0 23 5 23 10 0 6 -38 10 -95 10
-52 0 -95 -4 -95 -9z"/>
<path d="M16611 4057 c-45 -23 -66 -63 -66 -126 1 -43 6 -65 23 -89 26 -35 85
-58 125 -48 33 8 87 54 87 73 0 10 -11 6 -35 -16 -47 -41 -95 -42 -124 -5 -12
15 -21 40 -21 55 l0 29 90 0 c90 0 90 0 90 25 0 34 -24 80 -52 99 -27 19 -84
20 -117 3z m105 -31 c8 -14 14 -35 12 -48 -3 -21 -9 -23 -65 -26 l-63 -3 0 28
c0 45 26 73 65 73 26 0 39 -6 51 -24z"/>
<path d="M16901 4057 c-45 -23 -66 -63 -66 -126 1 -43 6 -65 23 -89 26 -35 85
-58 125 -48 33 8 87 54 87 73 0 10 -11 6 -35 -16 -47 -41 -95 -42 -124 -5 -12
15 -21 40 -21 55 l0 29 90 0 c90 0 90 0 90 25 0 34 -24 80 -52 99 -27 19 -84
20 -117 3z m105 -31 c8 -14 14 -35 12 -48 -3 -21 -9 -23 -65 -26 l-63 -3 0 28
c0 45 26 73 65 73 26 0 39 -6 51 -24z"/>
<path d="M17122 4062 c-9 -6 -6 -12 13 -20 l26 -12 -3 -157 c-3 -155 -3 -158
-25 -161 -13 -2 -23 -8 -23 -13 0 -5 34 -9 75 -9 41 0 75 4 75 9 0 5 -10 11
-22 13 -21 3 -23 10 -26 63 -3 57 -3 59 16 42 95 -86 216 61 155 190 -29 63
-106 80 -152 34 -21 -21 -31 -18 -31 11 0 14 -8 18 -32 18 -18 0 -39 -4 -46
-8z m203 -42 c27 -30 31 -116 8 -160 -22 -44 -68 -53 -98 -20 -29 32 -32 126
-6 168 25 38 67 44 96 12z"/>
<path d="M3720 2720 c0 -5 8 -10 18 -10 17 0 92 -79 92 -97 0 -17 -72 -83 -91
-83 -10 0 -19 -4 -19 -10 0 -5 23 -10 50 -10 44 0 67 12 40 22 -5 2 1 17 15
33 l25 30 25 -28 c13 -15 22 -34 19 -42 -5 -12 4 -15 50 -15 31 0 56 5 56 10
0 6 -8 10 -17 10 -16 0 -64 49 -87 88 -11 18 39 80 69 88 40 10 29 24 -19 24
-43 0 -69 -14 -44 -23 9 -3 5 -13 -12 -31 l-24 -27 -18 23 c-9 13 -15 31 -12
41 5 15 -2 17 -55 17 -34 0 -61 -4 -61 -10z"/>
<path d="M4733 2718 c-16 -21 -81 -295 -73 -308 16 -27 48 0 60 50 11 47 13
49 40 43 17 -3 42 1 60 11 29 14 35 14 53 1 12 -8 29 -15 38 -15 21 0 59 46
59 71 0 30 -15 22 -29 -16 -12 -35 -25 -44 -36 -25 -3 5 4 46 15 91 22 86 21
109 -5 109 -19 0 -38 -44 -55 -123 -13 -65 -42 -94 -85 -83 -30 8 -32 33 -10
116 8 30 15 63 15 73 0 20 -33 23 -47 5z"/>
<path d="M4093 2655 c-41 -14 -57 -30 -20 -21 l27 6 0 -95 c0 -90 -1 -96 -22
-105 -17 -6 -7 -9 42 -9 55 1 61 2 38 11 -27 9 -27 10 -30 116 l-3 107 -32
-10z"/>
<path d="M14746 2651 c-3 -5 5 -12 19 -15 l25 -6 -2 -193 c-3 -191 -3 -192
-26 -195 -46 -7 -9 -22 54 -22 61 0 90 15 42 22 -23 3 -23 4 -26 211 l-2 207
-40 0 c-21 0 -41 -4 -44 -9z"/>
<path d="M4290 2630 c0 -6 57 -10 150 -10 93 0 150 4 150 10 0 6 -57 10 -150
10 -93 0 -150 -4 -150 -10z"/>
<path d="M10565 2615 c-62 -37 -80 -75 -129 -272 -25 -100 -46 -187 -46 -193
0 -25 25 -2 33 31 4 19 13 51 18 71 l10 37 36 -24 c71 -49 182 -20 228 59 28
49 31 85 10 125 -13 26 -12 32 5 67 25 48 25 65 -1 98 -28 36 -106 37 -164 1z
m123 -17 c2 -9 -2 -35 -8 -57 -11 -40 -12 -41 -55 -41 -27 0 -50 -6 -60 -16
-24 -25 -3 -39 56 -37 48 1 49 1 49 -29 0 -81 -52 -158 -106 -158 -32 0 -80
25 -88 45 -10 28 -7 67 14 144 21 83 41 115 91 149 40 27 102 27 107 0z m-58
-128 c-20 -13 -40 -13 -40 0 0 6 12 10 28 10 21 0 24 -2 12 -10z"/>
<path d="M16570 1680 l0 -930 1455 0 1455 0 0 930 0 930 -1455 0 -1455 0 0
-930z m2870 0 l0 -890 -45 0 -45 0 0 450 0 450 -150 0 -150 0 0 -375 0 -375
-120 0 -120 0 0 35 0 35 -135 0 -135 0 0 35 0 35 -150 0 -150 0 0 -35 0 -35
-125 0 -125 0 0 -40 0 -40 -110 0 -110 0 0 35 0 35 -135 0 -135 0 0 35 0 35
-150 0 -150 0 0 -35 0 -35 -105 0 -105 0 0 665 0 665 -150 0 -150 0 0 -770 0
-770 -40 0 -40 0 0 890 0 890 1415 0 1415 0 0 -890z m-2490 -140 l0 -750 -110
0 -110 0 0 750 0 750 110 0 110 0 0 -750z m2360 -310 l0 -420 -110 0 -110 0 0
420 0 420 110 0 110 0 0 -420z m-810 -310 l0 -120 -110 0 -110 0 0 120 0 120
110 0 110 0 0 -120z m-1040 -10 l0 -120 -110 0 -110 0 0 120 0 120 110 0 110
0 0 -120z m780 -25 l0 -85 -105 0 -105 0 0 85 0 85 105 0 105 0 0 -85z m530 0
l0 -85 -110 0 -110 0 0 85 0 85 110 0 110 0 0 -85z m-1570 -10 l0 -85 -105 0
-105 0 0 85 0 85 105 0 105 0 0 -85z m530 0 l0 -85 -110 0 -110 0 0 85 0 85
110 0 110 0 0 -85z m1310 -20 l0 -45 -115 0 -115 0 0 45 0 45 115 0 115 0 0
-45z m-1050 -10 l0 -45 -110 0 -110 0 0 45 0 45 110 0 110 0 0 -45z"/>
<path d="M17460 2400 c0 -13 7 -20 20 -20 13 0 20 7 20 20 0 13 -7 20 -20 20
-13 0 -20 -7 -20 -20z"/>
<path d="M17460 2320 c0 -13 7 -20 20 -20 13 0 20 7 20 20 0 13 -7 20 -20 20
-13 0 -20 -7 -20 -20z"/>
<path d="M17460 2240 c0 -13 7 -20 20 -20 13 0 20 7 20 20 0 13 -7 20 -20 20
-13 0 -20 -7 -20 -20z"/>
<path d="M17460 2160 c0 -13 7 -20 20 -20 13 0 20 7 20 20 0 13 -7 20 -20 20
-13 0 -20 -7 -20 -20z"/>
<path d="M17460 2080 c0 -13 7 -20 20 -20 13 0 20 7 20 20 0 13 -7 20 -20 20
-13 0 -20 -7 -20 -20z"/>
<path d="M17460 2000 c0 -13 7 -20 20 -20 13 0 20 7 20 20 0 13 -7 20 -20 20
-13 0 -20 -7 -20 -20z"/>
<path d="M17460 1920 c0 -13 7 -20 20 -20 13 0 20 7 20 20 0 13 -7 20 -20 20
-13 0 -20 -7 -20 -20z"/>
<path d="M17460 1840 c0 -13 7 -20 20 -20 13 0 20 7 20 20 0 13 -7 20 -20 20
-13 0 -20 -7 -20 -20z"/>
<path d="M17460 1760 c0 -13 7 -20 20 -20 13 0 20 7 20 20 0 13 -7 20 -20 20
-13 0 -20 -7 -20 -20z"/>
<path d="M17460 1680 c0 -13 7 -20 20 -20 13 0 20 7 20 20 0 13 -7 20 -20 20
-13 0 -20 -7 -20 -20z"/>
<path d="M17460 1600 c0 -13 7 -20 20 -20 13 0 20 7 20 20 0 13 -7 20 -20 20
-13 0 -20 -7 -20 -20z"/>
<path d="M17460 1520 c0 -13 7 -20 20 -20 13 0 20 7 20 20 0 13 -7 20 -20 20
-13 0 -20 -7 -20 -20z"/>
<path d="M17460 1440 c0 -13 7 -20 20 -20 13 0 20 7 20 20 0 13 -7 20 -20 20
-13 0 -20 -7 -20 -20z"/>
<path d="M17460 1360 c0 -13 7 -20 20 -20 13 0 20 7 20 20 0 13 -7 20 -20 20
-13 0 -20 -7 -20 -20z"/>
<path d="M17460 1280 c0 -13 7 -20 20 -20 13 0 20 7 20 20 0 13 -7 20 -20 20
-13 0 -20 -7 -20 -20z"/>
<path d="M17460 1200 c0 -13 7 -20 20 -20 13 0 20 7 20 20 0 13 -7 20 -20 20
-13 0 -20 -7 -20 -20z"/>
<path d="M17460 1120 c0 -13 7 -20 20 -20 13 0 20 7 20 20 0 13 -7 20 -20 20
-13 0 -20 -7 -20 -20z"/>
<path d="M340 1735 l0 -865 1360 0 1360 0 0 865 0 865 -1360 0 -1360 0 0 -865z
m2680 0 l0 -825 -35 0 -35 0 0 240 0 240 -120 0 -120 0 0 140 0 140 -125 0
-125 0 0 85 0 85 -130 0 -130 0 0 145 0 145 -120 0 -120 0 0 155 0 155 -145 0
-145 0 0 -235 0 -235 -105 0 -105 0 0 165 0 165 -140 0 -140 0 0 -240 0 -240
-130 0 -130 0 0 -140 0 -140 -115 0 -115 0 0 -150 0 -150 -120 0 -120 0 0
-165 0 -165 -35 0 -35 0 0 825 0 825 1320 0 1320 0 0 -825z m-1103 463 c-4
-112 -7 -445 -7 -740 l0 -538 -100 0 -100 0 0 740 0 740 107 0 106 0 -6 -202z
m-497 -603 l0 -665 -100 0 -100 0 0 665 0 665 100 0 100 0 0 -665z m740 -95
l0 -590 -105 0 -105 0 0 590 0 590 105 0 105 0 0 -590z m-490 -80 l0 -510
-105 0 -105 0 0 510 0 510 105 0 105 0 0 -510z m750 -55 l0 -435 -100 0 -100
0 0 435 0 435 100 0 100 0 0 -435z m-1250 -20 l0 -435 -105 0 -105 0 0 435 0
435 105 0 105 0 0 -435z m1500 -75 l0 -360 -105 0 -105 0 0 360 0 360 105 0
105 0 0 -360z m-1750 -55 l0 -285 -95 0 -95 0 0 285 0 285 95 0 95 0 0 -285z
m1990 -75 l0 -210 -100 0 -100 0 0 210 0 210 100 0 100 0 0 -210z m-2220 -75
l0 -135 -100 0 -100 0 0 135 0 135 100 0 100 0 0 -135z"/>
<path d="M5610 1720 l0 -880 670 0 c440 0 670 -3 670 -10 0 -6 53 -10 140 -10
87 0 140 4 140 10 0 7 193 10 560 10 l560 0 0 880 0 880 -1370 0 -1370 0 0
-880z m2700 0 l0 -840 -45 0 -45 0 0 230 0 230 -115 0 -115 0 0 160 0 160
-120 0 -120 0 0 75 0 75 -120 0 -120 0 0 155 0 155 -140 0 -140 0 0 145 0 145
-140 0 -140 0 0 -220 0 -220 -105 0 -105 0 0 150 0 150 -145 0 -145 0 0 -230
0 -230 -125 0 -125 0 0 -155 0 -155 -120 0 -120 0 0 -155 0 -155 -125 0 -125
0 0 -155 0 -155 -30 0 -30 0 0 840 0 840 1330 0 1330 0 0 -840z m-1120 -105
l0 -755 -100 0 -100 0 0 755 0 755 100 0 100 0 0 -755z m-490 -60 l0 -675
-105 0 -105 0 0 675 0 675 105 0 105 0 0 -675z m767 323 c-4 -112 -7 -382 -7
-600 l0 -398 -100 0 -100 0 0 600 0 600 107 0 106 0 -6 -202z m-517 -473 l0
-525 -105 0 -105 0 0 525 0 525 105 0 105 0 0 -525z m-510 -80 l0 -445 -100 0
-100 0 0 445 0 445 100 0 100 0 0 -445z m1270 0 l0 -445 -105 0 -105 0 0 445
0 445 105 0 105 0 0 -445z m237 83 c-4 -116 -7 -282 -7 -370 l0 -158 -95 0
-95 0 0 370 0 370 102 0 101 0 -6 -212z m-1747 -238 l0 -290 -100 0 -100 0 0
290 0 290 100 0 100 0 0 -290z m1980 -80 l0 -210 -100 0 -100 0 0 210 0 210
100 0 100 0 0 -210z m-2220 -75 l0 -135 -105 0 -105 0 0 135 0 135 105 0 105
0 0 -135z"/>
<path d="M11140 1705 l0 -895 1420 0 1420 0 0 895 0 895 -1420 0 -1420 0 0
-895z m2800 0 l0 -855 -25 0 -25 0 0 140 0 140 -135 0 -135 0 0 65 0 65 -150
0 -150 0 0 -40 0 -40 -105 0 -105 0 0 150 0 150 -135 0 -135 0 0 235 0 235
-130 0 -130 0 0 170 0 170 -135 0 -135 0 0 80 0 80 -150 0 -150 0 0 -325 0
-325 -130 0 -130 0 0 -160 0 -160 -125 0 -125 0 0 -160 0 -160 -125 0 -125 0
0 -155 0 -155 -35 0 -35 0 0 855 0 855 1380 0 1380 0 0 -855z m-1670 -65 l0
-770 -110 0 -110 0 0 770 0 770 110 0 110 0 0 -770z m270 -85 l0 -695 -110 0
-110 0 0 695 0 695 110 0 110 0 0 -695z m260 -175 l0 -530 -110 0 -110 0 0
530 0 530 110 0 110 0 0 -530z m-800 -75 l0 -455 -105 0 -105 0 0 455 0 455
105 0 105 0 0 -455z m-250 -160 l0 -295 -105 0 -105 0 0 295 0 295 105 0 105
0 0 -295z m1320 0 l0 -295 -105 0 -105 0 0 295 0 295 105 0 105 0 0 -295z
m510 -95 l0 -170 -110 0 -110 0 0 170 0 170 110 0 110 0 0 -170z m-260 -50 l0
-140 -90 0 -90 0 0 140 0 140 90 0 90 0 0 -140z m-1820 -15 l0 -135 -105 0
-105 0 0 135 0 135 105 0 105 0 0 -135z m2350 -10 l0 -115 -110 0 -110 0 0
115 0 115 110 0 110 0 0 -115z"/>
<path d="M10030 2485 l0 -85 -84 0 c-115 0 -122 -18 -9 -22 l88 -3 3 -88 c4
-113 22 -106 22 9 l0 84 85 0 c50 0 85 4 85 10 0 6 -35 10 -85 10 l-85 0 0 85
c0 50 -4 85 -10 85 -6 0 -10 -35 -10 -85z"/>
<path d="M8824 2466 c-32 -32 -45 -66 -26 -66 5 0 17 9 28 21 27 30 128 23
155 -10 30 -37 33 -99 10 -175 -25 -80 -26 -106 -6 -106 15 0 27 35 45 129 5
29 28 91 50 138 42 89 46 103 31 103 -5 0 -24 -32 -44 -71 l-35 -72 -11 41
c-6 22 -24 54 -40 71 -24 26 -36 31 -76 31 -40 0 -52 -5 -81 -34z"/>
<path d="M9160 2485 c0 -9 9 -15 23 -15 15 0 35 -17 64 -53 l41 -53 -44 -47
c-24 -26 -52 -47 -64 -47 -11 0 -20 -4 -20 -10 0 -5 25 -10 56 -10 48 0 55 2
44 15 -9 11 -8 20 10 45 12 16 25 30 30 30 15 0 63 -64 51 -68 -6 -2 -11 -8
-11 -13 0 -5 29 -9 65 -9 37 0 65 4 65 10 0 6 -8 10 -18 10 -16 0 -81 67 -106
108 -12 19 61 92 91 92 14 0 23 6 23 15 0 12 -13 15 -55 15 -56 0 -65 -6 -43
-28 10 -10 7 -18 -14 -39 l-26 -26 -25 29 c-14 16 -21 31 -16 32 5 2 9 10 9
18 0 11 -16 14 -65 14 -51 0 -65 -3 -65 -15z"/>
<path d="M14532 2480 c-98 -60 -75 -228 36 -260 59 -16 132 24 132 72 0 7 -9
-2 -20 -19 -21 -35 -55 -49 -95 -39 -44 11 -67 61 -63 140 3 61 7 71 33 93 23
20 36 24 63 19 39 -6 65 -26 45 -33 -16 -6 -17 -39 -3 -48 14 -8 40 13 40 32
0 8 -11 25 -25 38 -31 32 -95 34 -143 5z"/>
<path d="M14965 2475 c-14 -13 -25 -30 -25 -37 0 -23 18 -41 34 -35 19 7 21
43 4 51 -20 8 21 36 53 36 32 0 69 -41 69 -76 0 -18 -7 -25 -27 -29 -76 -16
-104 -28 -127 -56 -30 -35 -32 -47 -11 -76 32 -45 120 -48 153 -5 11 15 14 14
28 -6 17 -24 53 -29 72 -10 7 7 11 28 11 48 l-2 35 -6 -35 c-4 -26 -11 -35
-26 -35 -18 0 -20 8 -25 103 -5 98 -6 105 -33 128 -40 34 -108 34 -142 -1z
m135 -150 c0 -35 -6 -52 -25 -70 -57 -57 -132 -4 -94 66 12 23 62 48 97 49 20
0 22 -5 22 -45z"/>
<path d="M15235 2489 c-4 -6 2 -13 13 -16 19 -5 21 -14 24 -109 3 -120 3 -124
-23 -124 -10 0 -19 -4 -19 -10 0 -6 28 -10 65 -10 37 0 65 4 65 10 0 6 -9 10
-20 10 -19 0 -20 7 -20 96 0 92 1 97 29 125 36 35 65 37 86 5 12 -18 15 -46
13 -122 -3 -94 -4 -99 -25 -102 -51 -7 -19 -22 47 -22 66 0 98 15 48 22 -22 3
-23 7 -23 101 0 96 1 100 28 123 33 28 59 31 82 8 13 -13 15 -36 13 -123 -3
-101 -4 -106 -25 -109 -51 -7 -19 -22 47 -22 66 0 98 15 48 22 -22 3 -23 8
-28 115 -4 97 -8 114 -25 127 -32 24 -92 20 -120 -9 l-25 -24 -25 24 c-33 34
-84 33 -124 -1 l-31 -26 0 26 c0 23 -4 26 -34 26 -19 0 -38 -5 -41 -11z"/>
<path d="M15752 2493 c-17 -7 -5 -23 19 -23 18 0 19 -8 19 -175 0 -167 -1
-175 -19 -175 -11 0 -23 -4 -26 -10 -4 -6 20 -10 64 -10 39 0 71 4 71 9 0 5
-10 11 -22 13 -21 3 -23 9 -26 64 l-3 62 38 -19 c31 -15 45 -17 74 -9 76 21
123 104 101 178 -24 79 -118 126 -176 88 -31 -20 -36 -20 -36 -1 0 15 -48 20
-78 8z m208 -31 c50 -51 52 -144 4 -202 -33 -38 -75 -40 -109 -5 -22 21 -25
33 -25 103 0 69 3 81 23 99 44 40 70 42 107 5z"/>
<path d="M9538 2415 c-39 -21 -51 -85 -17 -85 16 0 23 31 9 40 -21 13 7 40 41
40 32 0 49 -23 49 -67 0 -33 -16 -59 -79 -128 l-46 -50 74 -3 c40 -2 75 -2 76
0 1 2 5 19 9 38 5 31 5 32 -6 13 -9 -19 -19 -23 -61 -23 l-50 0 61 64 c69 71
76 99 40 140 -29 32 -66 40 -100 21z"/>
<path d="M3710 2375 c0 -13 77 -15 640 -15 559 0 640 2 640 15 0 13 -82 15
-640 15 -563 0 -640 -2 -640 -15z"/>
<path d="M4260 2138 c-103 -71 -87 -201 24 -201 81 0 151 68 143 141 -3 29 -1
32 24 32 29 0 63 26 54 41 -4 5 -52 9 -109 9 -90 0 -107 -3 -136 -22z m108
-64 c7 -75 -51 -139 -105 -115 -27 13 -30 45 -8 98 20 46 31 54 75 51 31 -3
35 -6 38 -34z"/>
<path d="M10790 1860 l0 -40 -137 0 c-76 1 -307 -1 -513 -4 -206 -3 -628 -5
-937 -6 l-563 0 0 -46 0 -46 1075 3 1075 4 0 -42 c0 -24 2 -43 6 -43 3 0 64
30 136 67 l132 66 -125 63 c-68 35 -130 63 -136 63 -9 1 -13 -13 -13 -39z"/>
<path d="M4968 1878 c0 -7 -1 -24 -2 -38 l-1 -25 -681 -3 -681 -2 -1 -45 -1
-45 679 0 c754 0 685 6 681 -62 0 -16 1 -28 4 -28 3 0 65 30 137 66 l133 66
-125 64 c-69 35 -128 63 -132 63 -5 1 -9 -5 -10 -11z"/>
<path d="M15980 1835 l0 -45 -799 0 -799 0 2 -42 3 -43 796 -3 797 -2 0 -45 0
-45 132 66 c97 48 128 68 117 75 -8 5 -67 36 -131 69 l-118 59 0 -44z"/>
<path d="M866 673 c-4 -5 -44 -10 -89 -13 l-82 -5 -24 -93 c-13 -51 -21 -95
-18 -98 3 -3 21 -1 41 6 27 9 40 8 58 -1 32 -17 38 -28 38 -77 0 -91 -49 -150
-115 -138 -37 7 -45 25 -20 46 11 9 12 17 4 31 -20 39 -66 9 -55 -36 14 -54
107 -76 175 -40 53 27 93 113 76 164 -16 52 -87 85 -150 71 -41 -9 -40 -16
-14 83 l10 37 69 0 c57 0 74 4 90 20 11 11 20 27 20 35 0 17 -3 18 -14 8z"/>
<path d="M153 650 c-47 -28 -59 -100 -21 -124 13 -8 21 -7 33 5 19 19 10 49
-16 49 -46 0 2 63 55 73 39 7 66 -22 66 -70 -1 -67 -35 -122 -136 -218 -52
-50 -94 -98 -94 -107 0 -14 15 -16 110 -14 60 0 114 6 119 11 5 6 13 30 16 55
l6 45 -16 -27 c-15 -27 -18 -28 -102 -28 l-86 0 64 57 c115 102 176 168 181
198 8 38 -8 80 -37 99 -34 22 -103 20 -142 -4z"/>
<path d="M2040 660 c0 -6 -33 -10 -80 -10 -66 0 -81 -3 -89 -18 -13 -25 -53
-183 -47 -189 2 -3 13 0 24 6 23 12 62 14 87 5 28 -11 37 -52 25 -110 -15 -73
-42 -104 -88 -104 -20 0 -44 4 -52 10 -12 7 -12 12 4 29 22 24 15 51 -13 51
-26 0 -41 -29 -31 -56 31 -82 183 -65 231 26 53 99 -17 194 -131 176 l-38 -6
15 60 15 60 57 0 c77 0 99 8 116 41 18 33 18 39 5 39 -5 0 -10 -4 -10 -10z"/>
<path d="M3135 660 c-3 -5 -35 -10 -71 -10 -36 0 -73 -4 -83 -10 -13 -6 -26
-39 -41 -100 -12 -50 -20 -93 -17 -96 3 -3 14 -1 25 5 29 15 64 14 90 -5 18
-12 22 -25 22 -63 0 -52 -19 -110 -43 -130 -19 -15 -84 -18 -99 -3 -7 7 -6 17
5 32 20 28 12 50 -18 50 -28 0 -41 -30 -25 -59 54 -102 231 -41 246 85 10 79
-63 136 -153 119 -30 -5 -34 -4 -29 12 2 10 10 37 16 61 l11 42 68 0 c70 0 97
15 114 63 7 18 -8 24 -18 7z"/>
<path d="M1350 647 c-41 -14 -64 -52 -49 -79 18 -34 44 -17 44 27 0 39 1 40
37 43 51 4 67 -26 48 -92 -15 -56 -34 -74 -83 -78 -20 -2 -37 -7 -37 -13 1 -5
10 -9 22 -7 61 10 92 -31 79 -104 -14 -74 -42 -104 -98 -104 -41 0 -57 19 -37
41 21 23 14 53 -13 57 -29 4 -46 -28 -33 -62 20 -54 102 -71 171 -36 77 40
105 137 53 185 -15 14 -33 25 -40 25 -26 0 -14 16 20 28 44 16 68 53 64 99 -5
61 -77 95 -148 70z"/>
<path d="M2491 583 c-77 -86 -181 -220 -181 -234 0 -5 34 -9 76 -9 65 0 75 -2
70 -16 -3 -9 -6 -24 -6 -34 0 -24 -29 -53 -46 -46 -8 3 -14 1 -14 -4 0 -6 33
-10 75 -10 43 0 75 4 75 10 0 6 -9 10 -20 10 -17 0 -19 5 -14 28 13 60 15 62
45 62 27 0 29 -2 23 -27 -5 -21 -4 -25 5 -18 6 6 13 33 16 60 4 36 3 44 -4 29
-13 -29 -61 -39 -61 -12 0 16 27 148 55 266 10 42 -23 23 -94 -55z m-3 -109
c-12 -54 -24 -102 -27 -106 -9 -11 -111 -15 -117 -6 -3 5 25 47 63 94 89 112
98 122 101 120 1 -2 -8 -47 -20 -102z"/>
<path d="M13446 594 c-13 -9 -45 -14 -93 -14 l-72 0 -10 -37 c-32 -125 -40
-158 -37 -161 2 -2 21 1 41 7 80 22 116 -23 96 -115 -21 -91 -82 -131 -137
-89 -18 14 -18 16 -1 26 19 11 23 44 7 54 -22 13 -50 -6 -50 -34 0 -54 68 -88
139 -69 67 18 111 77 111 148 0 72 -72 119 -155 100 l-32 -7 16 63 15 63 74 3
c68 3 77 6 95 29 24 33 20 53 -7 33z"/>
<path d="M6246 593 c-4 -5 -44 -10 -89 -13 l-82 -5 -22 -80 c-32 -118 -32
-115 27 -108 66 8 90 -12 90 -72 0 -106 -80 -179 -144 -132 -16 12 -16 14 -2
26 20 17 21 50 1 57 -21 8 -45 -14 -45 -40 0 -39 42 -68 98 -69 65 -1 111 26
140 83 30 59 24 105 -19 143 -28 26 -37 28 -91 25 -66 -3 -62 -12 -37 85 l10
37 69 0 c57 0 74 4 90 20 11 11 20 27 20 35 0 17 -3 18 -14 8z"/>
<path d="M6619 577 c-140 -94 -178 -368 -57 -411 59 -21 124 27 175 131 24 49
28 70 28 138 0 88 -19 134 -62 154 -34 16 -46 14 -84 -12z m93 -22 c20 -44
-34 -300 -74 -351 -28 -35 -79 -31 -92 9 -17 47 36 277 78 341 23 36 72 36 88
1z"/>
<path d="M7169 577 c-140 -94 -178 -368 -57 -411 59 -21 124 27 175 131 24 49
28 70 28 138 0 88 -19 134 -62 154 -34 16 -46 14 -84 -12z m92 -18 c14 -26 6
-95 -26 -226 -24 -100 -46 -140 -83 -154 -30 -11 -62 20 -62 60 0 69 49 258
80 309 24 39 72 45 91 11z"/>
<path d="M11806 593 c-4 -5 -44 -10 -89 -13 l-82 -5 -24 -93 c-13 -51 -21 -95
-18 -98 3 -3 21 -1 41 6 27 9 40 8 58 -1 32 -17 38 -28 38 -77 0 -91 -49 -150
-115 -138 -39 8 -43 20 -18 48 16 17 16 20 0 36 -13 13 -21 14 -35 6 -40 -26
-15 -87 42 -103 70 -19 143 14 176 79 31 60 24 114 -19 147 -29 23 -85 33
-120 23 -37 -10 -36 -16 -10 83 l10 37 69 0 c57 0 74 4 90 20 11 11 20 27 20
35 0 17 -3 18 -14 8z"/>
<path d="M12430 574 c-44 -37 -63 -81 -114 -255 -24 -85 -54 -178 -65 -207
-11 -28 -19 -52 -17 -52 2 0 17 5 33 11 26 8 33 19 46 62 10 35 19 51 28 48
42 -13 109 -11 138 4 71 36 97 150 46 201 -14 14 -25 26 -25 27 0 1 15 11 34
21 59 31 74 99 31 141 -34 35 -93 34 -135 -1z m98 -6 c34 -34 1 -120 -53 -138
-41 -14 -45 -25 -10 -34 34 -9 46 -43 34 -96 -17 -76 -45 -110 -89 -110 -15 0
-38 8 -50 18 l-22 18 32 114 c17 63 40 134 50 156 31 72 77 103 108 72z"/>
<path d="M5555 580 c-49 -6 -45 -21 5 -17 31 2 32 13 -15 -205 l-38 -178 -34
0 c-18 0 -33 -4 -33 -10 0 -6 40 -10 100 -10 60 0 100 4 100 10 0 6 -16 10
-35 10 -19 0 -35 2 -35 4 0 2 18 88 40 191 22 103 40 194 40 201 0 15 -11 15
-95 4z"/>
<path d="M8326 582 c-4 -8 -34 -12 -79 -12 -40 0 -78 -4 -85 -9 -14 -8 -63
-186 -55 -195 3 -3 16 -1 30 5 88 33 133 -25 102 -132 -22 -70 -90 -105 -134
-69 -16 13 -16 15 0 26 23 17 15 48 -13 52 -46 7 -40 -68 8 -93 95 -49 210 26
210 137 0 40 -5 53 -26 73 -30 28 -80 40 -124 31 -34 -6 -34 -6 -18 63 l11 51
58 0 c69 0 104 12 119 40 13 23 9 53 -4 32z"/>
<path d="M11105 578 c-11 -6 -28 -20 -37 -32 -36 -44 -11 -125 30 -99 25 15
21 47 -5 51 -53 8 1 72 60 72 42 0 57 -19 57 -72 -1 -63 -36 -119 -135 -213
-52 -50 -95 -97 -95 -105 0 -13 19 -16 115 -17 l115 -2 10 42 c6 23 13 48 15
55 8 23 -12 12 -23 -13 -11 -24 -15 -25 -99 -25 -48 0 -83 4 -77 8 79 68 200
183 216 205 13 18 21 45 21 70 0 33 -6 45 -29 64 -32 25 -103 31 -139 11z"/>
<path d="M13842 556 c-59 -54 -95 -133 -100 -225 -5 -93 12 -142 58 -166 44
-23 90 -6 135 49 65 79 93 184 74 275 -21 104 -94 133 -167 67z m93 18 c30
-12 35 -49 20 -142 -21 -118 -52 -219 -75 -242 -26 -26 -66 -26 -80 -1 -16 31
-12 88 15 199 39 159 68 205 120 186z"/>
<path d="M7670 572 c-74 -3 -96 -14 -44 -21 l40 -6 -41 -189 -41 -189 -34 -4
c-68 -7 -40 -13 64 -13 67 0 105 4 101 10 -3 5 -19 8 -35 6 -17 -2 -30 0 -30
5 0 4 18 94 40 200 22 106 39 195 38 198 -2 3 -28 5 -58 3z"/>
<path d="M16969 477 c-41 -27 -94 -104 -109 -155 -5 -20 -10 -64 -10 -98 0
-147 108 -184 197 -66 78 103 84 275 11 326 -30 22 -49 20 -89 -7z m81 -12
c16 -20 9 -100 -20 -222 -23 -100 -49 -143 -85 -143 -55 0 -60 59 -19 222 14
60 35 119 46 133 22 28 59 33 78 10z"/>
<path d="M19673 484 c-70 -35 -124 -145 -126 -255 -1 -72 13 -106 57 -134 77
-51 199 99 200 245 1 78 -17 126 -55 145 -34 18 -36 18 -76 -1z m79 -29 c20
-45 -35 -298 -73 -336 -28 -28 -67 -25 -81 7 -20 44 36 289 77 334 26 28 63
26 77 -5z"/>
<path d="M15870 480 c0 -5 15 -10 33 -10 l34 0 -38 -172 c-21 -95 -38 -176
-39 -180 0 -5 -16 -8 -35 -8 -19 0 -35 -4 -35 -10 0 -13 187 -13 195 0 4 6 -8
10 -29 10 -20 0 -36 3 -36 8 1 4 18 89 39 190 l39 182 -64 0 c-36 0 -64 -4
-64 -10z"/>
<path d="M16620 480 c0 -5 15 -10 33 -10 l34 0 -38 -172 c-21 -95 -38 -176
-39 -180 0 -5 -16 -8 -35 -8 -19 0 -35 -4 -35 -10 0 -13 187 -13 195 0 4 6 -8
10 -29 10 -20 0 -36 3 -36 8 1 4 18 89 39 190 l39 182 -64 0 c-36 0 -64 -4
-64 -10z"/>
<path d="M18365 480 c-4 -6 9 -10 31 -10 32 0 36 -2 32 -22 -3 -13 -20 -94
-39 -180 l-34 -158 -32 0 c-18 0 -33 -4 -33 -10 0 -6 38 -10 95 -10 57 0 95 4
95 10 0 6 -13 10 -30 10 -19 0 -30 5 -30 14 0 8 16 89 35 180 19 92 35 171 35
176 0 13 -117 13 -125 0z"/>
<path d="M19315 480 c-4 -6 9 -10 31 -10 32 0 36 -2 32 -22 -3 -13 -20 -94
-39 -180 l-34 -158 -32 0 c-18 0 -33 -4 -33 -10 0 -6 38 -10 95 -10 57 0 95 4
95 10 0 6 -15 10 -33 10 l-33 0 38 178 c20 97 38 183 38 190 0 15 -116 17
-125 2z"/>
<path d="M17500 362 c-78 -42 -121 -153 -86 -220 26 -50 61 -67 133 -63 27 1
89 54 109 93 19 37 22 122 4 143 -15 18 -9 27 21 29 12 0 24 7 27 14 2 8 -10
12 -41 12 -24 0 -64 3 -88 6 -33 4 -53 0 -79 -14z m100 -22 c26 -26 26 -84 1
-151 -26 -68 -47 -89 -87 -89 -44 0 -57 26 -52 99 5 69 32 127 67 146 35 19
48 18 71 -5z"/>
<path d="M16178 324 c-37 -19 -78 -92 -78 -137 0 -53 40 -97 90 -97 30 0 46 7
69 31 17 17 31 35 31 40 0 6 -15 -6 -34 -25 -55 -59 -111 -44 -100 26 6 34 9
36 52 41 34 4 53 12 69 32 60 69 -14 136 -99 89z m75 -15 c13 -21 -11 -70 -43
-86 -34 -17 -42 -5 -29 42 16 59 49 80 72 44z"/>
<path d="M18872 320 c-102 -63 -94 -230 11 -230 37 0 80 28 98 63 8 16 2 12
-20 -10 -61 -63 -120 -51 -107 20 6 33 9 35 57 41 42 6 53 12 69 39 25 40 25
52 0 77 -25 25 -66 25 -108 0z m76 -23 c5 -39 -22 -77 -54 -77 -24 0 -26 3
-20 32 14 73 67 105 74 45z"/>
<path d="M5212 303 c3 -28 4 -28 73 -28 69 0 70 0 71 28 l1 27 -74 0 -74 0 3
-27z"/>
<path d="M10780 300 l0 -31 68 3 c65 3 67 4 70 31 l3 27 -70 0 -71 0 0 -30z"/>
<path d="M419 294 c-17 -21 0 -49 31 -49 31 0 48 28 31 49 -8 9 -21 16 -31 16
-10 0 -23 -7 -31 -16z"/>
<path d="M1600 285 c-26 -31 13 -82 44 -56 19 16 21 42 4 59 -16 16 -33 15
-48 -3z"/>
<path d="M2696 278 c-27 -39 18 -80 52 -46 18 18 14 46 -7 58 -26 14 -28 13
-45 -12z"/>
<path d="M16340 225 c0 -24 2 -25 65 -25 63 0 65 1 65 25 0 24 -2 25 -65 25
-63 0 -65 -1 -65 -25z"/>
<path d="M18600 225 c0 -24 2 -25 65 -25 63 0 65 1 65 25 0 24 -2 25 -65 25
-63 0 -65 -1 -65 -25z"/>
<path d="M19040 225 c0 -24 2 -25 65 -25 63 0 65 1 65 25 0 24 -2 25 -65 25
-63 0 -65 -1 -65 -25z"/>
<path d="M6868 229 c-33 -19 -15 -69 24 -69 15 0 38 27 38 44 0 7 -31 36 -38
36 -4 0 -15 -5 -24 -11z"/>
<path d="M5799 214 c-17 -21 0 -48 34 -52 18 -2 27 2 32 18 13 41 -38 68 -66
34z"/>
<path d="M11359 214 c-17 -21 0 -48 34 -52 18 -2 27 2 32 18 13 41 -38 68 -66
34z"/>
<path d="M13554 216 c-12 -31 0 -51 31 -51 27 0 30 3 30 30 0 25 -4 30 -28 33
-17 2 -29 -2 -33 -12z"/>
<path d="M7888 209 c-33 -19 -15 -69 24 -69 15 0 38 27 38 44 0 7 -31 36 -38
36 -4 0 -15 -5 -24 -11z"/>
</g>
</svg>
