<svg version="1.1" viewBox="0.0 0.0 826.7611548556431 523.3307086614174" fill="none" stroke="none" stroke-linecap="square" stroke-miterlimit="10" xmlns:xlink="http://www.w3.org/1999/xlink" xmlns="http://www.w3.org/2000/svg"><clipPath id="p.0"><path d="m0 0l826.76117 0l0 523.3307l-826.76117 0l0 -523.3307z" clip-rule="nonzero"/></clipPath><g clip-path="url(#p.0)"><path fill="#000000" fill-opacity="0.0" d="m0 0l826.76117 0l0 523.3307l-826.76117 0z" fill-rule="evenodd"/><path fill="#76a5af" d="m132.43176 474.90027l39.37007 -40.0l39.370087 40.0l-39.370087 40.0z" fill-rule="evenodd"/><path stroke="#434343" stroke-width="4.0" stroke-linejoin="round" stroke-linecap="butt" d="m132.43176 474.90027l39.37007 -40.0l39.370087 40.0l-39.370087 40.0z" fill-rule="evenodd"/><path fill="#f3f3f3" d="m37.396324 251.88715l0 0c0 -6.076584 4.9260445 -11.0026245 11.0026245 -11.0026245l248.0105 0c2.9180603 0 5.7166443 1.159195 7.7800293 3.22258c2.063385 2.0634003 3.2225952 4.8619537 3.2225952 7.7800446l0 44.010498c0 6.0765686 -4.926056 11.0026245 -11.0026245 11.0026245l-248.0105 0l0 0c-6.07658 0 -11.0026245 -4.926056 -11.0026245 -11.0026245z" fill-rule="evenodd"/><path stroke="#434343" stroke-width="4.0" stroke-linejoin="round" stroke-linecap="butt" d="m37.396324 251.88715l0 0c0 -6.076584 4.9260445 -11.0026245 11.0026245 -11.0026245l248.0105 0c2.9180603 0 5.7166443 1.159195 7.7800293 3.22258c2.063385 2.0634003 3.2225952 4.8619537 3.2225952 7.7800446l0 44.010498c0 6.0765686 -4.926056 11.0026245 -11.0026245 11.0026245l-248.0105 0l0 0c-6.07658 0 -11.0026245 -4.926056 -11.0026245 -11.0026245z" fill-rule="evenodd"/><path fill="#8e7cc3" d="m49.396324 273.8924l0 0c0 -14.411591 11.682903 -26.094498 26.09449 -26.094498l0 0c6.920685 0 13.557922 2.749237 18.451591 7.6428986c4.8936615 4.8936768 7.6428986 11.530914 7.6428986 18.4516l0 0c0 14.411591 -11.682899 26.094482 -26.09449 26.094482l0 0c-14.411587 0 -26.09449 -11.682892 -26.09449 -26.094482z" fill-rule="evenodd"/><path stroke="#434343" stroke-width="4.0" stroke-linejoin="round" stroke-linecap="butt" d="m49.396324 273.8924l0 0c0 -14.411591 11.682903 -26.094498 26.09449 -26.094498l0 0c6.920685 0 13.557922 2.749237 18.451591 7.6428986c4.8936615 4.8936768 7.6428986 11.530914 7.6428986 18.4516l0 0c0 14.411591 -11.682899 26.094482 -26.09449 26.094482l0 0c-14.411587 0 -26.09449 -11.682892 -26.09449 -26.094482z" fill-rule="evenodd"/><path fill="#8e7cc3" d="m114.396324 273.8924l0 0c0 -14.411591 11.682899 -26.094498 26.09449 -26.094498l0 0c6.920685 0 13.557922 2.749237 18.451584 7.6428986c4.8936768 4.8936768 7.6428986 11.530914 7.6428986 18.4516l0 0c0 14.411591 -11.682892 26.094482 -26.094482 26.094482l0 0c-14.411591 0 -26.09449 -11.682892 -26.09449 -26.094482z" fill-rule="evenodd"/><path stroke="#434343" stroke-width="4.0" stroke-linejoin="round" stroke-linecap="butt" d="m114.396324 273.8924l0 0c0 -14.411591 11.682899 -26.094498 26.09449 -26.094498l0 0c6.920685 0 13.557922 2.749237 18.451584 7.6428986c4.8936768 4.8936768 7.6428986 11.530914 7.6428986 18.4516l0 0c0 14.411591 -11.682892 26.094482 -26.094482 26.094482l0 0c-14.411591 0 -26.09449 -11.682892 -26.09449 -26.094482z" fill-rule="evenodd"/><path fill="#8e7cc3" d="m179.39633 273.8924l0 0c0 -14.411591 11.682892 -26.094498 26.094482 -26.094498l0 0c6.920685 0 13.557922 2.749237 18.451584 7.6428986c4.8936768 4.8936768 7.6428986 11.530914 7.6428986 18.4516l0 0c0 14.411591 -11.682892 26.094482 -26.094482 26.094482l0 0c-14.411591 0 -26.094482 -11.682892 -26.094482 -26.094482z" fill-rule="evenodd"/><path stroke="#434343" stroke-width="4.0" stroke-linejoin="round" stroke-linecap="butt" d="m179.39633 273.8924l0 0c0 -14.411591 11.682892 -26.094498 26.094482 -26.094498l0 0c6.920685 0 13.557922 2.749237 18.451584 7.6428986c4.8936768 4.8936768 7.6428986 11.530914 7.6428986 18.4516l0 0c0 14.411591 -11.682892 26.094482 -26.094482 26.094482l0 0c-14.411591 0 -26.094482 -11.682892 -26.094482 -26.094482z" fill-rule="evenodd"/><path fill="#8e7cc3" d="m244.39633 273.8924l0 0c0 -14.411591 11.682892 -26.094498 26.094482 -26.094498l0 0c6.920685 0 13.557922 2.749237 18.4516 7.6428986c4.8936462 4.8936768 7.6428833 11.530914 7.6428833 18.4516l0 0c0 14.411591 -11.682892 26.094482 -26.094482 26.094482l0 0c-14.411591 0 -26.094482 -11.682892 -26.094482 -26.094482z" fill-rule="evenodd"/><path stroke="#434343" stroke-width="4.0" stroke-linejoin="round" stroke-linecap="butt" d="m244.39633 273.8924l0 0c0 -14.411591 11.682892 -26.094498 26.094482 -26.094498l0 0c6.920685 0 13.557922 2.749237 18.4516 7.6428986c4.8936462 4.8936768 7.6428833 11.530914 7.6428833 18.4516l0 0c0 14.411591 -11.682892 26.094482 -26.094482 26.094482l0 0c-14.411591 0 -26.094482 -11.682892 -26.094482 -26.094482z" fill-rule="evenodd"/><path fill="#f3f3f3" d="m68.908134 331.8714l0 0c0 -6.076599 4.9260483 -11.0026245 11.0026245 -11.0026245l184.98688 0c2.9180603 0 5.7166443 1.1591797 7.7800293 3.2225952c2.063385 2.063385 3.2225952 4.8619385 3.2225952 7.7800293l0 44.010498c0 6.0765686 -4.926056 11.0026245 -11.0026245 11.0026245l-184.98688 0c-6.076576 0 -11.0026245 -4.926056 -11.0026245 -11.0026245z" fill-rule="evenodd"/><path stroke="#434343" stroke-width="4.0" stroke-linejoin="round" stroke-linecap="butt" d="m68.908134 331.8714l0 0c0 -6.076599 4.9260483 -11.0026245 11.0026245 -11.0026245l184.98688 0c2.9180603 0 5.7166443 1.1591797 7.7800293 3.2225952c2.063385 2.063385 3.2225952 4.8619385 3.2225952 7.7800293l0 44.010498c0 6.0765686 -4.926056 11.0026245 -11.0026245 11.0026245l-184.98688 0c-6.076576 0 -11.0026245 -4.926056 -11.0026245 -11.0026245z" fill-rule="evenodd"/><path fill="#ffd966" d="m80.908134 353.87665l0 0c0 -14.411591 11.682899 -26.094482 26.09449 -26.094482l0 0c6.9206924 0 13.557922 2.7492065 18.451591 7.6428833c4.893669 4.8936768 7.642891 11.530914 7.642891 18.4516l0 0c0 14.411591 -11.682892 26.094482 -26.094482 26.094482l0 0c-14.411591 0 -26.09449 -11.682892 -26.09449 -26.094482z" fill-rule="evenodd"/><path stroke="#434343" stroke-width="4.0" stroke-linejoin="round" stroke-linecap="butt" d="m80.908134 353.87665l0 0c0 -14.411591 11.682899 -26.094482 26.09449 -26.094482l0 0c6.9206924 0 13.557922 2.7492065 18.451591 7.6428833c4.893669 4.8936768 7.642891 11.530914 7.642891 18.4516l0 0c0 14.411591 -11.682892 26.094482 -26.094482 26.094482l0 0c-14.411591 0 -26.09449 -11.682892 -26.09449 -26.094482z" fill-rule="evenodd"/><path fill="#ffd966" d="m145.90814 353.87665l0 0c0 -14.411591 11.682892 -26.094482 26.094482 -26.094482l0 0c6.920685 0 13.557922 2.7492065 18.451584 7.6428833c4.8936768 4.8936768 7.6428986 11.530914 7.6428986 18.4516l0 0c0 14.411591 -11.682892 26.094482 -26.094482 26.094482l0 0c-14.411591 0 -26.094482 -11.682892 -26.094482 -26.094482z" fill-rule="evenodd"/><path stroke="#434343" stroke-width="4.0" stroke-linejoin="round" stroke-linecap="butt" d="m145.90814 353.87665l0 0c0 -14.411591 11.682892 -26.094482 26.094482 -26.094482l0 0c6.920685 0 13.557922 2.7492065 18.451584 7.6428833c4.8936768 4.8936768 7.6428986 11.530914 7.6428986 18.4516l0 0c0 14.411591 -11.682892 26.094482 -26.094482 26.094482l0 0c-14.411591 0 -26.094482 -11.682892 -26.094482 -26.094482z" fill-rule="evenodd"/><path fill="#ffd966" d="m210.90814 353.87665l0 0c0 -14.411591 11.682892 -26.094482 26.094482 -26.094482l0 0c6.920685 0 13.557922 2.7492065 18.451584 7.6428833c4.8936615 4.8936768 7.6428986 11.530914 7.6428986 18.4516l0 0c0 14.411591 -11.682892 26.094482 -26.094482 26.094482l0 0c-14.411591 0 -26.094482 -11.682892 -26.094482 -26.094482z" fill-rule="evenodd"/><path stroke="#434343" stroke-width="4.0" stroke-linejoin="round" stroke-linecap="butt" d="m210.90814 353.87665l0 0c0 -14.411591 11.682892 -26.094482 26.094482 -26.094482l0 0c6.920685 0 13.557922 2.7492065 18.451584 7.6428833c4.8936615 4.8936768 7.6428986 11.530914 7.6428986 18.4516l0 0c0 14.411591 -11.682892 26.094482 -26.094482 26.094482l0 0c-14.411591 0 -26.094482 -11.682892 -26.094482 -26.094482z" fill-rule="evenodd"/><path fill="#f3f3f3" d="m162.39633 415.90027l5.0 0l0 -20.015747l10.0 0l0 20.015747l5.0 0l-10.0 10.0z" fill-rule="evenodd"/><path stroke="#434343" stroke-width="4.0" stroke-linejoin="round" stroke-linecap="butt" d="m162.39633 415.90027l5.0 0l0 -20.015747l10.0 0l0 20.015747l5.0 0l-10.0 10.0z" fill-rule="evenodd"/><path fill="#000000" fill-opacity="0.0" d="m8.000001 -13.425197l508.62994 0l0 59.77953l-508.62994 0z" fill-rule="evenodd"/><path fill="#434343" d="m17.78125 5.5123034l11.390625 0l0 0.59375l-0.5625 0q-1.296875 0 -1.78125 0.28125q-0.46875 0.265625 -0.671875 0.734375q-0.203125 0.46875 -0.203125 2.359375l0 10.796874q0 2.96875 0.4375 3.9375q0.453125 0.953125 1.46875 1.59375q1.03125 0.625 2.59375 0.625q1.796875 0 3.046875 -0.796875q1.265625 -0.8125 1.890625 -2.21875q0.640625 -1.421875 0.640625 -4.9375l0 -8.999999q0 -1.484375 -0.3125 -2.109375q-0.3125 -0.640625 -0.78125 -0.890625q-0.734375 -0.375 -2.078125 -0.375l0 -0.59375l7.640625 0l0 0.59375l-0.453125 0q-0.9375 0 -1.5625 0.375q-0.609375 0.375 -0.875 1.125q-0.21875 0.515625 -0.21875 1.875l0 8.374999q0 3.890625 -0.515625 5.625q-0.515625 1.71875 -2.5 3.171875q-1.984375 1.4375 -5.40625 1.4375q-2.875 0 -4.4375 -0.765625q-2.125 -1.03125 -3.015625 -2.65625q-0.875 -1.640625 -0.875 -4.390625l0 -10.796874q0 -1.90625 -0.21875 -2.359375q-0.203125 -0.46875 -0.71875 -0.75q-0.515625 -0.28125 -1.921875 -0.265625l0 -0.59375zm30.631012 6.84375l0 1.96875q1.171875 -1.265625 2.234375 -1.84375q1.078125 -0.578125 2.3125 -0.578125q1.484375 0 2.453125 0.828125q0.984375 0.8125 1.3125 2.03125q0.265625 0.9375 0.265625 3.562499l0 5.9375q0 1.75 0.3125 2.1875q0.3125 0.421875 1.328125 0.546875l0 0.578125l-7.703125 0l0 -0.578125q0.859375 -0.125 1.234375 -0.71875q0.265625 -0.40625 0.265625 -2.015625l0 -6.78125q0 -1.874999 -0.15625 -2.359374q-0.140625 -0.484375 -0.5 -0.75q-0.34375 -0.265625 -0.765625 -0.265625q-1.390625 0 -2.59375 1.999999l0 8.15625q0 1.703125 0.3125 2.15625q0.3125 0.453125 1.1875 0.578125l0 0.578125l-7.703125 0l0 -0.578125q0.953125 -0.109375 1.359375 -0.625q0.28125 -0.359375 0.28125 -2.109375l0 -8.593749q0 -1.734375 -0.328125 -2.15625q-0.3125 -0.421875 -1.3125 -0.546875l0 -0.609375l6.203125 0zm15.973022 -7.375q1.0625 0 1.796875 0.75q0.734375 0.734375 0.734375 1.78125q0 1.03125 -0.75 1.765625q-0.734375 0.734375 -1.78125 0.734375q-1.03125 0 -1.765625 -0.734375q-0.734375 -0.734375 -0.734375 -1.765625q0 -1.046875 0.734375 -1.78125q0.734375 -0.75 1.765625 -0.75zm2.28125 7.375l0 12.062499q0 1.609375 0.375 2.0625q0.375 0.4375 1.46875 0.515625l0 0.578125l-8.21875 0l0 -0.578125q1.0 -0.046875 1.5 -0.59375q0.3125 -0.375 0.3125 -1.984375l0 -8.890624q0 -1.609375 -0.375 -2.046875q-0.375 -0.453125 -1.4375 -0.515625l0 -0.609375l6.375 0zm10.181503 15.671874l-5.125 -11.796875q-0.921875 -2.124999 -1.4375 -2.703124q-0.375 -0.421875 -1.109375 -0.5625l0 -0.609375l8.078125 0l0 0.609375q-0.765625 0 -1.03125 0.265625q-0.390625 0.359375 -0.390625 0.859375q0 0.59375 0.71875 2.249999l2.5 5.71875l2.0 -4.9375q0.859375 -2.109374 0.859375 -2.984374q0 -0.515625 -0.375 -0.828125q-0.359375 -0.3125 -1.28125 -0.34375l0 -0.609375l4.984375 0l0 0.609375q-0.71875 0.09375 -1.171875 0.53125q-0.453125 0.4375 -1.375 2.593749l-5.078125 11.9375l-0.765625 0zm22.695312 -8.609375l-8.359375 0q0.15625 3.03125 1.625 4.78125q1.109375 1.359375 2.6875 1.359375q0.984375 0 1.78125 -0.546875q0.796875 -0.546875 1.703125 -1.96875l0.5625 0.359375q-1.234375 2.53125 -2.734375 3.578125q-1.5 1.046875 -3.46875 1.046875q-3.390625 0 -5.125 -2.59375q-1.40625 -2.109375 -1.40625 -5.21875q0 -3.796875 2.0625 -6.046874q2.0625 -2.265625 4.828125 -2.265625q2.3125 0 4.0 1.90625q1.703125 1.890625 1.84375 5.609374zm-4.0 -1.09375q0 -2.609374 -0.296875 -3.578124q-0.28125 -0.984375 -0.875 -1.5q-0.34375 -0.28125 -0.921875 -0.28125q-0.84375 0 -1.375 0.828125q-0.96875 1.453125 -0.96875 3.968749l0 0.5625l4.4375 0zm12.214493 -5.968749l0 3.453125q1.515625 -2.359375 2.65625 -3.125q1.140625 -0.78125 2.1875 -0.78125q0.921875 0 1.453125 0.5625q0.546875 0.5625 0.546875 1.59375q0 1.078125 -0.53125 1.6875q-0.515625 0.59374905 -1.265625 0.59374905q-0.859375 0 -1.5 -0.54687405q-0.640625 -0.546875 -0.75 -0.625q-0.15625 -0.09375 -0.375 -0.09375q-0.46875 0 -0.890625 0.359375q-0.671875 0.546875 -1.015625 1.578124q-0.515625 1.578125 -0.515625 3.484375l0 3.5l0.015625 0.90625q0 0.9375 0.109375 1.1875q0.203125 0.4375 0.578125 0.640625q0.390625 0.203125 1.296875 0.265625l0 0.578125l-8.21875 0l0 -0.578125q1.0 -0.09375 1.34375 -0.546875q0.34375 -0.46875 0.34375 -2.453125l0 -8.421874q0 -1.296875 -0.125 -1.65625q-0.15625 -0.453125 -0.46875 -0.65625q-0.3125 -0.21875 -1.09375 -0.296875l0 -0.609375l6.21875 0zm18.089493 -0.421875l0.25 5.187499l-0.546875 0q-1.0 -2.312499 -2.0625 -3.156249q-1.0625 -0.84375 -2.125 -0.84375q-0.671875 0 -1.140625 0.453125q-0.46875 0.4375 -0.46875 1.03125q0 0.4375 0.328125 0.84375q0.515625 0.67187405 2.90625 2.296874q2.390625 1.609375 3.140625 2.75q0.765625 1.125 0.765625 2.515625q0 1.28125 -0.640625 2.5q-0.625 1.21875 -1.78125 1.875q-1.15625 0.640625 -2.5625 0.640625q-1.078125 0 -2.90625 -0.6875q-0.484375 -0.171875 -0.671875 -0.171875q-0.53125 0 -0.890625 0.8125l-0.53125 0l-0.265625 -5.46875l0.546875 0q0.734375 2.15625 2.015625 3.234375q1.28125 1.0625 2.421875 1.0625q0.78125 0 1.265625 -0.46875q0.5 -0.484375 0.5 -1.171875q0 -0.78125 -0.484375 -1.34375q-0.484375 -0.578125 -2.1875 -1.734375q-2.484375 -1.71875 -3.21875 -2.640625q-1.078125 -1.328125 -1.078125 -2.9375q0 -1.765624 1.21875 -3.187499q1.21875 -1.421875 3.5 -1.421875q1.25 0 2.390625 0.609375q0.453125 0.234375 0.71875 0.234375q0.296875 0 0.46875 -0.109375q0.1875 -0.125 0.578125 -0.703125l0.546875 0zm11.751236 13.390624q-2.78125 2.46875 -4.984375 2.46875q-1.3125 0 -2.171875 -0.859375q-0.859375 -0.859375 -0.859375 -2.140625q0 -1.75 1.484375 -3.140625q1.5 -1.390625 6.53125 -3.703125l0 -1.515625q0 -1.734374 -0.1875 -2.171874q-0.1875 -0.453125 -0.703125 -0.78125q-0.515625 -0.34375 -1.171875 -0.34375q-1.0625 0 -1.734375 0.46875q-0.4375 0.296875 -0.4375 0.6875q0 0.34375 0.46875 0.84375q0.609375 0.703125 0.609375 1.359374q0 0.796875 -0.59375 1.359375q-0.59375 0.5625 -1.546875 0.5625q-1.03125 0 -1.71875 -0.625q-0.6875 -0.625 -0.6875 -1.453125q0 -1.171874 0.921875 -2.234374q0.921875 -1.0625 2.578125 -1.625q1.671875 -0.578125 3.453125 -0.578125q2.171875 0 3.421875 0.921875q1.265625 0.921875 1.640625 1.984375q0.234375 0.6875 0.234375 3.140624l0 5.921875q0 1.03125 0.078125 1.3125q0.078125 0.265625 0.234375 0.390625q0.171875 0.125 0.390625 0.125q0.421875 0 0.859375 -0.59375l0.484375 0.390625q-0.8125 1.203125 -1.6875 1.75q-0.859375 0.546875 -1.96875 0.546875q-1.3125 0 -2.046875 -0.609375q-0.71875 -0.625 -0.890625 -1.859375zm0 -1.1875l0 -5.09375q-1.96875 1.15625 -2.921875 2.484375q-0.640625 0.875 -0.640625 1.765625q0 0.75 0.546875 1.3125q0.40625 0.453125 1.125 0.453125q0.828125 0 1.890625 -0.921875zm14.2265625 -18.625l0 18.90625q0 1.609375 0.375 2.0625q0.375 0.4375 1.46875 0.515625l0 0.578125l-8.21875 0l0 -0.578125q1.0 -0.046875 1.5 -0.59375q0.3125 -0.375 0.3125 -1.984375l0 -15.749999q0 -1.59375 -0.375 -2.046875q-0.359375 -0.453125 -1.4375 -0.515625l0 -0.59375l6.375 0zm26.40416 14.546874l5.984375 -14.546874l8.984375 0l0 0.59375l-0.71875 0q-0.984375 0 -1.5625 0.34375q-0.40625 0.234375 -0.65625 0.765625q-0.171875 0.390625 -0.171875 2.03125l0 14.546874q0 1.703125 0.171875 2.125q0.1875 0.421875 0.734375 0.734375q0.546875 0.3125 1.484375 0.3125l0.71875 0l0 0.609375l-11.53125 0l0 -0.609375l0.71875 0q0.984375 0 1.5625 -0.328125q0.40625 -0.234375 0.65625 -0.78125q0.171875 -0.390625 0.171875 -2.0625l0 -16.34375l-8.453125 20.125l-0.390625 0l-8.59375 -19.984375l0 15.546874q0 1.625 0.078125 2.0q0.203125 0.8125 0.90625 1.328125q0.71875 0.5 2.234375 0.5l0 0.609375l-7.546875 0l0 -0.609375l0.21875 0q0.734375 0.03125 1.359375 -0.21875q0.640625 -0.265625 0.96875 -0.6875q0.328125 -0.421875 0.515625 -1.1875q0.03125 -0.171875 0.03125 -1.65625l0 -13.968749q0 -1.671875 -0.1875 -2.078125q-0.171875 -0.421875 -0.734375 -0.734375q-0.546875 -0.328125 -1.484375 -0.328125l-0.6875 0l0 -0.59375l9.015625 0l6.203125 14.546874zm30.39418 -4.187499q3.140625 0.73437405 4.40625 1.781249q1.828125 1.46875 1.828125 3.828125q0 2.5 -2.0 4.125q-2.46875 1.96875 -7.15625 1.96875l-11.203125 0l0 -0.609375q1.53125 0 2.0625 -0.28125q0.546875 -0.28125 0.765625 -0.734375q0.234375 -0.453125 0.234375 -2.25l0 -14.312499q0 -1.796875 -0.234375 -2.25q-0.21875 -0.46875 -0.765625 -0.75q-0.546875 -0.28125 -2.0625 -0.28125l0 -0.59375l10.578125 0q3.78125 0 5.359375 0.671875q1.578125 0.671875 2.484375 2.015625q0.921875 1.34375 0.921875 2.859375q0 1.59375 -1.15625 2.84375q-1.15625 1.234375 -4.0625 1.96875zm-5.921875 -0.4375q2.3125 0 3.40625 -0.515625q1.09375 -0.53125 1.671875 -1.46875q0.59375 -0.9375 0.59375 -2.40625q0 -1.46875 -0.578125 -2.40625q-0.578125 -0.9375 -1.65625 -1.421875q-1.0625 -0.484375 -3.4375 -0.46875l0 8.6875zm0 1.265624l0 7.078125l-0.015625 0.8125q0 0.890625 0.4375 1.34375q0.453125 0.4375 1.328125 0.4375q1.3125 0 2.40625 -0.578125q1.09375 -0.578125 1.671875 -1.671875q0.59375 -1.109375 0.59375 -2.453125q0 -1.546875 -0.71875 -2.765625q-0.71875 -1.234375 -1.96875 -1.71875q-1.25 -0.5 -3.734375 -0.484375zm35.57335 -11.703124l0 7.65625l-0.640625 0q-0.71875 -3.0 -2.671875 -4.59375q-1.953125 -1.59375 -4.421875 -1.59375q-2.0625 0 -3.796875 1.1875q-1.71875 1.1875 -2.515625 3.109375q-1.03125 2.453125 -1.03125 5.468749q0 2.96875 0.75 5.40625q0.75 2.421875 2.34375 3.671875q1.59375 1.234375 4.140625 1.234375q2.078125 0 3.8125 -0.90625q1.734375 -0.90625 3.65625 -3.140625l0 1.90625q-1.859375 1.9375 -3.875 2.8125q-2.0 0.859375 -4.6875 0.859375q-3.53125 0 -6.28125 -1.40625q-2.734375 -1.421875 -4.234375 -4.0625q-1.484375 -2.65625 -1.484375 -5.65625q0 -3.156249 1.65625 -5.984374q1.65625 -2.84375 4.453125 -4.40625q2.8125 -1.5625 5.96875 -1.5625q2.328125 0 4.921875 1.015625q1.5 0.59375 1.90625 0.59375q0.515625 0 0.890625 -0.375q0.390625 -0.390625 0.5 -1.234375l0.640625 0zm26.041153 15.062499l5.984375 -14.546874l8.984375 0l0 0.59375l-0.71875 0q-0.984375 0 -1.5625 0.34375q-0.40625 0.234375 -0.65625 0.765625q-0.171875 0.390625 -0.171875 2.03125l0 14.546874q0 1.703125 0.171875 2.125q0.1875 0.421875 0.734375 0.734375q0.546875 0.3125 1.484375 0.3125l0.71875 0l0 0.609375l-11.53125 0l0 -0.609375l0.71875 0q0.984375 0 1.5625 -0.328125q0.40625 -0.234375 0.65625 -0.78125q0.171875 -0.390625 0.171875 -2.0625l0 -16.34375l-8.4530945 20.125l-0.390625 0l-8.593765 -19.984375l0 15.546874q0 1.625 0.078125 2.0q0.203125 0.8125 0.90625 1.328125q0.71875 0.5 2.2343903 0.5l0 0.609375l-7.5468903 0l0 -0.609375l0.21875 0q0.734375 0.03125 1.359375 -0.21875q0.640625 -0.265625 0.96875 -0.6875q0.328125 -0.421875 0.515625 -1.1875q0.03125 -0.171875 0.03125 -1.65625l0 -13.968749q0 -1.671875 -0.1875 -2.078125q-0.171875 -0.421875 -0.734375 -0.734375q-0.546875 -0.328125 -1.484375 -0.328125l-0.6875 0l0 -0.59375l9.01564 0l6.2030945 14.546874zm23.862946 -8.156249q1.984375 0 3.6875 1.03125q1.71875 1.015625 2.59375 2.90625q0.890625 1.890624 0.890625 4.140624q0 3.234375 -1.640625 5.40625q-1.984375 2.640625 -5.484375 2.640625q-3.421875 0 -5.28125 -2.40625q-1.859375 -2.40625 -1.859375 -5.578125q0 -3.28125 1.890625 -5.703124q1.90625 -2.4375 5.203125 -2.4375zm0.0625 1.15625q-0.828125 0 -1.421875 0.625q-0.59375 0.625 -0.78125 2.484374q-0.1875 1.84375 -0.1875 5.125q0 1.734375 0.234375 3.25q0.171875 1.15625 0.75 1.765625q0.59375 0.59375 1.34375 0.59375q0.734375 0 1.21875 -0.40625q0.640625 -0.546875 0.84375 -1.546875q0.328125 -1.546875 0.328125 -6.25q0 -2.765624 -0.3125 -3.796874q-0.296875 -1.03125 -0.90625 -1.5q-0.421875 -0.34375 -1.109375 -0.34375zm24.226562 -7.546875l0 17.5q0 1.78125 0.09375 2.109375q0.125 0.53125 0.484375 0.796875q0.375 0.25 1.28125 0.328125l0 0.53125l-6.421875 1.25l0 -2.40625q-1.15625 1.40625 -2.0625 1.90625q-0.90625 0.5 -2.03125 0.5q-2.921875 0 -4.609375 -2.59375q-1.375 -2.125 -1.375 -5.203125q0 -2.453125 0.84375 -4.390624q0.859375 -1.953125 2.328125 -2.9375q1.46875 -1.0 3.15625 -1.0q1.09375 0 1.9375 0.421875q0.859375 0.421875 1.8125 1.484375l0 -4.59375q0 -1.734375 -0.140625 -2.09375q-0.203125 -0.46875 -0.59375 -0.703125q-0.390625 -0.234375 -1.46875 -0.234375l0 -0.671875l6.765625 0zm-4.5625 10.3125q-1.203125 -2.3125 -2.953125 -2.3125q-0.59375 0 -0.984375 0.328125q-0.609375 0.5 -1.0 1.78125q-0.375 1.265624 -0.375 3.874999q0 2.890625 0.421875 4.28125q0.4375 1.375 1.15625 1.984375q0.375 0.3125 1.03125 0.3125q1.4375 0 2.703125 -2.25l0 -7.999999zm21.191772 3.593749l-8.359375 0q0.15625 3.03125 1.625 4.78125q1.109375 1.359375 2.6875 1.359375q0.984375 0 1.78125 -0.546875q0.796875 -0.546875 1.703125 -1.96875l0.5625 0.359375q-1.234375 2.53125 -2.734375 3.578125q-1.5 1.046875 -3.46875 1.046875q-3.390625 0 -5.125 -2.59375q-1.40625 -2.109375 -1.40625 -5.21875q0 -3.796875 2.0625 -6.046874q2.0625 -2.265625 4.828125 -2.265625q2.3125 0 4.0 1.90625q1.703125 1.890625 1.84375 5.609374zm-4.0 -1.09375q0 -2.609374 -0.296875 -3.578124q-0.28125 -0.984375 -0.875 -1.5q-0.34375 -0.28125 -0.921875 -0.28125q-0.84375 0 -1.375 0.828125q-0.96875 1.453125 -0.96875 3.968749l0 0.5625l4.4375 0zm11.855133 -12.812499l0 18.90625q0 1.609375 0.375 2.0625q0.375 0.4375 1.46875 0.515625l0 0.578125l-8.21875 0l0 -0.578125q1.0 -0.046875 1.5 -0.59375q0.3125 -0.375 0.3125 -1.984375l0 -15.749999q0 -1.59375 -0.375 -2.046875q-0.359375 -0.453125 -1.4375 -0.515625l0 -0.59375l6.375 0z" fill-rule="nonzero"/><path fill="#f3f3f3" d="m162.39633 219.38846l5.0 0l0 -20.015762l10.0 0l0 20.015762l5.0 0l-10.0 10.0z" fill-rule="evenodd"/><path stroke="#434343" stroke-width="4.0" stroke-linejoin="round" stroke-linecap="butt" d="m162.39633 219.38846l5.0 0l0 -20.015762l10.0 0l0 20.015762l5.0 0l-10.0 10.0z" fill-rule="evenodd"/><path fill="#f3f3f3" d="m264.39633 219.38846l5.0 0l0 -20.015762l10.0 0l0 20.015762l5.0 0l-10.0 10.0z" fill-rule="evenodd"/><path stroke="#434343" stroke-width="4.0" stroke-linejoin="round" stroke-linecap="butt" d="m264.39633 219.38846l5.0 0l0 -20.015762l10.0 0l0 20.015762l5.0 0l-10.0 10.0z" fill-rule="evenodd"/><path fill="#f3f3f3" d="m54.67979 219.38846l5.0 0l0 -20.015762l9.999996 0l0 20.015762l5.0 0l-10.0 10.0z" fill-rule="evenodd"/><path stroke="#434343" stroke-width="4.0" stroke-linejoin="round" stroke-linecap="butt" d="m54.67979 219.38846l5.0 0l0 -20.015762l9.999996 0l0 20.015762l5.0 0l-10.0 10.0z" fill-rule="evenodd"/><path fill="#f3f3f3" d="m476.39633 120.37533l0 0c0 -6.076584 4.9260254 -11.0026245 11.0026245 -11.0026245l248.01047 0c2.9180908 0 5.716675 1.1592026 7.7800293 3.2225952c2.0634155 2.0633926 3.2225952 4.8619537 3.2225952 7.7800293l0 44.010506c0 6.0765686 -4.9260254 11.0026245 -11.0026245 11.0026245l-248.01047 0l0 0c-6.076599 0 -11.0026245 -4.926056 -11.0026245 -11.0026245z" fill-rule="evenodd"/><path stroke="#434343" stroke-width="4.0" stroke-linejoin="round" stroke-linecap="butt" d="m476.39633 120.37533l0 0c0 -6.076584 4.9260254 -11.0026245 11.0026245 -11.0026245l248.01047 0c2.9180908 0 5.716675 1.1592026 7.7800293 3.2225952c2.0634155 2.0633926 3.2225952 4.8619537 3.2225952 7.7800293l0 44.010506c0 6.0765686 -4.9260254 11.0026245 -11.0026245 11.0026245l-248.01047 0l0 0c-6.076599 0 -11.0026245 -4.926056 -11.0026245 -11.0026245z" fill-rule="evenodd"/><path fill="#8e7cc3" d="m488.39633 142.38058l0 0c0 -14.411598 11.682892 -26.094498 26.094452 -26.094498l0 0c6.9207153 0 13.557983 2.749237 18.4516 7.6428986c4.8936768 4.8936615 7.6429443 11.530899 7.6429443 18.4516l0 0c0 14.411575 -11.682922 26.094482 -26.094543 26.094482l0 0c-14.41156 0 -26.094452 -11.682907 -26.094452 -26.094482z" fill-rule="evenodd"/><path stroke="#434343" stroke-width="4.0" stroke-linejoin="round" stroke-linecap="butt" d="m488.39633 142.38058l0 0c0 -14.411598 11.682892 -26.094498 26.094452 -26.094498l0 0c6.9207153 0 13.557983 2.749237 18.4516 7.6428986c4.8936768 4.8936615 7.6429443 11.530899 7.6429443 18.4516l0 0c0 14.411575 -11.682922 26.094482 -26.094543 26.094482l0 0c-14.41156 0 -26.094452 -11.682907 -26.094452 -26.094482z" fill-rule="evenodd"/><path fill="#8e7cc3" d="m553.3963 142.38058l0 0c0 -14.411598 11.682922 -26.094498 26.094482 -26.094498l0 0c6.9207153 0 13.557983 2.749237 18.4516 7.6428986c4.8936768 4.8936615 7.6429443 11.530899 7.6429443 18.4516l0 0c0 14.411575 -11.682922 26.094482 -26.094543 26.094482l0 0c-14.41156 0 -26.094482 -11.682907 -26.094482 -26.094482z" fill-rule="evenodd"/><path stroke="#434343" stroke-width="4.0" stroke-linejoin="round" stroke-linecap="butt" d="m553.3963 142.38058l0 0c0 -14.411598 11.682922 -26.094498 26.094482 -26.094498l0 0c6.9207153 0 13.557983 2.749237 18.4516 7.6428986c4.8936768 4.8936615 7.6429443 11.530899 7.6429443 18.4516l0 0c0 14.411575 -11.682922 26.094482 -26.094543 26.094482l0 0c-14.41156 0 -26.094482 -11.682907 -26.094482 -26.094482z" fill-rule="evenodd"/><path fill="#8e7cc3" d="m618.3963 142.38058l0 0c0 -14.411598 11.682922 -26.094498 26.094482 -26.094498l0 0c6.9207153 0 13.557983 2.749237 18.4516 7.6428986c4.8936768 4.8936615 7.6429443 11.530899 7.6429443 18.4516l0 0c0 14.411575 -11.682922 26.094482 -26.094543 26.094482l0 0c-14.41156 0 -26.094482 -11.682907 -26.094482 -26.094482z" fill-rule="evenodd"/><path stroke="#434343" stroke-width="4.0" stroke-linejoin="round" stroke-linecap="butt" d="m618.3963 142.38058l0 0c0 -14.411598 11.682922 -26.094498 26.094482 -26.094498l0 0c6.9207153 0 13.557983 2.749237 18.4516 7.6428986c4.8936768 4.8936615 7.6429443 11.530899 7.6429443 18.4516l0 0c0 14.411575 -11.682922 26.094482 -26.094543 26.094482l0 0c-14.41156 0 -26.094482 -11.682907 -26.094482 -26.094482z" fill-rule="evenodd"/><path fill="#8e7cc3" d="m683.3963 142.38058l0 0c0 -14.411598 11.682922 -26.094498 26.094482 -26.094498l0 0c6.9207153 0 13.557983 2.749237 18.4516 7.6428986c4.8936768 4.8936615 7.6429443 11.530899 7.6429443 18.4516l0 0c0 14.411575 -11.682922 26.094482 -26.094543 26.094482l0 0c-14.41156 0 -26.094482 -11.682907 -26.094482 -26.094482z" fill-rule="evenodd"/><path stroke="#434343" stroke-width="4.0" stroke-linejoin="round" stroke-linecap="butt" d="m683.3963 142.38058l0 0c0 -14.411598 11.682922 -26.094498 26.094482 -26.094498l0 0c6.9207153 0 13.557983 2.749237 18.4516 7.6428986c4.8936768 4.8936615 7.6429443 11.530899 7.6429443 18.4516l0 0c0 14.411575 -11.682922 26.094482 -26.094543 26.094482l0 0c-14.41156 0 -26.094482 -11.682907 -26.094482 -26.094482z" fill-rule="evenodd"/><path fill="#f3f3f3" d="m476.39633 277.9029l0 0c0 -6.076599 4.9260254 -11.0026245 11.0026245 -11.0026245l248.01047 0c2.9180908 0 5.716675 1.1592102 7.7800293 3.2225952c2.0634155 2.063385 3.2225952 4.8619385 3.2225952 7.7800293l0 44.010498c0 6.0765686 -4.9260254 11.0026245 -11.0026245 11.0026245l-248.01047 0l0 0c-6.076599 0 -11.0026245 -4.926056 -11.0026245 -11.0026245z" fill-rule="evenodd"/><path stroke="#434343" stroke-width="4.0" stroke-linejoin="round" stroke-linecap="butt" d="m476.39633 277.9029l0 0c0 -6.076599 4.9260254 -11.0026245 11.0026245 -11.0026245l248.01047 0c2.9180908 0 5.716675 1.1592102 7.7800293 3.2225952c2.0634155 2.063385 3.2225952 4.8619385 3.2225952 7.7800293l0 44.010498c0 6.0765686 -4.9260254 11.0026245 -11.0026245 11.0026245l-248.01047 0l0 0c-6.076599 0 -11.0026245 -4.926056 -11.0026245 -11.0026245z" fill-rule="evenodd"/><path fill="#ffd966" d="m488.39633 299.90814l0 0c0 -14.411591 11.682892 -26.094482 26.094452 -26.094482l0 0c6.9207153 0 13.557983 2.7492065 18.4516 7.6428833c4.8936768 4.8936768 7.6429443 11.530914 7.6429443 18.4516l0 0c0 14.411591 -11.682922 26.094482 -26.094543 26.094482l0 0c-14.41156 0 -26.094452 -11.682892 -26.094452 -26.094482z" fill-rule="evenodd"/><path stroke="#434343" stroke-width="4.0" stroke-linejoin="round" stroke-linecap="butt" d="m488.39633 299.90814l0 0c0 -14.411591 11.682892 -26.094482 26.094452 -26.094482l0 0c6.9207153 0 13.557983 2.7492065 18.4516 7.6428833c4.8936768 4.8936768 7.6429443 11.530914 7.6429443 18.4516l0 0c0 14.411591 -11.682922 26.094482 -26.094543 26.094482l0 0c-14.41156 0 -26.094452 -11.682892 -26.094452 -26.094482z" fill-rule="evenodd"/><path fill="#ffd966" d="m553.3963 299.90814l0 0c0 -14.411591 11.682922 -26.094482 26.094482 -26.094482l0 0c6.9207153 0 13.557983 2.7492065 18.4516 7.6428833c4.8936768 4.8936768 7.6429443 11.530914 7.6429443 18.4516l0 0c0 14.411591 -11.682922 26.094482 -26.094543 26.094482l0 0c-14.41156 0 -26.094482 -11.682892 -26.094482 -26.094482z" fill-rule="evenodd"/><path stroke="#434343" stroke-width="4.0" stroke-linejoin="round" stroke-linecap="butt" d="m553.3963 299.90814l0 0c0 -14.411591 11.682922 -26.094482 26.094482 -26.094482l0 0c6.9207153 0 13.557983 2.7492065 18.4516 7.6428833c4.8936768 4.8936768 7.6429443 11.530914 7.6429443 18.4516l0 0c0 14.411591 -11.682922 26.094482 -26.094543 26.094482l0 0c-14.41156 0 -26.094482 -11.682892 -26.094482 -26.094482z" fill-rule="evenodd"/><path fill="#ffd966" d="m618.3963 299.90814l0 0c0 -14.411591 11.682922 -26.094482 26.094482 -26.094482l0 0c6.9207153 0 13.557983 2.7492065 18.4516 7.6428833c4.8936768 4.8936768 7.6429443 11.530914 7.6429443 18.4516l0 0c0 14.411591 -11.682922 26.094482 -26.094543 26.094482l0 0c-14.41156 0 -26.094482 -11.682892 -26.094482 -26.094482z" fill-rule="evenodd"/><path stroke="#434343" stroke-width="4.0" stroke-linejoin="round" stroke-linecap="butt" d="m618.3963 299.90814l0 0c0 -14.411591 11.682922 -26.094482 26.094482 -26.094482l0 0c6.9207153 0 13.557983 2.7492065 18.4516 7.6428833c4.8936768 4.8936768 7.6429443 11.530914 7.6429443 18.4516l0 0c0 14.411591 -11.682922 26.094482 -26.094543 26.094482l0 0c-14.41156 0 -26.094482 -11.682892 -26.094482 -26.094482z" fill-rule="evenodd"/><path fill="#ffd966" d="m683.3963 299.90814l0 0c0 -14.411591 11.682922 -26.094482 26.094482 -26.094482l0 0c6.9207153 0 13.557983 2.7492065 18.4516 7.6428833c4.8936768 4.8936768 7.6429443 11.530914 7.6429443 18.4516l0 0c0 14.411591 -11.682922 26.094482 -26.094543 26.094482l0 0c-14.41156 0 -26.094482 -11.682892 -26.094482 -26.094482z" fill-rule="evenodd"/><path stroke="#434343" stroke-width="4.0" stroke-linejoin="round" stroke-linecap="butt" d="m683.3963 299.90814l0 0c0 -14.411591 11.682922 -26.094482 26.094482 -26.094482l0 0c6.9207153 0 13.557983 2.7492065 18.4516 7.6428833c4.8936768 4.8936768 7.6429443 11.530914 7.6429443 18.4516l0 0c0 14.411591 -11.682922 26.094482 -26.094543 26.094482l0 0c-14.41156 0 -26.094482 -11.682892 -26.094482 -26.094482z" fill-rule="evenodd"/><path fill="#000000" fill-opacity="0.0" d="m442.39633 49.43307l338.01578 0l0 59.77953l-338.01578 0z" fill-rule="evenodd"/><path fill="#434343" d="m477.69626 67.85494l0 0.75q-1.6875 1.109375 -2.484375 2.171875q-1.109375 1.46875 -1.71875 3.75q-0.78125 2.859375 -0.78125 7.96875q0 4.8125 0.703125 7.484375q0.703125 2.671875 1.921875 4.3125q0.84375 1.140625 2.359375 2.0l0 0.8125q-3.921875 -1.3125 -6.65625 -5.375q-2.71875 -4.0625 -2.71875 -9.34375q0 -5.203125 2.71875 -9.203125q2.71875 -4.015625 6.65625 -5.328125zm16.286041 15.0625l5.984375 -14.546875l8.984375 0l0 0.59375l-0.71875 0q-0.984375 0 -1.5625 0.34375q-0.40625 0.234375 -0.65625 0.765625q-0.171875 0.390625 -0.171875 2.03125l0 14.546875q0 1.703125 0.171875 2.125q0.1875 0.421875 0.734375 0.734375q0.546875 0.3125 1.484375 0.3125l0.71875 0l0 0.609375l-11.53125 0l0 -0.609375l0.71875 0q0.984375 0 1.5625 -0.328125q0.40625 -0.234375 0.65625 -0.78125q0.171875 -0.390625 0.171875 -2.0625l0 -16.34375l-8.453125 20.125l-0.390625 0l-8.59375 -19.984375l0 15.546875q0 1.625 0.078125 2.0q0.203125 0.8125 0.90625 1.328125q0.71875 0.5 2.234375 0.5l0 0.609375l-7.546875 0l0 -0.609375l0.21875 0q0.734375 0.03125 1.359375 -0.21875q0.640625 -0.265625 0.96875 -0.6875q0.328125 -0.421875 0.515625 -1.1875q0.03125 -0.171875 0.03125 -1.65625l0 -13.96875q0 -1.671875 -0.1875 -2.078125q-0.171875 -0.421875 -0.734375 -0.734375q-0.546875 -0.328125 -1.484375 -0.328125l-0.6875 0l0 -0.59375l9.015625 0l6.203125 14.546875zm30.394165 -4.1875q3.140625 0.734375 4.40625 1.78125q1.828125 1.46875 1.828125 3.828125q0 2.5 -2.0 4.125q-2.46875 1.96875 -7.15625 1.96875l-11.203125 0l0 -0.609375q1.53125 0 2.0625 -0.28125q0.546875 -0.28125 0.765625 -0.734375q0.234375 -0.453125 0.234375 -2.25l0 -14.3125q0 -1.796875 -0.234375 -2.25q-0.21875 -0.46875 -0.765625 -0.75q-0.546875 -0.28125 -2.0625 -0.28125l0 -0.59375l10.578125 0q3.78125 0 5.359375 0.671875q1.578125 0.671875 2.484375 2.015625q0.921875 1.34375 0.921875 2.859375q0 1.59375 -1.15625 2.84375q-1.15625 1.234375 -4.0625 1.96875zm-5.921875 -0.4375q2.3125 0 3.40625 -0.515625q1.09375 -0.53125 1.671875 -1.46875q0.59375 -0.9375 0.59375 -2.40625q0 -1.46875 -0.578125 -2.40625q-0.578125 -0.9375 -1.65625 -1.421875q-1.0625 -0.484375 -3.4375 -0.46875l0 8.6875zm0 1.265625l0 7.078125l-0.015625 0.8125q0 0.890625 0.4375 1.34375q0.453125 0.4375 1.328125 0.4375q1.3125 0 2.40625 -0.578125q1.09375 -0.578125 1.671875 -1.671875q0.59375 -1.109375 0.59375 -2.453125q0 -1.546875 -0.71875 -2.765625q-0.71875 -1.234375 -1.96875 -1.71875q-1.25 -0.5 -3.734375 -0.484375zm35.573364 -11.703125l0 7.65625l-0.640625 0q-0.71875 -3.0 -2.671875 -4.59375q-1.953125 -1.59375 -4.421875 -1.59375q-2.0625 0 -3.796875 1.1875q-1.71875 1.1875 -2.515625 3.109375q-1.03125 2.453125 -1.03125 5.46875q0 2.96875 0.75 5.40625q0.75 2.421875 2.34375 3.671875q1.59375 1.234375 4.140625 1.234375q2.078125 0 3.8125 -0.90625q1.734375 -0.90625 3.65625 -3.140625l0 1.90625q-1.859375 1.9375 -3.875 2.8125q-2.0 0.859375 -4.6875 0.859375q-3.53125 0 -6.28125 -1.40625q-2.734375 -1.421875 -4.234375 -4.0625q-1.484375 -2.65625 -1.484375 -5.65625q0 -3.15625 1.65625 -5.984375q1.65625 -2.84375 4.453125 -4.40625q2.8125 -1.5625 5.96875 -1.5625q2.328125 0 4.921875 1.015625q1.5 0.59375 1.90625 0.59375q0.515625 0 0.890625 -0.375q0.390625 -0.390625 0.5 -1.234375l0.640625 0zm2.2247314 29.25l0 -0.75q1.6875 -1.125 2.484375 -2.171875q1.09375 -1.46875 1.734375 -3.75q0.78125 -2.859375 0.78125 -7.96875q0 -4.828125 -0.71875 -7.484375q-0.703125 -2.65625 -1.921875 -4.296875q-0.84375 -1.140625 -2.359375 -2.0l0 -0.828125q3.921875 1.328125 6.640625 5.390625q2.734375 4.0625 2.734375 9.328125q0 5.1875 -2.734375 9.203125q-2.71875 4.015625 -6.640625 5.328125zm34.680603 -29.25l0.171875 7.359375l-0.65625 0q-0.484375 -2.765625 -2.328125 -4.4375q-1.84375 -1.6875 -3.984375 -1.6875q-1.671875 0 -2.640625 0.890625q-0.96875 0.875 -0.96875 2.03125q0 0.734375 0.34375 1.296875q0.46875 0.765625 1.515625 1.515625q0.765625 0.546875 3.53125 1.90625q3.875 1.90625 5.21875 3.59375q1.34375 1.703125 1.34375 3.875q0 2.765625 -2.15625 4.765625q-2.15625 1.984375 -5.484375 1.984375q-1.03125 0 -1.96875 -0.21875q-0.921875 -0.203125 -2.328125 -0.78125q-0.78125 -0.328125 -1.28125 -0.328125q-0.421875 0 -0.890625 0.328125q-0.46875 0.328125 -0.765625 0.984375l-0.609375 0l0 -8.328125l0.609375 0q0.71875 3.515625 2.75 5.359375q2.046875 1.84375 4.40625 1.84375q1.828125 0 2.90625 -0.984375q1.078125 -1.0 1.078125 -2.3125q0 -0.78125 -0.421875 -1.515625q-0.40625 -0.734375 -1.25 -1.390625q-0.84375 -0.65625 -3.0 -1.71875q-3.0 -1.484375 -4.328125 -2.515625q-1.3125 -1.046875 -2.03125 -2.328125q-0.703125 -1.28125 -0.703125 -2.828125q0 -2.640625 1.9375 -4.5q1.9375 -1.859375 4.890625 -1.859375q1.078125 0 2.078125 0.265625q0.765625 0.203125 1.859375 0.734375q1.109375 0.515625 1.546875 0.515625q0.421875 0 0.65625 -0.25q0.25 -0.265625 0.46875 -1.265625l0.484375 0zm16.894897 14.421875l-8.359375 0q0.15625 3.03125 1.625 4.78125q1.109375 1.359375 2.6875 1.359375q0.984375 0 1.78125 -0.546875q0.796875 -0.546875 1.703125 -1.96875l0.5625 0.359375q-1.234375 2.53125 -2.734375 3.578125q-1.5 1.046875 -3.46875 1.046875q-3.390625 0 -5.125 -2.59375q-1.40625 -2.109375 -1.40625 -5.21875q0 -3.796875 2.0625 -6.046875q2.0625 -2.265625 4.828125 -2.265625q2.3125 0 4.0 1.90625q1.703125 1.890625 1.84375 5.609375zm-4.0 -1.09375q0 -2.609375 -0.296875 -3.578125q-0.28125 -0.984375 -0.875 -1.5q-0.34375 -0.28125 -0.921875 -0.28125q-0.84375 0 -1.375 0.828125q-0.96875 1.453125 -0.96875 3.96875l0 0.5625l4.4375 0zm11.933228 -11.53125l0 5.5625l3.609375 0l0 1.609375l-3.609375 0l0 9.390625q0 1.328125 0.125 1.71875q0.125 0.375 0.421875 0.609375q0.3125 0.234375 0.578125 0.234375q1.0625 0 2.0 -1.609375l0.484375 0.359375q-1.3125 3.125 -4.265625 3.125q-1.453125 0 -2.453125 -0.8125q-1.0 -0.8125 -1.28125 -1.796875q-0.15625 -0.5625 -0.15625 -3.0l0 -8.21875l-1.984375 0l0 -0.5625q2.046875 -1.453125 3.484375 -3.046875q1.4375 -1.59375 2.515625 -3.5625l0.53125 0zm21.430542 -0.015625l0 9.0625l0.640625 0q1.46875 0 2.390625 -0.4375q0.921875 -0.4375 1.5625 -1.46875q0.65625 -1.046875 0.84375 -2.828125l0.578125 0l0 11.078125l-0.578125 0q-0.3125 -3.140625 -1.6875 -4.140625q-1.375 -1.0 -3.109375 -1.0l-0.640625 0l0 6.75q0 1.703125 0.1875 2.125q0.1875 0.421875 0.734375 0.734375q0.546875 0.3125 1.46875 0.3125l0.734375 0l0 0.609375l-11.53125 0l0 -0.609375l0.734375 0q0.953125 0 1.546875 -0.328125q0.421875 -0.234375 0.640625 -0.78125q0.1875 -0.390625 0.1875 -2.0625l0 -14.515625q0 -1.6875 -0.1875 -2.109375q-0.171875 -0.421875 -0.71875 -0.734375q-0.546875 -0.328125 -1.46875 -0.328125l-0.734375 0l0 -0.59375l18.609375 0l0 6.328125l-0.65625 0q-0.234375 -2.234375 -1.171875 -3.296875q-0.9375 -1.078125 -2.703125 -1.515625q-0.984375 -0.25 -3.609375 -0.25l-2.0625 0zm27.014404 5.578125l0 11.921875q0 1.734375 0.328125 2.171875q0.328125 0.421875 1.328125 0.546875l0 0.578125l-6.203125 0l0 -2.03125q-1.09375 1.296875 -2.1875 1.890625q-1.09375 0.59375 -2.4375 0.59375q-1.28125 0 -2.28125 -0.78125q-1.0 -0.796875 -1.34375 -1.84375q-0.34375 -1.0625 -0.34375 -3.703125l0 -6.03125q0 -1.734375 -0.328125 -2.15625q-0.3125 -0.421875 -1.3125 -0.546875l0 -0.609375l6.1875 0l0 10.40625q0 1.625 0.15625 2.09375q0.15625 0.46875 0.484375 0.71875q0.34375 0.25 0.78125 0.25q0.59375 0 1.0625 -0.3125q0.640625 -0.421875 1.5625 -1.71875l0 -8.125q0 -1.734375 -0.328125 -2.15625q-0.3125 -0.421875 -1.3125 -0.546875l0 -0.609375l6.1875 0zm10.066772 0l0 1.96875q1.171875 -1.265625 2.234375 -1.84375q1.078125 -0.578125 2.3125 -0.578125q1.484375 0 2.453125 0.828125q0.984375 0.8125 1.3125 2.03125q0.265625 0.9375 0.265625 3.5625l0 5.9375q0 1.75 0.3125 2.1875q0.3125 0.421875 1.328125 0.546875l0 0.578125l-7.703125 0l0 -0.578125q0.859375 -0.125 1.234375 -0.71875q0.265625 -0.40625 0.265625 -2.015625l0 -6.78125q0 -1.875 -0.15625 -2.359375q-0.140625 -0.484375 -0.5 -0.75q-0.34375 -0.265625 -0.765625 -0.265625q-1.390625 0 -2.59375 2.0l0 8.15625q0 1.703125 0.3125 2.15625q0.3125 0.453125 1.1875 0.578125l0 0.578125l-7.703125 0l0 -0.578125q0.953125 -0.109375 1.359375 -0.625q0.28125 -0.359375 0.28125 -2.109375l0 -8.59375q0 -1.734375 -0.328125 -2.15625q-0.3125 -0.421875 -1.3125 -0.546875l0 -0.609375l6.203125 0zm24.738647 11.296875l0.5 0.390625q-1.078125 2.015625 -2.6875 3.0q-1.59375 0.984375 -3.40625 0.984375q-3.03125 0 -4.859375 -2.296875q-1.828125 -2.296875 -1.828125 -5.515625q0 -3.109375 1.65625 -5.46875q2.015625 -2.84375 5.53125 -2.84375q2.359375 0 3.75 1.1875q1.390625 1.1875 1.390625 2.65625q0 0.921875 -0.5625 1.484375q-0.5625 0.546875 -1.484375 0.546875q-0.953125 0 -1.578125 -0.625q-0.625 -0.640625 -0.78125 -2.265625q-0.09375 -1.03125 -0.46875 -1.4375q-0.375 -0.40625 -0.875 -0.40625q-0.78125 0 -1.328125 0.828125q-0.859375 1.25 -0.859375 3.84375q0 2.140625 0.6875 4.109375q0.6875 1.953125 1.875 2.921875q0.890625 0.703125 2.109375 0.703125q0.796875 0 1.515625 -0.375q0.71875 -0.375 1.703125 -1.421875zm8.402039 -16.859375l0 5.5625l3.609375 0l0 1.609375l-3.609375 0l0 9.390625q0 1.328125 0.125 1.71875q0.125 0.375 0.421875 0.609375q0.3125 0.234375 0.578125 0.234375q1.0625 0 2.0 -1.609375l0.484375 0.359375q-1.3125 3.125 -4.265625 3.125q-1.453125 0 -2.453125 -0.8125q-1.0 -0.8125 -1.28125 -1.796875q-0.15625 -0.5625 -0.15625 -3.0l0 -8.21875l-1.984375 0l0 -0.5625q2.046875 -1.453125 3.484375 -3.046875q1.4375 -1.59375 2.515625 -3.5625l0.53125 0zm8.723511 -1.8125q1.0625 0 1.796875 0.75q0.734375 0.734375 0.734375 1.78125q0 1.03125 -0.75 1.765625q-0.734375 0.734375 -1.78125 0.734375q-1.03125 0 -1.765625 -0.734375q-0.734375 -0.734375 -0.734375 -1.765625q0 -1.046875 0.734375 -1.78125q0.734375 -0.75 1.765625 -0.75zm2.28125 7.375l0 12.0625q0 1.609375 0.375 2.0625q0.375 0.4375 1.46875 0.515625l0 0.578125l-8.21875 0l0 -0.578125q1.0 -0.046875 1.5 -0.59375q0.3125 -0.375 0.3125 -1.984375l0 -8.890625q0 -1.609375 -0.375 -2.046875q-0.375 -0.453125 -1.4375 -0.515625l0 -0.609375l6.375 0zm10.494019 -0.453125q1.984375 0 3.6875 1.03125q1.71875 1.015625 2.59375 2.90625q0.890625 1.890625 0.890625 4.140625q0 3.234375 -1.640625 5.40625q-1.984375 2.640625 -5.484375 2.640625q-3.421875 0 -5.28125 -2.40625q-1.859375 -2.40625 -1.859375 -5.578125q0 -3.28125 1.890625 -5.703125q1.90625 -2.4375 5.203125 -2.4375zm0.0625 1.15625q-0.828125 0 -1.421875 0.625q-0.59375 0.625 -0.78125 2.484375q-0.1875 1.84375 -0.1875 5.125q0 1.734375 0.234375 3.25q0.171875 1.15625 0.75 1.765625q0.59375 0.59375 1.34375 0.59375q0.734375 0 1.21875 -0.40625q0.640625 -0.546875 0.84375 -1.546875q0.328125 -1.546875 0.328125 -6.25q0 -2.765625 -0.3125 -3.796875q-0.296875 -1.03125 -0.90625 -1.5q-0.421875 -0.34375 -1.109375 -0.34375zm15.6484375 -0.703125l0 1.96875q1.171875 -1.265625 2.234375 -1.84375q1.078125 -0.578125 2.3125 -0.578125q1.484375 0 2.453125 0.828125q0.984375 0.8125 1.3125 2.03125q0.265625 0.9375 0.265625 3.5625l0 5.9375q0 1.75 0.3125 2.1875q0.3125 0.421875 1.328125 0.546875l0 0.578125l-7.703125 0l0 -0.578125q0.859375 -0.125 1.234375 -0.71875q0.265625 -0.40625 0.265625 -2.015625l0 -6.78125q0 -1.875 -0.15625 -2.359375q-0.140625 -0.484375 -0.5 -0.75q-0.34375 -0.265625 -0.765625 -0.265625q-1.390625 0 -2.59375 2.0l0 8.15625q0 1.703125 0.3125 2.15625q0.3125 0.453125 1.1875 0.578125l0 0.578125l-7.703125 0l0 -0.578125q0.953125 -0.109375 1.359375 -0.625q0.28125 -0.359375 0.28125 -2.109375l0 -8.59375q0 -1.734375 -0.328125 -2.15625q-0.3125 -0.421875 -1.3125 -0.546875l0 -0.609375l6.203125 0z" fill-rule="nonzero"/><path fill="#000000" fill-opacity="0.0" d="m403.71915 207.12073l415.3701 0l0 59.77954l-415.3701 0z" fill-rule="evenodd"/><path fill="#434343" d="m442.51297 225.5426l0 0.75q-1.6875 1.109375 -2.484375 2.171875q-1.109375 1.46875 -1.71875 3.75q-0.78125 2.859375 -0.78125 7.96875q0 4.8125 0.703125 7.484375q0.703125 2.671875 1.921875 4.3125q0.84375 1.140625 2.359375 2.0l0 0.8125q-3.921875 -1.3125 -6.65625 -5.375q-2.71875 -4.0625 -2.71875 -9.34375q0 -5.203125 2.71875 -9.203125q2.71875 -4.015625 6.65625 -5.328125zm8.692261 0.515625l10.890625 13.6875l0 -9.5q0 -1.984375 -0.578125 -2.671875q-0.78125 -0.953125 -2.609375 -0.921875l0 -0.59375l7.28125 0l0 0.59375q-1.390625 0.1875 -1.875 0.46875q-0.484375 0.28125 -0.75 0.921875q-0.265625 0.640625 -0.265625 2.203125l0 18.375l-0.546875 0l-14.921875 -18.375l0 14.03125q0 1.90625 0.859375 2.578125q0.875 0.65625 2.0 0.65625l0.515625 0l0 0.609375l-7.828125 0l0 -0.609375q1.828125 -0.015625 2.546875 -0.734375q0.71875 -0.734375 0.71875 -2.5l0 -15.578125l-0.484375 -0.578125q-0.6875 -0.875 -1.234375 -1.15625q-0.53125 -0.28125 -1.546875 -0.3125l0 -0.59375l7.828125 0zm24.068512 6.390625q1.984375 0 3.6875 1.03125q1.71875 1.015625 2.59375 2.90625q0.890625 1.890625 0.890625 4.140625q0 3.234375 -1.640625 5.40625q-1.984375 2.640625 -5.484375 2.640625q-3.421875 0 -5.28125 -2.40625q-1.859375 -2.40625 -1.859375 -5.578125q0 -3.28125 1.890625 -5.703125q1.90625 -2.4375 5.203125 -2.4375zm0.0625 1.15625q-0.828125 0 -1.421875 0.625q-0.59375 0.625 -0.78125 2.484375q-0.1875 1.84375 -0.1875 5.125q0 1.734375 0.234375 3.25q0.171875 1.15625 0.75 1.765625q0.59375 0.59375 1.34375 0.59375q0.734375 0 1.21875 -0.40625q0.640625 -0.546875 0.84375 -1.546875q0.328125 -1.546875 0.328125 -6.25q0 -2.765625 -0.3125 -3.796875q-0.296875 -1.03125 -0.90625 -1.5q-0.421875 -0.34375 -1.109375 -0.34375zm15.6484375 -0.703125l0 1.96875q1.171875 -1.265625 2.234375 -1.84375q1.078125 -0.578125 2.3125 -0.578125q1.484375 0 2.453125 0.828125q0.984375 0.8125 1.3125 2.03125q0.265625 0.9375 0.265625 3.5625l0 5.9375q0 1.75 0.3125 2.1875q0.3125 0.421875 1.328125 0.546875l0 0.578125l-7.703125 0l0 -0.578125q0.859375 -0.125 1.234375 -0.71875q0.265625 -0.40625 0.265625 -2.015625l0 -6.78125q0 -1.875 -0.15625 -2.359375q-0.140625 -0.484375 -0.5 -0.75q-0.34375 -0.265625 -0.765625 -0.265625q-1.390625 0 -2.59375 2.0l0 8.15625q0 1.703125 0.3125 2.15625q0.3125 0.453125 1.1875 0.578125l0 0.578125l-7.703125 0l0 -0.578125q0.953125 -0.109375 1.359375 -0.625q0.28125 -0.359375 0.28125 -2.109375l0 -8.59375q0 -1.734375 -0.328125 -2.15625q-0.3125 -0.421875 -1.3125 -0.546875l0 -0.609375l6.203125 0zm21.488647 9.25l-9.484375 0l0 -3.375l9.484375 0l0 3.375zm16.69226 -1.546875l5.984375 -14.546875l8.984375 0l0 0.59375l-0.71875 0q-0.984375 0 -1.5625 0.34375q-0.40625 0.234375 -0.65625 0.765625q-0.171875 0.390625 -0.171875 2.03125l0 14.546875q0 1.703125 0.171875 2.125q0.1875 0.421875 0.734375 0.734375q0.546875 0.3125 1.484375 0.3125l0.71875 0l0 0.609375l-11.53125 0l0 -0.609375l0.71875 0q0.984375 0 1.5625 -0.328125q0.40625 -0.234375 0.65625 -0.78125q0.171875 -0.390625 0.171875 -2.0625l0 -16.34375l-8.453125 20.125l-0.390625 0l-8.59375 -19.984375l0 15.546875q0 1.625 0.078125 2.0q0.203125 0.8125 0.90625 1.328125q0.71875 0.5 2.234375 0.5l0 0.609375l-7.546875 0l0 -0.609375l0.21875 0q0.734375 0.03125 1.359375 -0.21875q0.640625 -0.265625 0.96875 -0.6875q0.328125 -0.421875 0.515625 -1.1875q0.03125 -0.171875 0.03125 -1.65625l0 -13.96875q0 -1.671875 -0.1875 -2.078125q-0.171875 -0.421875 -0.734375 -0.734375q-0.546875 -0.328125 -1.484375 -0.328125l-0.6875 0l0 -0.59375l9.015625 0l6.203125 14.546875zm30.394226 -4.1875q3.140625 0.734375 4.40625 1.78125q1.828125 1.46875 1.828125 3.828125q0 2.5 -2.0 4.125q-2.46875 1.96875 -7.15625 1.96875l-11.203125 0l0 -0.609375q1.53125 0 2.0625 -0.28125q0.546875 -0.28125 0.765625 -0.734375q0.234375 -0.453125 0.234375 -2.25l0 -14.3125q0 -1.796875 -0.234375 -2.25q-0.21875 -0.46875 -0.765625 -0.75q-0.546875 -0.28125 -2.0625 -0.28125l0 -0.59375l10.578125 0q3.78125 0 5.359375 0.671875q1.578125 0.671875 2.484375 2.015625q0.921875 1.34375 0.921875 2.859375q0 1.59375 -1.15625 2.84375q-1.15625 1.234375 -4.0625 1.96875zm-5.921875 -0.4375q2.3125 0 3.40625 -0.515625q1.09375 -0.53125 1.671875 -1.46875q0.59375 -0.9375 0.59375 -2.40625q0 -1.46875 -0.578125 -2.40625q-0.578125 -0.9375 -1.65625 -1.421875q-1.0625 -0.484375 -3.4375 -0.46875l0 8.6875zm0 1.265625l0 7.078125l-0.015625 0.8125q0 0.890625 0.4375 1.34375q0.453125 0.4375 1.328125 0.4375q1.3125 0 2.40625 -0.578125q1.09375 -0.578125 1.671875 -1.671875q0.59375 -1.109375 0.59375 -2.453125q0 -1.546875 -0.71875 -2.765625q-0.71875 -1.234375 -1.96875 -1.71875q-1.25 -0.5 -3.734375 -0.484375zm35.573303 -11.703125l0 7.65625l-0.640625 0q-0.71875 -3.0 -2.671875 -4.59375q-1.953125 -1.59375 -4.421875 -1.59375q-2.0625 0 -3.796875 1.1875q-1.71875 1.1875 -2.515625 3.109375q-1.03125 2.453125 -1.03125 5.46875q0 2.96875 0.75 5.40625q0.75 2.421875 2.34375 3.671875q1.59375 1.234375 4.140625 1.234375q2.078125 0 3.8125 -0.90625q1.734375 -0.90625 3.65625 -3.140625l0 1.90625q-1.859375 1.9375 -3.875 2.8125q-2.0 0.859375 -4.6875 0.859375q-3.53125 0 -6.28125 -1.40625q-2.734375 -1.421875 -4.234375 -4.0625q-1.484375 -2.65625 -1.484375 -5.65625q0 -3.15625 1.65625 -5.984375q1.65625 -2.84375 4.453125 -4.40625q2.8125 -1.5625 5.96875 -1.5625q2.328125 0 4.921875 1.015625q1.5 0.59375 1.90625 0.59375q0.515625 0 0.890625 -0.375q0.390625 -0.390625 0.5 -1.234375l0.640625 0zm2.2247925 29.25l0 -0.75q1.6875 -1.125 2.484375 -2.171875q1.09375 -1.46875 1.734375 -3.75q0.78125 -2.859375 0.78125 -7.96875q0 -4.828125 -0.71875 -7.484375q-0.703125 -2.65625 -1.921875 -4.296875q-0.84375 -1.140625 -2.359375 -2.0l0 -0.828125q3.921875 1.328125 6.640625 5.390625q2.734375 4.0625 2.734375 9.328125q0 5.1875 -2.734375 9.203125q-2.71875 4.015625 -6.640625 5.328125zm34.680542 -29.25l0.171875 7.359375l-0.65625 0q-0.484375 -2.765625 -2.328125 -4.4375q-1.84375 -1.6875 -3.984375 -1.6875q-1.671875 0 -2.640625 0.890625q-0.96875 0.875 -0.96875 2.03125q0 0.734375 0.34375 1.296875q0.46875 0.765625 1.515625 1.515625q0.765625 0.546875 3.53125 1.90625q3.875 1.90625 5.21875 3.59375q1.34375 1.703125 1.34375 3.875q0 2.765625 -2.15625 4.765625q-2.15625 1.984375 -5.484375 1.984375q-1.03125 0 -1.96875 -0.21875q-0.921875 -0.203125 -2.328125 -0.78125q-0.78125 -0.328125 -1.28125 -0.328125q-0.421875 0 -0.890625 0.328125q-0.46875 0.328125 -0.765625 0.984375l-0.609375 0l0 -8.328125l0.609375 0q0.71875 3.515625 2.75 5.359375q2.046875 1.84375 4.40625 1.84375q1.828125 0 2.90625 -0.984375q1.078125 -1.0 1.078125 -2.3125q0 -0.78125 -0.421875 -1.515625q-0.40625 -0.734375 -1.25 -1.390625q-0.84375 -0.65625 -3.0 -1.71875q-3.0 -1.484375 -4.328125 -2.515625q-1.3125 -1.046875 -2.03125 -2.328125q-0.703125 -1.28125 -0.703125 -2.828125q0 -2.640625 1.9375 -4.5q1.9375 -1.859375 4.890625 -1.859375q1.078125 0 2.078125 0.265625q0.765625 0.203125 1.859375 0.734375q1.109375 0.515625 1.546875 0.515625q0.421875 0 0.65625 -0.25q0.25 -0.265625 0.46875 -1.265625l0.484375 0zm16.894897 14.421875l-8.359375 0q0.15625 3.03125 1.625 4.78125q1.109375 1.359375 2.6875 1.359375q0.984375 0 1.78125 -0.546875q0.796875 -0.546875 1.703125 -1.96875l0.5625 0.359375q-1.234375 2.53125 -2.734375 3.578125q-1.5 1.046875 -3.46875 1.046875q-3.390625 0 -5.125 -2.59375q-1.40625 -2.109375 -1.40625 -5.21875q0 -3.796875 2.0625 -6.046875q2.0625 -2.265625 4.828125 -2.265625q2.3125 0 4.0 1.90625q1.703125 1.890625 1.84375 5.609375zm-4.0 -1.09375q0 -2.609375 -0.296875 -3.578125q-0.28125 -0.984375 -0.875 -1.5q-0.34375 -0.28125 -0.921875 -0.28125q-0.84375 0 -1.375 0.828125q-0.96875 1.453125 -0.96875 3.96875l0 0.5625l4.4375 0zm11.933228 -11.53125l0 5.5625l3.609375 0l0 1.609375l-3.609375 0l0 9.390625q0 1.328125 0.125 1.71875q0.125 0.375 0.421875 0.609375q0.3125 0.234375 0.578125 0.234375q1.0625 0 2.0 -1.609375l0.484375 0.359375q-1.3125 3.125 -4.265625 3.125q-1.453125 0 -2.453125 -0.8125q-1.0 -0.8125 -1.28125 -1.796875q-0.15625 -0.5625 -0.15625 -3.0l0 -8.21875l-1.984375 0l0 -0.5625q2.046875 -1.453125 3.484375 -3.046875q1.4375 -1.59375 2.515625 -3.5625l0.53125 0zm21.430603 -0.015625l0 9.0625l0.640625 0q1.46875 0 2.390625 -0.4375q0.921875 -0.4375 1.5625 -1.46875q0.65625 -1.046875 0.84375 -2.828125l0.578125 0l0 11.078125l-0.578125 0q-0.3125 -3.140625 -1.6875 -4.140625q-1.375 -1.0 -3.109375 -1.0l-0.640625 0l0 6.75q0 1.703125 0.1875 2.125q0.1875 0.421875 0.734375 0.734375q0.546875 0.3125 1.46875 0.3125l0.734375 0l0 0.609375l-11.53125 0l0 -0.609375l0.734375 0q0.953125 0 1.546875 -0.328125q0.421875 -0.234375 0.640625 -0.78125q0.1875 -0.390625 0.1875 -2.0625l0 -14.515625q0 -1.6875 -0.1875 -2.109375q-0.171875 -0.421875 -0.71875 -0.734375q-0.546875 -0.328125 -1.46875 -0.328125l-0.734375 0l0 -0.59375l18.609375 0l0 6.328125l-0.65625 0q-0.234375 -2.234375 -1.171875 -3.296875q-0.9375 -1.078125 -2.703125 -1.515625q-0.984375 -0.25 -3.609375 -0.25l-2.0625 0zm27.014404 5.578125l0 11.921875q0 1.734375 0.328125 2.171875q0.328125 0.421875 1.328125 0.546875l0 0.578125l-6.203125 0l0 -2.03125q-1.09375 1.296875 -2.1875 1.890625q-1.09375 0.59375 -2.4375 0.59375q-1.28125 0 -2.28125 -0.78125q-1.0 -0.796875 -1.34375 -1.84375q-0.34375 -1.0625 -0.34375 -3.703125l0 -6.03125q0 -1.734375 -0.328125 -2.15625q-0.3125 -0.421875 -1.3125 -0.546875l0 -0.609375l6.1875 0l0 10.40625q0 1.625 0.15625 2.09375q0.15625 0.46875 0.484375 0.71875q0.34375 0.25 0.78125 0.25q0.59375 0 1.0625 -0.3125q0.640625 -0.421875 1.5625 -1.71875l0 -8.125q0 -1.734375 -0.328125 -2.15625q-0.3125 -0.421875 -1.3125 -0.546875l0 -0.609375l6.1875 0zm10.066772 0l0 1.96875q1.171875 -1.265625 2.234375 -1.84375q1.078125 -0.578125 2.3125 -0.578125q1.484375 0 2.453125 0.828125q0.984375 0.8125 1.3125 2.03125q0.265625 0.9375 0.265625 3.5625l0 5.9375q0 1.75 0.3125 2.1875q0.3125 0.421875 1.328125 0.546875l0 0.578125l-7.703125 0l0 -0.578125q0.859375 -0.125 1.234375 -0.71875q0.265625 -0.40625 0.265625 -2.015625l0 -6.78125q0 -1.875 -0.15625 -2.359375q-0.140625 -0.484375 -0.5 -0.75q-0.34375 -0.265625 -0.765625 -0.265625q-1.390625 0 -2.59375 2.0l0 8.15625q0 1.703125 0.3125 2.15625q0.3125 0.453125 1.1875 0.578125l0 0.578125l-7.703125 0l0 -0.578125q0.953125 -0.109375 1.359375 -0.625q0.28125 -0.359375 0.28125 -2.109375l0 -8.59375q0 -1.734375 -0.328125 -2.15625q-0.3125 -0.421875 -1.3125 -0.546875l0 -0.609375l6.203125 0zm24.738647 11.296875l0.5 0.390625q-1.078125 2.015625 -2.6875 3.0q-1.59375 0.984375 -3.40625 0.984375q-3.03125 0 -4.859375 -2.296875q-1.828125 -2.296875 -1.828125 -5.515625q0 -3.109375 1.65625 -5.46875q2.015625 -2.84375 5.53125 -2.84375q2.359375 0 3.75 1.1875q1.390625 1.1875 1.390625 2.65625q0 0.921875 -0.5625 1.484375q-0.5625 0.546875 -1.484375 0.546875q-0.953125 0 -1.578125 -0.625q-0.625 -0.640625 -0.78125 -2.265625q-0.09375 -1.03125 -0.46875 -1.4375q-0.375 -0.40625 -0.875 -0.40625q-0.78125 0 -1.328125 0.828125q-0.859375 1.25 -0.859375 3.84375q0 2.140625 0.6875 4.109375q0.6875 1.953125 1.875 2.921875q0.890625 0.703125 2.109375 0.703125q0.796875 0 1.515625 -0.375q0.71875 -0.375 1.703125 -1.421875zm8.401978 -16.859375l0 5.5625l3.609375 0l0 1.609375l-3.609375 0l0 9.390625q0 1.328125 0.125 1.71875q0.125 0.375 0.421875 0.609375q0.3125 0.234375 0.578125 0.234375q1.0625 0 2.0 -1.609375l0.484375 0.359375q-1.3125 3.125 -4.265625 3.125q-1.453125 0 -2.453125 -0.8125q-1.0 -0.8125 -1.28125 -1.796875q-0.15625 -0.5625 -0.15625 -3.0l0 -8.21875l-1.984375 0l0 -0.5625q2.046875 -1.453125 3.484375 -3.046875q1.4375 -1.59375 2.515625 -3.5625l0.53125 0zm8.723511 -1.8125q1.0625 0 1.796875 0.75q0.734375 0.734375 0.734375 1.78125q0 1.03125 -0.75 1.765625q-0.734375 0.734375 -1.78125 0.734375q-1.03125 0 -1.765625 -0.734375q-0.734375 -0.734375 -0.734375 -1.765625q0 -1.046875 0.734375 -1.78125q0.734375 -0.75 1.765625 -0.75zm2.28125 7.375l0 12.0625q0 1.609375 0.375 2.0625q0.375 0.4375 1.46875 0.515625l0 0.578125l-8.21875 0l0 -0.578125q1.0 -0.046875 1.5 -0.59375q0.3125 -0.375 0.3125 -1.984375l0 -8.890625q0 -1.609375 -0.375 -2.046875q-0.375 -0.453125 -1.4375 -0.515625l0 -0.609375l6.375 0zm10.494019 -0.453125q1.984375 0 3.6875 1.03125q1.71875 1.015625 2.59375 2.90625q0.890625 1.890625 0.890625 4.140625q0 3.234375 -1.640625 5.40625q-1.984375 2.640625 -5.484375 2.640625q-3.421875 0 -5.28125 -2.40625q-1.859375 -2.40625 -1.859375 -5.578125q0 -3.28125 1.890625 -5.703125q1.90625 -2.4375 5.203125 -2.4375zm0.0625 1.15625q-0.828125 0 -1.421875 0.625q-0.59375 0.625 -0.78125 2.484375q-0.1875 1.84375 -0.1875 5.125q0 1.734375 0.234375 3.25q0.171875 1.15625 0.75 1.765625q0.59375 0.59375 1.34375 0.59375q0.734375 0 1.21875 -0.40625q0.640625 -0.546875 0.84375 -1.546875q0.328125 -1.546875 0.328125 -6.25q0 -2.765625 -0.3125 -3.796875q-0.296875 -1.03125 -0.90625 -1.5q-0.421875 -0.34375 -1.109375 -0.34375zm15.6484375 -0.703125l0 1.96875q1.171875 -1.265625 2.234375 -1.84375q1.078125 -0.578125 2.3125 -0.578125q1.484375 0 2.453125 0.828125q0.984375 0.8125 1.3125 2.03125q0.265625 0.9375 0.265625 3.5625l0 5.9375q0 1.75 0.3125 2.1875q0.3125 0.421875 1.328125 0.546875l0 0.578125l-7.703125 0l0 -0.578125q0.859375 -0.125 1.234375 -0.71875q0.265625 -0.40625 0.265625 -2.015625l0 -6.78125q0 -1.875 -0.15625 -2.359375q-0.140625 -0.484375 -0.5 -0.75q-0.34375 -0.265625 -0.765625 -0.265625q-1.390625 0 -2.59375 2.0l0 8.15625q0 1.703125 0.3125 2.15625q0.3125 0.453125 1.1875 0.578125l0 0.578125l-7.703125 0l0 -0.578125q0.953125 -0.109375 1.359375 -0.625q0.28125 -0.359375 0.28125 -2.109375l0 -8.59375q0 -1.734375 -0.328125 -2.15625q-0.3125 -0.421875 -1.3125 -0.546875l0 -0.609375l6.203125 0z" fill-rule="nonzero"/><path fill="#76a5af" d="m572.03284 474.88452l39.370056 -40.0l39.370056 40.0l-39.370056 40.0z" fill-rule="evenodd"/><path stroke="#434343" stroke-width="4.0" stroke-linejoin="round" stroke-linecap="butt" d="m572.03284 474.88452l39.370056 -40.0l39.370056 40.0l-39.370056 40.0z" fill-rule="evenodd"/><path fill="#000000" fill-opacity="0.0" d="m442.39633 377.00262l338.01572 0l0 59.77954l-338.01572 0z" fill-rule="evenodd"/><path fill="#434343" d="m502.62808 395.4245l0 7.65625l-0.640625 0q-0.71875 -3.0 -2.671875 -4.59375q-1.953125 -1.59375 -4.421875 -1.59375q-2.0625 0 -3.796875 1.1875q-1.71875 1.1875 -2.515625 3.109375q-1.03125 2.453125 -1.03125 5.46875q0 2.96875 0.75 5.40625q0.75 2.421875 2.34375 3.671875q1.59375 1.234375 4.140625 1.234375q2.078125 0 3.8125 -0.90625q1.734375 -0.90625 3.65625 -3.140625l0 1.90625q-1.859375 1.9375 -3.875 2.8125q-2.0 0.859375 -4.6875 0.859375q-3.53125 0 -6.28125 -1.40625q-2.734375 -1.421875 -4.234375 -4.0625q-1.484375 -2.65625 -1.484375 -5.65625q0 -3.15625 1.65625 -5.984375q1.65625 -2.84375 4.453125 -4.40625q2.8125 -1.5625 5.96875 -1.5625q2.328125 0 4.921875 1.015625q1.5 0.59375 1.90625 0.59375q0.515625 0 0.890625 -0.375q0.390625 -0.390625 0.5 -1.234375l0.640625 0zm10.115387 6.90625q1.984375 0 3.6875 1.03125q1.71875 1.015625 2.59375 2.90625q0.890625 1.890625 0.890625 4.140625q0 3.234375 -1.640625 5.40625q-1.984375 2.640625 -5.484375 2.640625q-3.421875 0 -5.28125 -2.40625q-1.859375 -2.40625 -1.859375 -5.578125q0 -3.28125 1.890625 -5.703125q1.90625 -2.4375 5.203125 -2.4375zm0.0625 1.15625q-0.828125 0 -1.421875 0.625q-0.59375 0.625 -0.78125 2.484375q-0.1875 1.84375 -0.1875 5.125q0 1.734375 0.234375 3.25q0.171875 1.15625 0.75 1.765625q0.59375 0.59375 1.34375 0.59375q0.734375 0 1.21875 -0.40625q0.640625 -0.546875 0.84375 -1.546875q0.328125 -1.546875 0.328125 -6.25q0 -2.765625 -0.3125 -3.796875q-0.296875 -1.03125 -0.90625 -1.5q-0.421875 -0.34375 -1.109375 -0.34375zm15.6484375 -0.703125l0 1.96875q1.171875 -1.265625 2.234375 -1.84375q1.078125 -0.578125 2.3125 -0.578125q1.484375 0 2.453125 0.828125q0.984375 0.8125 1.3125 2.03125q0.265625 0.9375 0.265625 3.5625l0 5.9375q0 1.75 0.3125 2.1875q0.3125 0.421875 1.328125 0.546875l0 0.578125l-7.703125 0l0 -0.578125q0.859375 -0.125 1.234375 -0.71875q0.265625 -0.40625 0.265625 -2.015625l0 -6.78125q0 -1.875 -0.15625 -2.359375q-0.140625 -0.484375 -0.5 -0.75q-0.34375 -0.265625 -0.765625 -0.265625q-1.390625 0 -2.59375 2.0l0 8.15625q0 1.703125 0.3125 2.15625q0.3125 0.453125 1.1875 0.578125l0 0.578125l-7.703125 0l0 -0.578125q0.953125 -0.109375 1.359375 -0.625q0.28125 -0.359375 0.28125 -2.109375l0 -8.59375q0 -1.734375 -0.328125 -2.15625q-0.3125 -0.421875 -1.3125 -0.546875l0 -0.609375l6.203125 0zm21.926147 -0.421875l0.25 5.1875l-0.546875 0q-1.0 -2.3125 -2.0625 -3.15625q-1.0625 -0.84375 -2.125 -0.84375q-0.671875 0 -1.140625 0.453125q-0.46875 0.4375 -0.46875 1.03125q0 0.4375 0.328125 0.84375q0.515625 0.671875 2.90625 2.296875q2.390625 1.609375 3.140625 2.75q0.765625 1.125 0.765625 2.515625q0 1.28125 -0.640625 2.5q-0.625 1.21875 -1.78125 1.875q-1.15625 0.640625 -2.5625 0.640625q-1.078125 0 -2.90625 -0.6875q-0.484375 -0.171875 -0.671875 -0.171875q-0.53125 0 -0.890625 0.8125l-0.53125 0l-0.265625 -5.46875l0.546875 0q0.734375 2.15625 2.015625 3.234375q1.28125 1.0625 2.421875 1.0625q0.78125 0 1.265625 -0.46875q0.5 -0.484375 0.5 -1.171875q0 -0.78125 -0.484375 -1.34375q-0.484375 -0.578125 -2.1875 -1.734375q-2.484375 -1.71875 -3.21875 -2.640625q-1.078125 -1.328125 -1.078125 -2.9375q0 -1.765625 1.21875 -3.1875q1.21875 -1.421875 3.5 -1.421875q1.25 0 2.390625 0.609375q0.453125 0.234375 0.71875 0.234375q0.296875 0 0.46875 -0.109375q0.1875 -0.125 0.578125 -0.703125l0.546875 0zm7.0168457 -6.953125q1.0625 0 1.796875 0.75q0.734375 0.734375 0.734375 1.78125q0 1.03125 -0.75 1.765625q-0.734375 0.734375 -1.78125 0.734375q-1.03125 0 -1.765625 -0.734375q-0.734375 -0.734375 -0.734375 -1.765625q0 -1.046875 0.734375 -1.78125q0.734375 -0.75 1.765625 -0.75zm2.28125 7.375l0 12.0625q0 1.609375 0.375 2.0625q0.375 0.4375 1.46875 0.515625l0 0.578125l-8.21875 0l0 -0.578125q1.0 -0.046875 1.5 -0.59375q0.3125 -0.375 0.3125 -1.984375l0 -8.890625q0 -1.609375 -0.375 -2.046875q-0.375 -0.453125 -1.4375 -0.515625l0 -0.609375l6.375 0zm12.931519 -0.421875l0.25 5.1875l-0.546875 0q-1.0 -2.3125 -2.0625 -3.15625q-1.0625 -0.84375 -2.125 -0.84375q-0.671875 0 -1.140625 0.453125q-0.46875 0.4375 -0.46875 1.03125q0 0.4375 0.328125 0.84375q0.515625 0.671875 2.90625 2.296875q2.390625 1.609375 3.140625 2.75q0.765625 1.125 0.765625 2.515625q0 1.28125 -0.640625 2.5q-0.625 1.21875 -1.78125 1.875q-1.15625 0.640625 -2.5625 0.640625q-1.078125 0 -2.90625 -0.6875q-0.484375 -0.171875 -0.671875 -0.171875q-0.53125 0 -0.890625 0.8125l-0.53125 0l-0.265625 -5.46875l0.546875 0q0.734375 2.15625 2.015625 3.234375q1.28125 1.0625 2.421875 1.0625q0.78125 0 1.265625 -0.46875q0.5 -0.484375 0.5 -1.171875q0 -0.78125 -0.484375 -1.34375q-0.484375 -0.578125 -2.1875 -1.734375q-2.484375 -1.71875 -3.21875 -2.640625q-1.078125 -1.328125 -1.078125 -2.9375q0 -1.765625 1.21875 -3.1875q1.21875 -1.421875 3.5 -1.421875q1.25 0 2.390625 0.609375q0.453125 0.234375 0.71875 0.234375q0.296875 0 0.46875 -0.109375q0.1875 -0.125 0.578125 -0.703125l0.546875 0zm9.391846 -5.140625l0 5.5625l3.609375 0l0 1.609375l-3.609375 0l0 9.390625q0 1.328125 0.125 1.71875q0.125 0.375 0.421875 0.609375q0.3125 0.234375 0.578125 0.234375q1.0625 0 2.0 -1.609375l0.484375 0.359375q-1.3125 3.125 -4.265625 3.125q-1.453125 0 -2.453125 -0.8125q-1.0 -0.8125 -1.28125 -1.796875q-0.15625 -0.5625 -0.15625 -3.0l0 -8.21875l-1.984375 0l0 -0.5625q2.046875 -1.453125 3.484375 -3.046875q1.4375 -1.59375 2.515625 -3.5625l0.53125 0zm17.957886 12.625l-8.359375 0q0.15625 3.03125 1.625 4.78125q1.109375 1.359375 2.6875 1.359375q0.984375 0 1.78125 -0.546875q0.796875 -0.546875 1.703125 -1.96875l0.5625 0.359375q-1.234375 2.53125 -2.734375 3.578125q-1.5 1.046875 -3.46875 1.046875q-3.390625 0 -5.125 -2.59375q-1.40625 -2.109375 -1.40625 -5.21875q0 -3.796875 2.0625 -6.046875q2.0625 -2.265625 4.828125 -2.265625q2.3125 0 4.0 1.90625q1.703125 1.890625 1.84375 5.609375zm-4.0 -1.09375q0 -2.609375 -0.296875 -3.578125q-0.28125 -0.984375 -0.875 -1.5q-0.34375 -0.28125 -0.921875 -0.28125q-0.84375 0 -1.375 0.828125q-0.96875 1.453125 -0.96875 3.96875l0 0.5625l4.4375 0zm12.120789 -5.96875l0 1.96875q1.171875 -1.265625 2.234375 -1.84375q1.078125 -0.578125 2.3125 -0.578125q1.484375 0 2.453125 0.828125q0.984375 0.8125 1.3125 2.03125q0.265625 0.9375 0.265625 3.5625l0 5.9375q0 1.75 0.3125 2.1875q0.3125 0.421875 1.328125 0.546875l0 0.578125l-7.703125 0l0 -0.578125q0.859375 -0.125 1.234375 -0.71875q0.265625 -0.40625 0.265625 -2.015625l0 -6.78125q0 -1.875 -0.15625 -2.359375q-0.140625 -0.484375 -0.5 -0.75q-0.34375 -0.265625 -0.765625 -0.265625q-1.390625 0 -2.59375 2.0l0 8.15625q0 1.703125 0.3125 2.15625q0.3125 0.453125 1.1875 0.578125l0 0.578125l-7.703125 0l0 -0.578125q0.953125 -0.109375 1.359375 -0.625q0.28125 -0.359375 0.28125 -2.109375l0 -8.59375q0 -1.734375 -0.328125 -2.15625q-0.3125 -0.421875 -1.3125 -0.546875l0 -0.609375l6.203125 0zm18.348022 -5.5625l0 5.5625l3.609375 0l0 1.609375l-3.609375 0l0 9.390625q0 1.328125 0.125 1.71875q0.125 0.375 0.421875 0.609375q0.3125 0.234375 0.578125 0.234375q1.0625 0 2.0 -1.609375l0.484375 0.359375q-1.3125 3.125 -4.265625 3.125q-1.453125 0 -2.453125 -0.8125q-1.0 -0.8125 -1.28125 -1.796875q-0.15625 -0.5625 -0.15625 -3.0l0 -8.21875l-1.984375 0l0 -0.5625q2.046875 -1.453125 3.484375 -3.046875q1.4375 -1.59375 2.515625 -3.5625l0.53125 0zm25.149292 -1.59375q5.265625 -0.203125 8.5625 3.078125q3.296875 3.265625 3.296875 8.1875q0 4.1875 -2.453125 7.375q-3.25 4.234375 -9.203125 4.234375q-5.953125 0 -9.203125 -4.03125q-2.578125 -3.1875 -2.578125 -7.5625q0 -4.921875 3.34375 -8.203125q3.34375 -3.28125 8.234375 -3.078125zm0.1875 1.046875q-3.015625 0 -4.59375 3.078125q-1.296875 2.546875 -1.296875 7.296875q0 5.640625 1.984375 8.34375q1.390625 1.890625 3.875 1.890625q1.6875 0 2.796875 -0.8125q1.4375 -1.046875 2.234375 -3.328125q0.796875 -2.28125 0.796875 -5.96875q0 -4.375 -0.8125 -6.546875q-0.8125 -2.171875 -2.078125 -3.0625q-1.25 -0.890625 -2.90625 -0.890625zm28.673706 6.109375l0 11.921875q0 1.734375 0.328125 2.171875q0.328125 0.421875 1.328125 0.546875l0 0.578125l-6.203125 0l0 -2.03125q-1.09375 1.296875 -2.1875 1.890625q-1.09375 0.59375 -2.4375 0.59375q-1.28125 0 -2.28125 -0.78125q-1.0 -0.796875 -1.34375 -1.84375q-0.34375 -1.0625 -0.34375 -3.703125l0 -6.03125q0 -1.734375 -0.328125 -2.15625q-0.3125 -0.421875 -1.3125 -0.546875l0 -0.609375l6.1875 0l0 10.40625q0 1.625 0.15625 2.09375q0.15625 0.46875 0.484375 0.71875q0.34375 0.25 0.78125 0.25q0.59375 0 1.0625 -0.3125q0.640625 -0.421875 1.5625 -1.71875l0 -8.125q0 -1.734375 -0.328125 -2.15625q-0.3125 -0.421875 -1.3125 -0.546875l0 -0.609375l6.1875 0zm9.879272 -5.5625l0 5.5625l3.609375 0l0 1.609375l-3.609375 0l0 9.390625q0 1.328125 0.125 1.71875q0.125 0.375 0.421875 0.609375q0.3125 0.234375 0.578125 0.234375q1.0625 0 2.0 -1.609375l0.484375 0.359375q-1.3125 3.125 -4.265625 3.125q-1.453125 0 -2.453125 -0.8125q-1.0 -0.8125 -1.28125 -1.796875q-0.15625 -0.5625 -0.15625 -3.0l0 -8.21875l-1.984375 0l0 -0.5625q2.046875 -1.453125 3.484375 -3.046875q1.4375 -1.59375 2.515625 -3.5625l0.53125 0zm10.957886 19.234375l0 5.671875q0 1.15625 0.1875 1.578125q0.1875 0.4375 0.578125 0.625q0.390625 0.203125 1.53125 0.203125l0 0.59375l-8.671875 0l0 -0.59375q1.0 -0.03125 1.484375 -0.578125q0.328125 -0.375 0.328125 -1.9375l0 -16.0625q0 -1.609375 -0.375 -2.046875q-0.375 -0.453125 -1.4375 -0.515625l0 -0.609375l6.375 0l0 2.0q0.796875 -1.171875 1.625 -1.6875q1.1875 -0.765625 2.59375 -0.765625q1.671875 0 3.046875 1.0625q1.375 1.046875 2.09375 2.921875q0.71875 1.859375 0.71875 4.0q0 2.3125 -0.75 4.234375q-0.734375 1.90625 -2.140625 2.90625q-1.40625 1.0 -3.140625 1.0q-1.25 0 -2.34375 -0.546875q-0.8125 -0.421875 -1.703125 -1.453125zm0 -1.640625q1.390625 1.984375 3.0 1.984375q0.875 0 1.4375 -0.921875q0.84375 -1.375 0.84375 -5.21875q0 -3.9375 -0.921875 -5.375q-0.625 -0.96875 -1.65625 -0.96875q-1.640625 0 -2.703125 2.375l0 8.125zm27.332397 -12.03125l0 11.921875q0 1.734375 0.328125 2.171875q0.328125 0.421875 1.328125 0.546875l0 0.578125l-6.203125 0l0 -2.03125q-1.09375 1.296875 -2.1875 1.890625q-1.09375 0.59375 -2.4375 0.59375q-1.28125 0 -2.28125 -0.78125q-1.0 -0.796875 -1.34375 -1.84375q-0.34375 -1.0625 -0.34375 -3.703125l0 -6.03125q0 -1.734375 -0.328125 -2.15625q-0.3125 -0.421875 -1.3125 -0.546875l0 -0.609375l6.1875 0l0 10.40625q0 1.625 0.15625 2.09375q0.15625 0.46875 0.484375 0.71875q0.34375 0.25 0.78125 0.25q0.59375 0 1.0625 -0.3125q0.640625 -0.421875 1.5625 -1.71875l0 -8.125q0 -1.734375 -0.328125 -2.15625q-0.3125 -0.421875 -1.3125 -0.546875l0 -0.609375l6.1875 0zm9.879272 -5.5625l0 5.5625l3.609375 0l0 1.609375l-3.609375 0l0 9.390625q0 1.328125 0.125 1.71875q0.125 0.375 0.421875 0.609375q0.3125 0.234375 0.578125 0.234375q1.0625 0 2.0 -1.609375l0.484375 0.359375q-1.3125 3.125 -4.265625 3.125q-1.453125 0 -2.453125 -0.8125q-1.0 -0.8125 -1.28125 -1.796875q-0.15625 -0.5625 -0.15625 -3.0l0 -8.21875l-1.984375 0l0 -0.5625q2.046875 -1.453125 3.484375 -3.046875q1.4375 -1.59375 2.515625 -3.5625l0.53125 0z" fill-rule="nonzero"/><path fill="#f3f3f3" d="m263.57217 65.79002l-69.0869 0l0 66.35979l-61.054825 0l0 60.600845l130.14172 0z" fill-rule="evenodd"/><path stroke="#274e13" stroke-width="4.0" stroke-linejoin="round" stroke-linecap="butt" d="m263.57217 65.79002l-69.0869 0l0 66.35979l-61.054825 0l0 60.600845l130.14172 0z" fill-rule="evenodd"/><path fill="#f3f3f3" d="m299.4908 57.43307l61.574554 0l12.315216 12.315205l0 117.79503l0 0l-61.574554 0l-12.315216 -12.315201l0 -117.79503z" fill-rule="evenodd"/><path stroke="#073763" stroke-width="4.0" stroke-linejoin="round" stroke-linecap="butt" d="m299.4908 57.43307l61.574554 0l12.315216 12.315205l0 117.79503l0 0l-61.574554 0l-12.315216 -12.315201l0 -117.79503z" fill-rule="evenodd"/><path fill="#f3f3f3" d="m8.0 182.11023l67.00005 0l0 -64.860535l59.015694 0l0 -65.249695l-126.01575 0z" fill-rule="evenodd"/><path stroke="#4c1130" stroke-width="4.0" stroke-linejoin="round" stroke-linecap="butt" d="m8.0 182.11023l67.00005 0l0 -64.860535l59.015694 0l0 -65.249695l-126.01575 0z" fill-rule="evenodd"/><path fill="#dd7e6b" d="m17.207777 84.85827l23.480314 -23.496063l23.480312 23.496063l-23.480312 23.496063z" fill-rule="evenodd"/><path stroke="#434343" stroke-width="4.0" stroke-linejoin="round" stroke-linecap="butt" d="m17.207777 84.85827l23.480314 -23.496063l23.480312 23.496063l-23.480312 23.496063z" fill-rule="evenodd"/><path fill="#c27ba0" d="m83.7334 73.27559l9.535431 0l0 -9.535431l19.07087 0l0 9.535431l9.535431 0l0 23.417328l-9.535431 0l0 9.535431l-19.07087 0l0 -9.535431l-9.535431 0z" fill-rule="evenodd"/><path stroke="#434343" stroke-width="4.0" stroke-linejoin="round" stroke-linecap="butt" d="m83.7334 73.27559l9.535431 0l0 -9.535431l19.07087 0l0 9.535431l9.535431 0l0 23.417328l-9.535431 0l0 9.535431l-19.07087 0l0 -9.535431l-9.535431 0z" fill-rule="evenodd"/><path fill="#93c47d" d="m206.45468 118.6063l10.622055 -42.48819l36.338577 0l-10.622055 42.48819z" fill-rule="evenodd"/><path stroke="#434343" stroke-width="4.0" stroke-linejoin="round" stroke-linecap="butt" d="m206.45468 118.6063l10.622055 -42.48819l36.338577 0l-10.622055 42.48819z" fill-rule="evenodd"/><path fill="#f6b26b" d="m315.41248 110.35433l21.02362 -42.48819l21.02362 42.48819z" fill-rule="evenodd"/><path stroke="#434343" stroke-width="4.0" stroke-linejoin="round" stroke-linecap="butt" d="m315.41248 110.35433l21.02362 -42.48819l21.02362 42.48819z" fill-rule="evenodd"/><path fill="#76a5af" d="m19.657423 148.6063l0 0c0 -11.732788 9.412598 -21.244087 21.023623 -21.244087l0 0c5.5758095 0 10.923252 2.2382126 14.865948 6.222252c3.9426918 3.9840393 6.157673 9.387558 6.157673 15.021835l0 0c0 11.732803 -9.412594 21.244095 -21.02362 21.244095l0 0c-11.611025 0 -21.023623 -9.5112915 -21.023623 -21.244095z" fill-rule="evenodd"/><path stroke="#434343" stroke-width="4.0" stroke-linejoin="round" stroke-linecap="butt" d="m19.657423 148.6063l0 0c0 -11.732788 9.412598 -21.244087 21.023623 -21.244087l0 0c5.5758095 0 10.923252 2.2382126 14.865948 6.222252c3.9426918 3.9840393 6.157673 9.387558 6.157673 15.021835l0 0c0 11.732803 -9.412594 21.244095 -21.02362 21.244095l0 0c-11.611025 0 -21.023623 -9.5112915 -21.023623 -21.244095z" fill-rule="evenodd"/><path fill="#6d9eeb" d="m315.41248 153.11023l0 0c0 -11.732788 9.412598 -21.244095 21.02362 -21.244095l0 0c5.5758057 0 10.923248 2.2382202 14.865936 6.2222595c3.942688 3.9840393 6.1576843 9.387558 6.1576843 15.021835l0 0c0 11.732803 -9.412598 21.244095 -21.02362 21.244095l0 0c-11.611023 0 -21.02362 -9.5112915 -21.02362 -21.244095zm10.51181 0l0 0c0 5.9272766 4.706299 10.732285 10.51181 10.732285c5.8055115 0 10.51181 -4.805008 10.51181 -10.732285c0 -5.9272766 -4.706299 -10.732269 -10.51181 -10.732269l0 0c-5.8055115 0 -10.51181 4.8049927 -10.51181 10.732269z" fill-rule="evenodd"/><path stroke="#434343" stroke-width="4.0" stroke-linejoin="round" stroke-linecap="butt" d="m315.41248 153.11023l0 0c0 -11.732788 9.412598 -21.244095 21.02362 -21.244095l0 0c5.5758057 0 10.923248 2.2382202 14.865936 6.2222595c3.942688 3.9840393 6.1576843 9.387558 6.1576843 15.021835l0 0c0 11.732803 -9.412598 21.244095 -21.02362 21.244095l0 0c-11.611023 0 -21.02362 -9.5112915 -21.02362 -21.244095zm10.51181 0l0 0c0 5.9272766 4.706299 10.732285 10.51181 10.732285c5.8055115 0 10.51181 -4.805008 10.51181 -10.732285c0 -5.9272766 -4.706299 -10.732269 -10.51181 -10.732269l0 0c-5.8055115 0 -10.51181 4.8049927 -10.51181 10.732269z" fill-rule="evenodd"/><path fill="#ea9999" d="m208.90433 147.53557l0 0c3.8182373 0 6.9135284 -3.0952911 6.9135284 -6.9135284l28.2202 0l0 0c0 3.8182373 3.0952759 6.9135284 6.913513 6.9135284l0 27.653275l0 0c-3.8182373 0 -6.913513 3.0952911 -6.913513 6.913513l-28.2202 0c0 -3.818222 -3.0952911 -6.913513 -6.9135284 -6.913513z" fill-rule="evenodd"/><path stroke="#434343" stroke-width="4.0" stroke-linejoin="round" stroke-linecap="butt" d="m208.90433 147.53557l0 0c3.8182373 0 6.9135284 -3.0952911 6.9135284 -6.9135284l28.2202 0l0 0c0 3.8182373 3.0952759 6.9135284 6.913513 6.9135284l0 27.653275l0 0c-3.8182373 0 -6.913513 3.0952911 -6.913513 6.913513l-28.2202 0c0 -3.818222 -3.0952911 -6.913513 -6.9135284 -6.913513z" fill-rule="evenodd"/><path fill="#6fa8dc" d="m143.60353 180.97638l9.244095 -36.97638l23.559052 0l9.244095 36.97638z" fill-rule="evenodd"/><path stroke="#434343" stroke-width="4.0" stroke-linejoin="round" stroke-linecap="butt" d="m143.60353 180.97638l9.244095 -36.97638l23.559052 0l9.244095 36.97638z" fill-rule="evenodd"/></g></svg>